<svg xmlns="http://www.w3.org/2000/svg" xmlns:xlink="http://www.w3.org/1999/xlink" viewBox="0 0 1468 602"><defs><style>.a{fill:#fff;stroke:#707070;}.b{clip-path:url(#a);}.c{fill:url(#b);}.d{opacity:0.758;}.e{fill:url(#c);}.f{opacity:0.997;fill:url(#d);}.g{fill:#e7b333;}</style><clipPath id="a"><rect class="a" width="1468" height="602" transform="translate(6564 -3089)"/></clipPath><linearGradient id="b" x1="0.471" y1="-0.63" x2="0.492" y2="0.938" gradientUnits="objectBoundingBox"><stop offset="0" stop-color="#fff" stop-opacity="0"/><stop offset="0.277" stop-color="#fff" stop-opacity="0.227"/><stop offset="0.735" stop-color="#fff"/><stop offset="1" stop-color="#fff"/></linearGradient><linearGradient id="c" x1="0.692" y1="0.57" x2="1.162" gradientUnits="objectBoundingBox"><stop offset="0" stop-color="#81b23e"/><stop offset="1" stop-color="#aedd6d"/></linearGradient><linearGradient id="d" x1="0.016" y1="1.133" x2="0.838" y2="1" gradientUnits="objectBoundingBox"><stop offset="0" stop-color="#009de0"/><stop offset="1" stop-color="#112143"/></linearGradient></defs><g class="b" transform="translate(-6564 3089)"><g transform="translate(6604 -3456)"><g transform="translate(3 33)"><path class="c" d="M1443.358,577.971c310.9,2.652,398.445,102.714,766.577,162.466,452.309,57.02,712.37-167.773,713.674-275.833.025-2.01.211-97.67,0-99.782-10.059-100.567,668.628,602.493,204.344,739.932s-1684.595,216.558-1684.595,216.558-41.232-376.368-36.207-505.435S1132.458,575.319,1443.358,577.971Z" transform="translate(-1481 -149)"/></g><g class="d" transform="translate(54 -2)"><path class="e" d="M3016.9,639.312l-10.1,21.265V601.405c-.754-60.726-63.842-55.121-77.732-53.755-13.975,1.375-347.756,191.836-397.2,195.958s-252.771,11.29-172.839,15.65c27.3,1.007,98.987,11.261,230.807-35.023,39.578-23.991-11.193-12.91,53.53-35.107,1.329-.456,9.642,24.386,11.252,23.824,68.383-25.7,196.562-71.954,247.235-59.57C2946.768,640.977,3016.9,639.312,3016.9,639.312Z" transform="translate(-1479 -99)"/><path class="f" d="M431.846,541.066h-.028c-24.536,0-49.572-1.2-74.411-3.569-25.461-2.427-51.466-6.151-77.292-11.069-26.433-5.034-53.455-11.466-80.315-19.119-27.459-7.823-55.547-17.149-83.481-27.717,12.015,4.415,25.261,8.491,39.369,12.113,15.057,3.866,31.122,7.219,47.749,9.967a724.555,724.555,0,0,0,117.625,9.246A862.6,862.6,0,0,0,464.129,498.69c26.232-4.427,52.79-10.115,78.935-16.906,27.647-7.181,55.523-15.774,82.853-25.542,28.8-10.293,57.739-22.155,86.009-35.258,14.663-6.8,29.45-14.066,43.95-21.61,14.845-7.723,29.8-15.947,44.454-24.444,15-8.7,30.09-17.92,44.862-27.413C860.3,337.808,875.5,327.541,890.366,317c15.194-10.772,30.466-22.129,45.393-33.757,15.245-11.876,30.559-24.369,45.515-37.131,28.538-24.222,56.995-46.961,84.58-67.583,26.275-19.643,52.461-37.89,77.831-54.237,24.066-15.506,48.037-29.713,71.249-42.227,21.911-11.813,43.724-22.429,64.832-31.553,19.807-8.562,39.517-16.037,58.581-22.215a539.279,539.279,0,0,1,52.5-14.214,448.49,448.49,0,0,1,46.576-7.549,386.283,386.283,0,0,1,40.823-2.219A347.322,347.322,0,0,1,1514.527,6.2c10.2,1.075,20.464,2.645,30.512,4.667a424.828,424.828,0,0,1,44.435,11.8l.007,0c2.9.9,5.627,1.753,8.089,2.484a358.553,358.553,0,0,0-48.259-3.2,443.382,443.382,0,0,0-97.265,11.351,566.769,566.769,0,0,0-97.139,31.723,659.192,659.192,0,0,0-175.188,110.586c-30.28,26.532-55.65,48.285-79.843,68.459-29.326,24.455-56.352,46.1-82.622,66.161-61.913,47.29-119.424,85.565-175.818,117.01-15.53,8.659-31.2,16.911-46.565,24.527-15.891,7.875-31.957,15.314-47.749,22.111-16.283,7.008-32.771,13.545-49,19.431-16.7,6.053-33.628,11.6-50.327,16.488-17.138,5.016-34.539,9.484-51.721,13.282-17.607,3.892-35.5,7.193-53.185,9.813-18.1,2.681-36.51,4.727-54.718,6.081C469.553,540.364,450.6,541.066,431.846,541.066ZM116.121,479.519c-2.644-.973-5.258-1.975-7.77-2.976,2.5.967,5.113,1.968,7.771,2.974Z" transform="translate(460.05 128.012)"/><path class="g" d="M2441.311,718.754c-219.05,4.008-345.386-16.779-439.169-40.493s-304.123-71.172-304.123-71.172S1973,692.977,2095.483,721.663C2329.153,765.813,2416.775,721.5,2441.311,718.754Z" transform="translate(-1479 -99)"/></g></g></g></svg>