<svg xmlns="http://www.w3.org/2000/svg" viewBox="0 0 184.597 54.72"><defs><style>.a{fill:#005695;}.a,.b,.c{fill-rule:evenodd;}.b{fill:#ecc560;}.c{fill:#00528a;}</style></defs><g transform="translate(0.002 0.054)"><path class="a" d="M110.251,45.051c-.283,1.133-1.644,2.494-4.477,2.494-2.04,0-3.57-.51-4.25-1.644a4.149,4.149,0,0,1-.623-2.55V34h2.777v8.841a3.492,3.492,0,0,0,.17,1.53,2.023,2.023,0,0,0,1.87.963,1.883,1.883,0,0,0,1.984-1.644V34h2.89v9.011a3.674,3.674,0,0,1-.34,2.04" transform="translate(-43.718 -14.755)"/><path class="a" d="M127.141,42.394a1.527,1.527,0,0,0-.85-.283,2.232,2.232,0,0,0-1.53.85v6.971H122.1V43.357a9.835,9.835,0,0,0-.4-3l2.324-.453a2.418,2.418,0,0,1,.4,1.36,3.327,3.327,0,0,1,2.324-1.36,2.046,2.046,0,0,1,.963.17Z" transform="translate(-52.73 -17.311)"/><path class="a" d="M140.5,50.271c-.283-.4-.453-.68-.68-.963a4.957,4.957,0,0,1-2.664.85,2.874,2.874,0,0,1-2.89-1.53,6.234,6.234,0,0,1-.17-2.04V40.353l2.494-.453v6.177c0,.963,0,1.53.227,1.644a.884.884,0,0,0,.737.453,2.131,2.131,0,0,0,1.757-.963V40.353l2.494-.453v7.481a2.586,2.586,0,0,0,.453,1.644Z" transform="translate(-58.103 -17.311)"/><path class="a" d="M155.477,51.441v2.04a5.8,5.8,0,0,1-3.627-1.19,2.463,2.463,0,0,1-.85-1.644,1.2,1.2,0,0,1,.4-1.077h2.267a1.028,1.028,0,0,0-.17.737c0,.623.68,1.133,1.814,1.133h.17V44.414m0,0h-.17a1.4,1.4,0,0,1-1.417-1.53,1.5,1.5,0,0,1,1.417-1.53h.17V39.54c-2.664,0-4.08,1.36-4.08,3.344a2.377,2.377,0,0,0,1.984,2.664c-1.53.51-1.643,1.077-1.643,1.757,0,.623.17,1.133.68,1.3a6.1,6.1,0,0,0,2.324.4h.737v-1.87h-.453c-.283,0-.453-.17-.453-.283,0-.17.4-.453.907-.623V44.414Zm0,9.068v-2.04a6.6,6.6,0,0,0,1.587-.283,1.783,1.783,0,0,0,.453-1.077c0-.85-.68-1.133-1.644-1.133h-.4v-1.87h.907c1.53,0,2.324.227,2.947.85a2.963,2.963,0,0,1,.907,2.21,2.532,2.532,0,0,1-.907,2.04,5.244,5.244,0,0,1-3.8,1.36Zm1.587-10.6a1.612,1.612,0,0,1-1.587,1.53v1.757c.057,0,.17-.057.227-.057h.283c2.04,0,3.684-1.36,3.684-3a2.559,2.559,0,0,0-.68-1.53h.68a2.532,2.532,0,0,0,1.814-.623l-.963-1.757a3.581,3.581,0,0,1-2.21.85c-.283,0-.68-.17-1.133-.17a7.118,7.118,0,0,0-1.644-.283h-.057V41.41A1.565,1.565,0,0,1,157.064,42.884Z" transform="translate(-65.425 -17.008)"/><path class="a" d="M177.447,50.271c-.283-.4-.453-.68-.68-.963a4.8,4.8,0,0,1-2.664.85c-1.36,0-2.494-.51-2.777-1.53a4.749,4.749,0,0,1-.227-2.04V40.353l2.55-.453v6.177c0,.963,0,1.53.17,1.644a.932.932,0,0,0,.85.453c.68,0,1.53-.453,1.643-.963V40.353l2.494-.453v7.481a2.284,2.284,0,0,0,.51,1.644Z" transform="translate(-74.134 -17.311)"/><path class="a" d="M192.11,39.9v2.21a4.789,4.789,0,0,0-2.55.963l-1.133-1.814a7.081,7.081,0,0,1,1.643-.907,7.671,7.671,0,0,1,2.04-.453v8.558m0,0h-.057c-.68,0-1.133-.51-1.133-1.36a1.23,1.23,0,0,1,1.19-1.417V43.924c-2.664.17-3.91,1.19-3.91,3.344,0,2.04,1.19,3,3.4,3h.51Zm1.247-2.89v2.21a2.221,2.221,0,0,1-1.3.68v1.814a2.481,2.481,0,0,0,1.417-.51,4.12,4.12,0,0,0,.51-.453,3.29,3.29,0,0,0,1.53,1.133l1.3-1.53a2.331,2.331,0,0,1-.963-2.324l.17-3.23a17.776,17.776,0,0,0-.17-1.814,3.437,3.437,0,0,0-3.174-1.644h-.623v2.21h.17c.963,0,1.133.283,1.133,1.3v.51H192.11v1.7a6.528,6.528,0,0,1,1.133-.057Z" transform="translate(-81.543 -17.311)"/><path class="a" d="M210.021,50.144c-.623,1.814-1.133,2.664-1.814,3.174a5.222,5.222,0,0,1-2.324.963l-.963-1.644a7.993,7.993,0,0,0,1.644-.68,2.509,2.509,0,0,0,.68-.85,8.894,8.894,0,0,1,.68-1.19h-.68c-.4-.963-.85-2.494-1.077-2.777L203.9,40.283,206.564,40l1.643,5.837c.17.51.51,2.04.51,2.04s.17-1.19.283-1.644a3.465,3.465,0,0,0,.4-1.36l1.417-4.7h2.72Z" transform="translate(-88.345 -17.354)"/><path class="a" d="M230.954,47.491h-1.87l-2.1-7.311a19.74,19.74,0,0,1-.85-3.457,28.121,28.121,0,0,0-.68,3.627l-1.53,7.2H222L224.89,34.4h2.21l2.21,7.707a12.1,12.1,0,0,1,.623,2.947c0-.283.4-2.324.68-4.024l1.36-6.631h1.814Z" transform="translate(-96.188 -14.928)"/><path class="a" d="M247.894,48.248a2.239,2.239,0,0,1-1.19.453c-.85,0-1.19-.4-1.19-1.53a6.693,6.693,0,0,1,1.36-4.364,2.888,2.888,0,0,1,1.077-.963V40.427a5.4,5.4,0,0,0-2.267,1.3,8.083,8.083,0,0,0-1.984,5.5c0,1.984.963,3,2.324,3a3.993,3.993,0,0,0,1.87-.51Zm2.437-6.4-.963,4.817a4.366,4.366,0,0,1-1.417,1.587v1.473a4.191,4.191,0,0,0,1.3-1.133,2.2,2.2,0,0,0,.68,1.814l1.417-.963c-.453-.68-.623-1.077-.283-2.494l.85-3.854c.17-.68.4-1.644.51-2.21a5.588,5.588,0,0,0-2.89-.68,5.12,5.12,0,0,0-1.587.227v1.417a3.025,3.025,0,0,1,1.417-.283A1.694,1.694,0,0,1,250.331,41.844Z" transform="translate(-105.59 -17.441)"/><path class="a" d="M266.844,39.724H264.86l-1.077,5.5a1.936,1.936,0,0,0-.17.963c0,.51.17.85.85.85a7.869,7.869,0,0,0,.963-.17v.963a2.747,2.747,0,0,1-1.814.51,1.627,1.627,0,0,1-1.814-1.644,3.744,3.744,0,0,1,.17-1.36l1.133-5.667H261.97l.17-1.36h1.36a20.516,20.516,0,0,1,.51-2.324l1.984-.283a16.331,16.331,0,0,0-.85,2.664h2.324Z" transform="translate(-113.432 -15.491)"/><path class="a" d="M279.181,47.227a2.843,2.843,0,0,0,.17,2.324l-1.53.85a2.312,2.312,0,0,1-.453-1.814A5.317,5.317,0,0,1,273.8,50.4a1.868,1.868,0,0,1-2.1-2.04c0-.283.17-.963.17-1.3l1.53-6.574,1.644-.283-1.36,6.347c0,.51-.17.963-.17,1.36,0,.68.283.963.85.963a4.377,4.377,0,0,0,3.174-2.21l1.36-6.177,1.814-.283Z" transform="translate(-117.721 -17.441)"/><path class="a" d="M295.877,41.87h-.737c-.737,0-1.587.68-2.437,1.87l-1.36,6.121H289.7l1.36-6.517a6.516,6.516,0,0,0,.17-2.664l1.53-.68a3.338,3.338,0,0,1,.17,2.04,4.7,4.7,0,0,1,3-2.04,1.63,1.63,0,0,1,.85.17Z" transform="translate(-125.52 -17.354)"/><path class="a" d="M304.894,48.318a2.683,2.683,0,0,1-1.19.4c-.68,0-1.19-.4-1.19-1.53a6.693,6.693,0,0,1,1.36-4.364,4.125,4.125,0,0,1,1.077-.963V40.44a5.074,5.074,0,0,0-2.267,1.3,9.012,9.012,0,0,0-1.984,5.5c0,1.984.963,3,2.324,3a3.8,3.8,0,0,0,1.87-.453Zm2.437-6.517-1.077,4.817a3,3,0,0,1-1.36,1.644v1.417a5.177,5.177,0,0,0,1.3-1.19,1.908,1.908,0,0,0,.68,1.814l1.417-.963c-.453-.68-.623-1.077-.283-2.494l.85-3.854c.17-.68.4-1.644.51-2.21a5.663,5.663,0,0,0-2.947-.68,5.268,5.268,0,0,0-1.53.227v1.417a2.939,2.939,0,0,1,1.36-.283A2.2,2.2,0,0,1,307.331,41.8Z" transform="translate(-130.286 -17.398)"/><path class="a" d="M322.27,35.844,320.57,44a2.926,2.926,0,0,0-.17.963c0,.4.17.51.623.51h.283v1.133a2.237,2.237,0,0,1-1.19.227,1.243,1.243,0,0,1-1.417-1.36,2.162,2.162,0,0,1,.17-.963l1.587-8.558a4.391,4.391,0,0,0,.17-2.777l1.87-.68a5.4,5.4,0,0,1-.227,3.344" transform="translate(-138.085 -14.105)"/><path class="b" d="M35.953,12.288a2.829,2.829,0,0,0,2.494.963.366.366,0,0,1,.283.17c0,.17.227.4,0,.51a5.384,5.384,0,0,1-3.344,1.644,3.619,3.619,0,0,0,1.644,1.984c.227.227.4.227.4.51,0,0,0,.17-.4.4a5.509,5.509,0,0,1-3.627-.4c0,.963-.227,2.04.453,2.72v.453a.679.679,0,0,1-.453.17,5.74,5.74,0,0,1-3-1.984,4.706,4.706,0,0,0-.963,2.494s0,.283-.227.283c0,0-.17.227-.453,0a6.777,6.777,0,0,1-1.53-3.344,5.527,5.527,0,0,0-2.21,1.644.386.386,0,0,1-.283.4c-.113,0-.4,0-.4-.4a5.822,5.822,0,0,1,.227-3.627,5.315,5.315,0,0,0-2.72.453s-.17.17-.283,0a.4.4,0,0,1-.4-.453,7.039,7.039,0,0,1,2.21-3,4.019,4.019,0,0,0-2.494-.85c-.17,0-.4-.17-.51-.17,0-.227-.17-.4.17-.68a5.766,5.766,0,0,1,3.23-1.53,5.1,5.1,0,0,0-1.757-2.21c-.17,0-.17-.17-.17-.283,0,0,0-.4.17-.4a6.783,6.783,0,0,1,3.684.227,4.136,4.136,0,0,0-.283-2.72c-.227,0-.227-.17-.227-.283.227-.17.227-.4.51-.17a5.5,5.5,0,0,1,3,1.984,3.294,3.294,0,0,0,1.077-2.38.685.685,0,0,1,.17-.51.493.493,0,0,1,.51.227A5.7,5.7,0,0,1,32.1,7.3a3.669,3.669,0,0,0,2.04-1.757s.17-.17.283-.17a.685.685,0,0,1,.51.17,6.334,6.334,0,0,1-.4,3.684,4.1,4.1,0,0,0,2.72-.283c.17,0,.283-.227.453,0,0,0,.17.17.17.283a5.688,5.688,0,0,1-1.927,3.06" transform="translate(-8.807 -1.713)"/><path class="a" d="M2.719,2.629A33.8,33.8,0,0,0,.056,17.7c1.133,14.848,11.618,26.41,23.236,25.559,6.517-.51,12.015-4.817,15.585-11.165.623-1.36.283-2.21-.907-.85C22.781,47.117,3.853,30.4,3.286,11.527a27.292,27.292,0,0,1,.283-8.9c.113-1.36-.34-.963-.85,0" transform="translate(0 -0.782)"/><path class="a" d="M30.669,31.94c-1.644-.85-1.814-2.04.68-2.04C45.858,30.07,52.2,13.578,51.922,1c0-1.19.51-1.53.85-.17a26.584,26.584,0,0,1,1.473,7.367C55.1,21.229,47.9,32.563,38.037,33.47a15.954,15.954,0,0,1-7.367-1.53" transform="translate(-12.762 0)"/><path class="c" d="M224.181,84.257a5.186,5.186,0,0,1-.227,1.87.763.763,0,0,1-.737.567.754.754,0,0,1-.453-.17.7.7,0,0,1-.34-.453,7.223,7.223,0,0,1-.17-1.814,5.186,5.186,0,0,1,.057-.963,2.114,2.114,0,0,1,.113-.68,1.773,1.773,0,0,1,.283-.567.844.844,0,0,1,.51-.227.74.74,0,0,1,.68.4,5.572,5.572,0,0,1,.283,2.04m1.644,0a5.7,5.7,0,0,0-.17-1.53,4.09,4.09,0,0,0-.51-1.133,2.314,2.314,0,0,0-1.984-1.077,2.344,2.344,0,0,0-1.077.283,2.272,2.272,0,0,0-.85.793,3.778,3.778,0,0,0-.51,1.19,6.479,6.479,0,0,0-.17,1.587,6.321,6.321,0,0,0,.17,1.53,3.778,3.778,0,0,0,.51,1.19,2.118,2.118,0,0,0,.85.737,2.344,2.344,0,0,0,1.077.283,2.232,2.232,0,0,0,1.133-.283,3.234,3.234,0,0,0,.793-.737,4.6,4.6,0,0,0,.567-1.19A6.976,6.976,0,0,0,225.825,84.257Zm-8.048,3.684h1.53V82.727a5.378,5.378,0,0,0-.113-1.133,1.119,1.119,0,0,0-.34-.623,1.153,1.153,0,0,0-.51-.34,2.845,2.845,0,0,0-.68-.113,1.663,1.663,0,0,0-.907.227,3.14,3.14,0,0,0-.793.737c-.057-.057-.057-.17-.113-.227s-.057-.113-.113-.17a1.562,1.562,0,0,0-1.19-.623,1.7,1.7,0,0,0-1.417.737c-.057-.17-.057-.34-.113-.453a.433.433,0,0,0-.113-.283l-1.417.453c.057.113.057.17.113.283,0,.113.057.227.057.4a1.748,1.748,0,0,0,.057.51v5.781h1.53V82.557a1.562,1.562,0,0,1,.51-.4.842.842,0,0,1,.51-.113.46.46,0,0,1,.453.227,2.911,2.911,0,0,1,.113.907v4.761H216.3V82.671a3.667,3.667,0,0,1,.51-.453.914.914,0,0,1,.51-.17c.227,0,.34.057.4.227a2.246,2.246,0,0,1,.113.85v4.817Zm-7.2-2.324a2.155,2.155,0,0,0-.34-1.247,2.837,2.837,0,0,0-.4-.453,2.532,2.532,0,0,0-.793-.4l-.737-.227a1.718,1.718,0,0,1-.567-.283.643.643,0,0,1-.17-.453.552.552,0,0,1,.227-.51.846.846,0,0,1,.567-.17,2.845,2.845,0,0,1,.68.113,3.44,3.44,0,0,1,.793.4l.51-1.3a4.52,4.52,0,0,0-.907-.453,3.035,3.035,0,0,0-2.154-.057,2.157,2.157,0,0,0-.737.51,2,2,0,0,0-.453.737,2.647,2.647,0,0,0-.17.963,3.9,3.9,0,0,0,.113.737,2.03,2.03,0,0,0,.227.623,1.725,1.725,0,0,0,.453.453,1.53,1.53,0,0,0,.623.283l.68.17a.969.969,0,0,1,.68.34.822.822,0,0,1,0,1.133.728.728,0,0,1-.567.227,1.569,1.569,0,0,1-.51-.057,2.013,2.013,0,0,1-.51-.227,2.3,2.3,0,0,1-.51-.283,2.4,2.4,0,0,1-.4-.283l-.567,1.417a4.358,4.358,0,0,0,2.38.85,2.745,2.745,0,0,0,1.02-.17,1.921,1.921,0,0,0,.793-.51,2.378,2.378,0,0,0,.51-.793A2.3,2.3,0,0,0,210.58,85.618Zm-5.724-6.971a1.392,1.392,0,0,0-.283-.85.85.85,0,0,0-1.36,0,1.417,1.417,0,0,0,0,1.7.85.85,0,0,0,1.36,0A1.392,1.392,0,0,0,204.856,78.647Zm-1.7,9.294h1.53V80.46l-1.53.283Zm-1.077-5.611.453-1.7a.958.958,0,0,0-.283-.113h-.283a1.119,1.119,0,0,0-.793.34,3.9,3.9,0,0,0-.623.737,2.708,2.708,0,0,0-.227-1.02l-1.36.453q.085.34.17.85a8.793,8.793,0,0,1,.057,1.3v4.761h1.53V82.784a1.262,1.262,0,0,1,.963-.623A.753.753,0,0,1,202.079,82.331Zm-5.327,5.837,1.077-.793a2.1,2.1,0,0,1-.283-.623,2.871,2.871,0,0,1-.113-.737V80.46l-1.474.4v5.157a.755.755,0,0,1-.17.283c-.057.113-.17.17-.227.227-.113.057-.17.113-.283.17a.511.511,0,0,1-.283.057.806.806,0,0,1-.34-.113c-.113-.057-.17-.17-.227-.227a2.572,2.572,0,0,1-.113-.453c0-.17-.057-.453-.057-.793v-4.7l-1.53.34v4.7a4.034,4.034,0,0,0,.057.907,1.677,1.677,0,0,0,.113.567,1.853,1.853,0,0,0,.623.85,1.915,1.915,0,0,0,1.133.34,2.058,2.058,0,0,0,1.587-.68Zm-3.854-8.5.283-1.644H187.4v1.644h1.984v8.274h1.643V79.667Zm-9.918,3.74v.113h-1.814v-.057a2.344,2.344,0,0,1,.227-1.19.74.74,0,0,1,.68-.4.8.8,0,0,1,.68.453,3.9,3.9,0,0,1,.17.453A1.762,1.762,0,0,1,182.98,83.407Zm-1.814,1.473h3.4v-.453a8.975,8.975,0,0,0-.17-1.927,4.539,4.539,0,0,0-.567-1.3,1.841,1.841,0,0,0-.737-.567,2.67,2.67,0,0,0-.963-.227,1.941,1.941,0,0,0-1.02.227,2.42,2.42,0,0,0-.793.737,3.137,3.137,0,0,0-.567,1.247,6.976,6.976,0,0,0-.17,1.644,6.321,6.321,0,0,0,.17,1.53,3.859,3.859,0,0,0,.567,1.19,2.118,2.118,0,0,0,.85.737A2.58,2.58,0,0,0,182.3,88a3.087,3.087,0,0,0,2.21-1.02l-.623-1.133a1.98,1.98,0,0,1-1.53.737,1.1,1.1,0,0,1-.907-.453,2.105,2.105,0,0,1-.34-1.3v.057Zm-4.477-2.324v3.457a.962.962,0,0,1-.34.34.754.754,0,0,1-.453.17,1.131,1.131,0,0,1-.51-.113.962.962,0,0,1-.34-.34,2.008,2.008,0,0,1-.17-.623,7.64,7.64,0,0,1,.17-2.777.84.84,0,0,1,.737-.567A1.278,1.278,0,0,1,176.689,82.557Zm.4,5.384h1.36a2.455,2.455,0,0,1-.057-.283c0-.113-.057-.283-.057-.51s-.057-.453-.057-.793V77.683l-1.53-.283v3.117a.974.974,0,0,0,.057.453,1.411,1.411,0,0,0-1.077-.4,1.957,1.957,0,0,0-1.02.283,2.641,2.641,0,0,0-.793.793,3.591,3.591,0,0,0-.51,1.247,6.48,6.48,0,0,0-.17,1.587,6.321,6.321,0,0,0,.17,1.53,3.778,3.778,0,0,0,.51,1.19,2.264,2.264,0,0,0,1.814,1.02,1.9,1.9,0,0,0,1.36-.623C176.973,87.714,177.029,87.828,177.086,87.941Zm-9.068-3.684a5.186,5.186,0,0,1-.227,1.87.763.763,0,0,1-.737.567.754.754,0,0,1-.453-.17.7.7,0,0,1-.34-.453,7.223,7.223,0,0,1-.17-1.814,5.184,5.184,0,0,1,.057-.963,2.114,2.114,0,0,1,.113-.68,1.773,1.773,0,0,1,.283-.567.844.844,0,0,1,.51-.227.74.74,0,0,1,.68.4A5.57,5.57,0,0,1,168.018,84.257Zm1.644,0a5.7,5.7,0,0,0-.17-1.53,4.091,4.091,0,0,0-.51-1.133A2.314,2.314,0,0,0,167,80.517a2.344,2.344,0,0,0-1.077.283,2.272,2.272,0,0,0-.85.793,3.779,3.779,0,0,0-.51,1.19,6.48,6.48,0,0,0-.17,1.587,6.322,6.322,0,0,0,.17,1.53,3.779,3.779,0,0,0,.51,1.19,2.118,2.118,0,0,0,.85.737,2.344,2.344,0,0,0,1.077.283,2.232,2.232,0,0,0,1.133-.283,3.234,3.234,0,0,0,.793-.737,4.6,4.6,0,0,0,.567-1.19A6.976,6.976,0,0,0,169.662,84.257Zm-6.347-5.611a1.392,1.392,0,0,0-.283-.85.85.85,0,0,0-1.36,0,1.417,1.417,0,0,0,0,1.7.85.85,0,0,0,1.36,0A1.392,1.392,0,0,0,163.315,78.647Zm-1.757,9.294h1.53V80.46l-1.53.283Zm-1.02-5.611.453-1.7a.958.958,0,0,0-.283-.113h-.283a1.119,1.119,0,0,0-.793.34,3.9,3.9,0,0,0-.623.737,2.707,2.707,0,0,0-.227-1.02l-1.36.453q.085.34.17.85a8.8,8.8,0,0,1,.057,1.3v4.761h1.53V82.784a1.262,1.262,0,0,1,.963-.623A.986.986,0,0,1,160.538,82.331Zm-5.667,1.077v.113h-1.814v-.057a2.344,2.344,0,0,1,.227-1.19.74.74,0,0,1,.68-.4.8.8,0,0,1,.68.453,3.907,3.907,0,0,1,.17.453A1.763,1.763,0,0,1,154.87,83.407Zm-1.814,1.473h3.4v-.453a8.976,8.976,0,0,0-.17-1.927,4.539,4.539,0,0,0-.567-1.3,1.841,1.841,0,0,0-.737-.567,2.67,2.67,0,0,0-.963-.227,1.941,1.941,0,0,0-1.02.227,2.42,2.42,0,0,0-.793.737,3.137,3.137,0,0,0-.567,1.247,6.976,6.976,0,0,0-.17,1.644,6.32,6.32,0,0,0,.17,1.53,3.859,3.859,0,0,0,.567,1.19,2.118,2.118,0,0,0,.85.737A2.58,2.58,0,0,0,154.19,88a3.086,3.086,0,0,0,2.21-1.02l-.623-1.133a1.98,1.98,0,0,1-1.53.737,1.029,1.029,0,0,1-.907-.453,2.105,2.105,0,0,1-.34-1.3v.057Zm-2.1,2.89-.17-1.133c-.113.057-.227.057-.34.113-.057,0-.17.057-.227.057a.719.719,0,0,1-.34-.057c-.057-.057-.17-.113-.227-.17a.806.806,0,0,1-.113-.34c0-.17-.057-.34-.057-.567V81.99h1.02l.4-1.3h-1.36V79.554c0-.4.057-.737.057-1.077l-1.587.51a4.015,4.015,0,0,0-.057.793v.907h-.567v1.3h.567v4.874c0,.057.057.113.057.227a1.59,1.59,0,0,0,.567.793,1.957,1.957,0,0,0,1.02.283A3.77,3.77,0,0,0,150.96,87.771Zm-4.024-2.154a2.155,2.155,0,0,0-.34-1.247,2.838,2.838,0,0,0-.4-.453,2.532,2.532,0,0,0-.793-.4l-.737-.227a1.719,1.719,0,0,1-.567-.283.644.644,0,0,1-.17-.453.552.552,0,0,1,.227-.51.846.846,0,0,1,.567-.17,2.845,2.845,0,0,1,.68.113,3.44,3.44,0,0,1,.793.4l.51-1.3a4.519,4.519,0,0,0-.907-.453,3.034,3.034,0,0,0-2.154-.057,2.156,2.156,0,0,0-.737.51,2,2,0,0,0-.453.737,2.647,2.647,0,0,0-.17.963,3.9,3.9,0,0,0,.113.737,2.031,2.031,0,0,0,.227.623,1.725,1.725,0,0,0,.453.453,1.53,1.53,0,0,0,.623.283l.68.17a.969.969,0,0,1,.68.34.822.822,0,0,1,0,1.133.728.728,0,0,1-.567.227,1.569,1.569,0,0,1-.51-.057,2.013,2.013,0,0,1-.51-.227,2.3,2.3,0,0,1-.51-.283,2.4,2.4,0,0,1-.4-.283l-.567,1.417a4.358,4.358,0,0,0,2.38.85,2.745,2.745,0,0,0,1.02-.17,1.921,1.921,0,0,0,.793-.51,2.377,2.377,0,0,0,.51-.793A3.313,3.313,0,0,0,146.936,85.618Zm-5.724-6.971a1.392,1.392,0,0,0-.283-.85.85.85,0,0,0-1.36,0,1.417,1.417,0,0,0,0,1.7.85.85,0,0,0,1.36,0A1.392,1.392,0,0,0,141.212,78.647Zm-1.757,9.294h1.53V80.46l-1.53.283Zm-3.117,0h1.53V82.614a4.222,4.222,0,0,0-.113-1.02,1.439,1.439,0,0,0-.51-.737,1.712,1.712,0,0,0-.907-.283,2.126,2.126,0,0,0-.567.057,2.012,2.012,0,0,0-.51.227c-.113.113-.227.17-.34.283s-.227.17-.34.283a1.8,1.8,0,0,0-.227-.907l-1.36.51a7.711,7.711,0,0,1,.227,1.7v5.214h1.53V82.784a1.439,1.439,0,0,1,.567-.453.914.914,0,0,1,.51-.17c.227,0,.34.057.4.227a2.761,2.761,0,0,1,.113.85Zm-4.59-9.294a1.392,1.392,0,0,0-.283-.85.85.85,0,0,0-1.36,0,1.417,1.417,0,0,0,0,1.7.85.85,0,0,0,1.36,0A1.392,1.392,0,0,0,131.748,78.647Zm-1.757,9.294h1.53V80.46l-1.53.283Zm-2.947,0h1.587l-.737-9.918h-2.04l-1.077,4.931-.17.85a3.827,3.827,0,0,0-.113.793c0-.113-.057-.227-.057-.34s-.057-.227-.057-.34-.057-.227-.057-.4a1.752,1.752,0,0,0-.113-.453l-1.077-4.987h-2.1l-.737,9.861h1.587l.283-5.157a4.875,4.875,0,0,1,.057-.907v-.85c.057.283.113.567.17.907s.113.567.17.85L123.7,88h1.36l1.247-5.441c.057-.283.113-.567.17-.793a2.871,2.871,0,0,0,.113-.737v.793a4.29,4.29,0,0,0,.057.85Z" transform="translate(-52.124 -33.559)"/></g></svg>