<svg xmlns="http://www.w3.org/2000/svg" xmlns:xlink="http://www.w3.org/1999/xlink" viewBox="0 0 529.179 285.529"><defs><style>.a{fill:url(#a);}.b{opacity:0.812;}.c{fill:url(#b);}.d{opacity:0.997;fill:url(#c);}.e{fill:#e7b333;}</style><linearGradient id="a" x1="0.56" y1="-0.771" x2="0.488" y2="1.013" gradientUnits="objectBoundingBox"><stop offset="0" stop-color="#fff" stop-opacity="0"/><stop offset="0.107" stop-color="#fff" stop-opacity="0.059"/><stop offset="0.427" stop-color="#fff" stop-opacity="0.227"/><stop offset="0.733" stop-color="#fff"/><stop offset="0.786" stop-color="#fff"/><stop offset="1" stop-color="#fff"/></linearGradient><linearGradient id="b" x1="0.692" y1="0.57" x2="1.162" gradientUnits="objectBoundingBox"><stop offset="0" stop-color="#81b23e"/><stop offset="1" stop-color="#aedd6d"/></linearGradient><linearGradient id="c" x1="0.016" y1="1.133" x2="0.838" y2="1" gradientUnits="objectBoundingBox"><stop offset="0" stop-color="#009de0"/><stop offset="1" stop-color="#112143"/></linearGradient></defs><g transform="translate(0 0)"><path class="a" d="M1331.66,428.339c74.634.872,95.65,33.779,184.022,53.43,108.58,18.752,171.01-55.175,171.323-90.713.006-.661.051-32.12,0-32.815-2.415-33.073,160.509,198.141,49.054,243.34s-261.538,53.469-321.894,12.126-92.4-64.683-91.2-107.129S1257.026,427.467,1331.66,428.339Z" transform="translate(-1296.375 -355.016)"/></g><g class="b" transform="translate(110.469 2.995)"><path class="c" d="M2502.968,569.055l-2.425,5.1V559.962c-.181-14.568-15.326-13.223-18.66-12.9-3.355.33-83.481,46.02-95.351,47.009s-60.68,2.708-41.491,3.754c6.553.242,23.762,2.7,55.407-8.4,9.735-5.9,8.747-1.576,24.851-7.192,7.188-2.506,32.753-9.863,44.311-13.181C2480.391,566.079,2502.968,569.055,2502.968,569.055Z" transform="translate(-2209.021 -471.183)"/><path class="d" d="M77.657,128.762H77.65c-5.89,0-11.9-.288-17.863-.856-6.112-.582-12.355-1.476-18.554-2.655-6.346-1.208-12.832-2.751-19.28-4.586-6.592-1.877-13.334-4.114-20.04-6.649,2.884,1.059,6.064,2.037,9.451,2.906,3.615.927,7.471,1.732,11.462,2.391a174.05,174.05,0,0,0,28.237,2.218A207.213,207.213,0,0,0,85.407,118.6c6.3-1.062,12.673-2.427,18.949-4.056,6.637-1.723,13.329-3.784,19.889-6.127,6.914-2.469,13.861-5.315,20.647-8.458,3.52-1.63,7.07-3.374,10.551-5.184,3.564-1.853,7.154-3.826,10.671-5.864,3.6-2.086,7.223-4.3,10.769-6.576,3.627-2.329,7.275-4.792,10.845-7.321,3.647-2.584,7.314-5.309,10.9-8.1,3.66-2.849,7.336-5.846,10.926-8.907,6.851-5.811,13.682-11.265,20.3-16.213,6.308-4.712,12.594-9.09,18.684-13.011,5.777-3.72,11.532-7.128,17.1-10.13,5.26-2.834,10.5-5.38,15.563-7.569,4.755-2.054,9.486-3.847,14.063-5.329a129.524,129.524,0,0,1,12.6-3.41A107.734,107.734,0,0,1,319.052.532a92.793,92.793,0,0,1,9.8-.532,83.434,83.434,0,0,1,8.711.452c2.448.258,4.913.635,7.325,1.119A102.037,102.037,0,0,1,355.554,4.4h0c.695.216,1.351.42,1.942.6a86.131,86.131,0,0,0-11.585-.767,106.507,106.507,0,0,0-23.349,2.723,136.125,136.125,0,0,0-23.319,7.61A158.258,158.258,0,0,0,257.19,41.094c-7.269,6.365-13.359,11.583-19.167,16.423-7.04,5.867-13.528,11.058-19.834,15.872a351.919,351.919,0,0,1-42.206,28.07c-3.728,2.077-7.489,4.057-11.178,5.884-3.815,1.889-7.671,3.674-11.463,5.3-3.909,1.681-7.867,3.249-11.764,4.661-4.008,1.452-8.073,2.783-12.081,3.955-4.114,1.2-8.291,2.275-12.416,3.186-4.227.934-8.522,1.726-12.767,2.354-4.345.643-8.764,1.134-13.136,1.459C86.709,128.594,82.16,128.762,77.657,128.762ZM1.865,114C1.23,113.764.6,113.524,0,113.284c.6.232,1.227.472,1.865.713Z" transform="translate(61.212 0)"/><path class="e" d="M1877.162,633.616c-52.584.961-81.994-5.852-104.507-11.541s-51.266-23.367-51.266-23.367,43.351,28.724,72.754,35.606C1850.238,644.9,1871.272,634.274,1877.162,633.616Z" transform="translate(-1721.39 -516.686)"/></g></svg>