<svg xmlns="http://www.w3.org/2000/svg" viewBox="0 0 126.75 80.556"><defs><style>.a{fill:none;}.b{fill:#81b23e;}</style></defs><path class="a" d="M75.654,108.837a3.692,3.692,0,0,1,.762,1.587,6.984,6.984,0,0,0,3.3-1.46c-.19-1.333-.635-4.126-.825-5.458h0l-.127-.444A67.548,67.548,0,0,1,77.431,95l-1.206,8.442H76.1l-.7,5.141h0Z" transform="translate(-27.543 -33.04)"/><path class="a" d="M83.362,113.287h2.285l.635-4.633a16.535,16.535,0,0,1-2.666-.254H82.6C82.854,109.669,83.171,111.891,83.362,113.287Z" transform="translate(-30.174 -37.935)"/><path class="a" d="M93.2,65.168c1.714-2.666,1.142-5.332,0-8.568Z" transform="translate(-34.046 -19.013)"/><path class="a" d="M80.066,118.2a8.185,8.185,0,0,1-3.935,1.777,4.5,4.5,0,0,1-.952.063h-.127c-.571.063-.952.381-.952.7a.549.549,0,0,0,.19.381,1.034,1.034,0,0,0,.381.19,1.092,1.092,0,0,0,.508.063h8a.783.783,0,0,0,.317-.508,3.416,3.416,0,0,0-.508-2.666Z" transform="translate(-27.069 -41.515)"/><path class="a" d="M86.511,76.895c0,.063-.063.19,0,.254l.254.317-.571.825c-.825,1.142-1.46,1.968-1.4,2.475a1.85,1.85,0,0,0,.889,1.079h.127c.889-.19,2.92-2.666,4.633-5.712L88.733,74.8A4.468,4.468,0,0,0,86.511,76.895Z" transform="translate(-30.975 -25.661)"/><path class="a" d="M63.975,48.364l1.016-2.92V49.7L74,58.837h6.537V42.779l1.016,2.92A8.477,8.477,0,0,0,82,46.841c1.65,4.633,3.11,8.568-.508,12.694l-.381.381L82.7,61.058c6.791-4.443,3.554-13.519.952-20.882-.381-1.142-.762-2.158-1.079-3.174l-.063-.127a1.32,1.32,0,0,0-1.4-1.079H64.991a1.5,1.5,0,0,0-1.333,1.142L63.595,37a39.2,39.2,0,0,0-1.587,6.664c-.19.889-.317,1.714-.508,2.475l2.348,2.412C63.912,48.491,63.912,48.427,63.975,48.364Z" transform="translate(-22.466 -11.412)"/><path class="a" d="M75.385,26.182v1.333h5.268l-1.016-1.46.381-.317a6.318,6.318,0,0,0,.889-.952A1.738,1.738,0,0,1,79.891,23.2V16.408c-.889,0-2.666.063-3.935.063a4.444,4.444,0,0,1-2.729-.571h-.063c0,.19-.063.381-.063.571V22.5a4.232,4.232,0,0,0,2.031,3.618Z" transform="translate(-26.703 -4.145)"/><path class="a" d="M76.649,5.9A5.7,5.7,0,0,0,71,10.914H82.3A5.8,5.8,0,0,0,76.649,5.9Z" transform="translate(-25.936 -0.492)"/><path class="a" d="M85.463,20.868v2.095c0,.571.571.7.889.7a1.2,1.2,0,0,0,1.206-1.333V21.185A36.687,36.687,0,0,0,87.3,15.6H85.4C85.4,18.139,85.463,19.662,85.463,20.868Z" transform="translate(-31.196 -4.036)"/><path class="a" d="M86.962,73.8H82.9l2.031,2.095A5.784,5.784,0,0,1,86.962,73.8Z" transform="translate(-30.283 -25.296)"/><path class="a" d="M126.477,61.489h1.142a2.015,2.015,0,0,0,1.65-.825,1.023,1.023,0,0,0,.254-.444.9.9,0,0,0,.127-.381c0-.127.063-.317.063-.444l.064-2.095h-2.983a2.113,2.113,0,0,0-2.095,2.095,1.878,1.878,0,0,0,.127.635,2.128,2.128,0,0,0,.952,1.142c.127.063.19.127.317.127C126.16,61.426,126.35,61.426,126.477,61.489Zm.317-2.729a.635.635,0,1,1-.635.635A.683.683,0,0,1,126.795,58.76Z" transform="translate(-45.553 -19.269)"/><path class="a" d="M131.149,77.037a5.583,5.583,0,0,1,.952-.317v-.19c0-.127-.064-.317-.064-.444a7.159,7.159,0,0,0-6.03-5.585c-.127,0-.254.063-.381.063H125.5a9.845,9.845,0,0,0,.254,1.333,6.274,6.274,0,0,0,.952,2.095A6.809,6.809,0,0,0,131.149,77.037Z" transform="translate(-45.845 -24.09)"/><path class="a" d="M125.463,67.483h.444a4.388,4.388,0,0,0,1.587-.635,3.524,3.524,0,0,0,.508-.381l.381-.381a3.674,3.674,0,0,0,.952-1.587,2.948,2.948,0,0,1-1.46.381h-.825a1.4,1.4,0,0,1-.508-.063,4.3,4.3,0,0,0-.889,1.46,1.177,1.177,0,0,0-.127.444,2.255,2.255,0,0,0-.127.635C125.4,67.483,125.463,67.483,125.463,67.483Z" transform="translate(-45.808 -21.899)"/><path class="a" d="M6.118,48.446h0a12.708,12.708,0,0,0,.889,1.016c.317-.317.571-.635.889-1.016h0A18.377,18.377,0,0,0,7.007,24.2,18.374,18.374,0,0,0,6.118,48.446ZM9.355,31.309A2.412,2.412,0,1,1,6.944,28.9,2.411,2.411,0,0,1,9.355,31.309Z" transform="translate(-0.723 -7.177)"/><path class="a" d="M7.8,34.633a1.341,1.341,0,0,0,1.333,1.333,1.3,1.3,0,0,0,1.333-1.333A1.341,1.341,0,0,0,9.133,33.3,1.3,1.3,0,0,0,7.8,34.633Z" transform="translate(-2.849 -10.501)"/><path class="a" d="M7.614,65.252l-.381.381-.381-.381a12.188,12.188,0,0,1-.889-.952A17.574,17.574,0,0,0,2.6,71.916l4.633-2.095,4.633,2.095A17.574,17.574,0,0,0,8.5,64.3C8.185,64.617,7.932,64.935,7.614,65.252Z" transform="translate(-0.95 -21.826)"/><path class="a" d="M132.48,103.951l-3.11-4.443.952-1.333,2.221,3.174V91.574h1.333v5.395l1.269-1.841.952,1.333-2.221,3.174h0v8.124a8.55,8.55,0,0,0,3.872-15.931l-.571-.317.444-.508a5.429,5.429,0,0,0,1.333-3.618,5.594,5.594,0,0,0-5.585-5.585,2.159,2.159,0,0,0-.635.063v.317h-.381a3.619,3.619,0,0,1-.825-.063,5.5,5.5,0,0,0-3.681,5.2,5.771,5.771,0,0,0,1.333,3.618l.444.508-.571.317a8.636,8.636,0,0,0-4.253,7.363,8.543,8.543,0,0,0,7.68,8.505v-3.681Z" transform="translate(-45.589 -28.218)"/><path class="a" d="M128.6,69.289a7.857,7.857,0,0,1,5.395,6.284,13.378,13.378,0,0,0,2.856.317c-.635-2.348-2.221-5.395-4.887-6.791a5.945,5.945,0,0,0-2.031-.7C129.489,68.717,129.044,69.035,128.6,69.289Z" transform="translate(-46.977 -23.323)"/><path class="a" d="M55.133,57.462h0c.508,0,1.4-1.016,2.221-3.808,0-.063.063-.19.063-.254A10.638,10.638,0,0,1,53.8,55.431C54.181,56.827,54.752,57.462,55.133,57.462Z" transform="translate(-19.653 -17.844)"/><path class="a" d="M162.131,42.514a1.572,1.572,0,0,0,.889-.508l3.237-4.506a4.047,4.047,0,0,1-.889.508l-2.285,2.6a2.063,2.063,0,0,1-1.523.635h0a2.14,2.14,0,0,1-1.079-.317l-.381.571,1.079.762A1.017,1.017,0,0,0,162.131,42.514Z" transform="translate(-58.484 -12.036)"/><path class="a" d="M160,39.42l.254.254a1.327,1.327,0,0,0,.381.254,1.853,1.853,0,0,0,.571.127h0a1.292,1.292,0,0,0,.952-.381l1.65-1.9a2.718,2.718,0,0,1-1.4-.381,2.28,2.28,0,0,1-.635-.444l-.127-.127-.381-.317L159.3,38.721Z" transform="translate(-58.192 -11.67)"/><path class="a" d="M161.1,29.07l.7.635.063.063.317.254.317.254.19.19.19.19h.063a2.622,2.622,0,0,0,.7.444,2.661,2.661,0,0,0,1.016.254,2.7,2.7,0,0,0,.7-.127,2.133,2.133,0,0,0,1.016-.635l.19-.19.317-.317.381-.381.254-.254.19-.19.063-.063a.481.481,0,0,0,.254.127l.571-.635.825-1.142,1.4-1.4.889-.889.063-.063a.062.062,0,0,1,.063-.063,1.381,1.381,0,0,0,.317-.508v-.063a2.66,2.66,0,0,0,.254-1.016v-.127a2.256,2.256,0,0,0-.127-.635h-.444a1.239,1.239,0,0,1-.444-.063,2.351,2.351,0,0,1-1.142-.508c-.127-.063-.19-.19-.317-.254l-.063-.063a.877.877,0,0,1-.19-.254c0-.063-.063-.063-.063-.127-.063-.063-.063-.127-.127-.254V21.2a2.235,2.235,0,0,0-1.206.635Z" transform="translate(-58.849 -6.081)"/><path class="a" d="M172.9,32.537c.127,0,.254.063.381.063h.254a2.574,2.574,0,0,0,2.6-2.6v-.7l-1.777,1.777Z" transform="translate(-63.16 -9.04)"/><path class="a" d="M175.427,19.512c0,.063.063.127.127.19a.136.136,0,0,0,.127.127c.064.063.064.127.127.127a.634.634,0,0,0,.317.254,1.9,1.9,0,0,0,.635.254h1.206a1.935,1.935,0,0,0,1.016-.508l.381-.571a1.853,1.853,0,0,0,.127-.571,1.707,1.707,0,0,0-1.714-1.714H175.3l.064,1.65v.063a.8.8,0,0,0,.063.381Zm2.285-1.206a.571.571,0,1,1-.571.571A.569.569,0,0,1,177.712,18.306Z" transform="translate(-64.037 -4.584)"/><path class="a" d="M168.9,112.7v7.363h6.664v-4.887A11.563,11.563,0,0,1,168.9,112.7Z" transform="translate(-61.699 -39.506)"/><path class="a" d="M160.846,58.315h0l-3.173-4.443.952-1.333,2.221,3.174V48.54h1.333V61.107l2.221-3.174.952,1.333-3.11,4.443h0v6.157a10.86,10.86,0,0,0,5.2-19.993l-.571-.381.444-.444A7.948,7.948,0,0,0,164.4,36.1L160.148,42a2,2,0,0,1-1.4.825h-.317a2.289,2.289,0,0,1-1.269-.381l-1.777-1.206.889-1.269-1.269-1.142a8.193,8.193,0,0,0-1.587,4.7,7.827,7.827,0,0,0,2.221,5.522l.444.444-.571.381a10.86,10.86,0,0,0,5.2,19.993V58.315Z" transform="translate(-54.977 -11.524)"/><path class="a" d="M164.352,90.8l-.127.317a10.5,10.5,0,0,0-.825,4.189,10.865,10.865,0,0,0,2.158,6.474V90.927A7.031,7.031,0,0,1,164.352,90.8Z" transform="translate(-59.69 -31.506)"/><path class="a" d="M72.12,113.287l.635-4.633a15.047,15.047,0,0,1-2.6-.254H69.2l.7,4.887Z" transform="translate(-25.279 -37.935)"/><path class="a" d="M51.714,53c2.095-.7,3.745-1.714,4.126-2.539a.593.593,0,0,0,0-.571,1.745,1.745,0,0,0-.508-.7c-.19-.063-.508.127-.825.317a2.045,2.045,0,0,1-1.46.381l-.19-.063-.19-.127c-.381-.444-.635-.444-.7-.444-.635.063-1.46,1.142-1.968,1.968l1.46,1.587A.877.877,0,0,0,51.714,53Z" transform="translate(-18.265 -16.302)"/><path class="a" d="M67,60.2v7.553h7.49Z" transform="translate(-24.475 -20.328)"/><path class="a" d="M69.256,94.718h2.793l1.777-12.758,1.079.063a71.449,71.449,0,0,0,1.523,12.5c.254.063.762.127,1.333.254h2.793l2.095-14.027V79.549c-1.079,1.46-2.348,2.856-3.364,3.11-.127,0-.19.063-.317.063a1.015,1.015,0,0,1-.7-.254,3.1,3.1,0,0,1-1.333-1.841c-.127-1.016.571-1.9,1.587-3.3l.063-.063-3.3-3.364H66.781L66.4,81.77a68.358,68.358,0,0,0,1.523,12.758C68.177,94.528,68.621,94.655,69.256,94.718Z" transform="translate(-24.256 -25.332)"/><path class="a" d="M61.779,121.337h6.537a1.878,1.878,0,0,1-.127-.635,1.945,1.945,0,0,1,1.777-1.777c-.127-.317-.254-.571-.381-.825H66.6a7.479,7.479,0,0,1-4.824,1.841c-.7,0-1.079.381-1.079.7a.549.549,0,0,0,.19.381C61.017,121.21,61.271,121.337,61.779,121.337Z" transform="translate(-22.174 -41.479)"/><path class="a" d="M175.564,96.176h0l-3.173-4.443.952-1.333,2.221,3.174V87.1a11.563,11.563,0,0,1-6.664,2.475v12.313a10.98,10.98,0,0,0,6.664,2.856Z" transform="translate(-61.699 -30.154)"/><path class="a" d="M56.535,54.227c-.825,3.047-1.968,4.57-3.237,4.57h0c-1.016,0-1.9-1.079-2.412-2.856l-.317-.317a6.682,6.682,0,0,1-1.523-1.46,7.225,7.225,0,0,0,1.142,6.22,3.765,3.765,0,0,0,3.427,1.65c1.9-.317,3.681-2.348,5.141-5.712L56.535,54.1C56.6,54.163,56.6,54.163,56.535,54.227Z" transform="translate(-17.818 -18.1)"/><path class="a" d="M181.5,77.638V89l2.221-3.174.952,1.333-3.11,4.443h0v4.887a10.817,10.817,0,0,0,4.824-20.12l-.571-.317.444-.508a6.867,6.867,0,0,0,1.714-4.633,6.969,6.969,0,0,0-3.872-6.284c-.063-.063-.19-.063-.254-.127a11.633,11.633,0,0,1,1.016,4.887A12.284,12.284,0,0,1,181.5,77.638Z" transform="translate(-66.301 -21.899)"/><path class="b" d="M6.1,34.012A2.412,2.412,0,1,0,8.512,31.6,2.411,2.411,0,0,0,6.1,34.012Zm3.681,0a1.341,1.341,0,0,1-1.333,1.333,1.3,1.3,0,0,1-1.333-1.333,1.341,1.341,0,0,1,1.333-1.333A1.3,1.3,0,0,1,9.781,34.012Z" transform="translate(-2.228 -9.88)"/><path class="b" d="M178.771,20.042a.571.571,0,1,0-.571-.571A.569.569,0,0,0,178.771,20.042Z" transform="translate(-65.096 -5.241)"/><path class="b" d="M125.4,69.2v.127h.127c.127,0,.254-.063.444-.063h-.444A.2.2,0,0,0,125.4,69.2Z" transform="translate(-45.808 -23.616)"/><path class="b" d="M127.635,60.869a.635.635,0,1,0-.635-.635A.636.636,0,0,0,127.635,60.869Z" transform="translate(-46.393 -20.109)"/><path class="b" d="M126.242,78.921H115.2V74.034A11.892,11.892,0,0,0,121.038,52.2a8.279,8.279,0,0,0,1.587-4.824,8.157,8.157,0,0,0-4.443-7.3,2.992,2.992,0,0,0-.952-.381l-.635-.317a11.837,11.837,0,0,0-3.11-3.3,9.222,9.222,0,0,0,2.095-5.776,9.066,9.066,0,0,0-4.379-7.743,3.334,3.334,0,0,0,2.475-3.237V17.8a3.42,3.42,0,0,0,.635-1.9,3.714,3.714,0,0,0-.127-.825,2.335,2.335,0,0,0,1.4-.889h1.714a.511.511,0,1,0,0-1.016h-1.142a1.756,1.756,0,0,0,.063-.571,2.478,2.478,0,0,0-2.475-2.475h-3.3l.063,2.475v.063a2.867,2.867,0,0,0-1.587.889l-7.807,7.807,1.079,1.016a9.035,9.035,0,0,0-2.6,13.71,11.959,11.959,0,0,0,4,21.326l-.063.063a11.644,11.644,0,0,0-.952,4.633,11.858,11.858,0,0,0,3.237,8.124v8.632H88.224a9.656,9.656,0,0,0,4.887-17.645,6.573,6.573,0,0,0,1.269-3.872,6.764,6.764,0,0,0-3.554-5.9l-.063-.317c-.571-2.6-2.348-6.157-5.458-7.87a10.305,10.305,0,0,0-1.777-.7A5.681,5.681,0,0,0,84.669,39.7a3.232,3.232,0,0,0,.381-1.333l.063-2.92H81.242a2.912,2.912,0,0,0-2.92,2.92,2.159,2.159,0,0,0,.063.635H76.164a.571.571,0,1,0,0,1.142h2.793a2.81,2.81,0,0,0,.952.762,5.561,5.561,0,0,0-1.016,2.031H78.83v.19a6.993,6.993,0,0,0-.127,1.142v.381h.063a8.036,8.036,0,0,0,5.395,6.982,6.7,6.7,0,0,0-3.11,5.585,6.573,6.573,0,0,0,1.269,3.872,9.631,9.631,0,0,0,4.506,17.581v.063H56.933a1.389,1.389,0,0,0,.508-.889,4.556,4.556,0,0,0-.825-3.872l-.127-.19.7-5.2h.063l2.221-15.042h0v-.127l-.063-1.587a7.7,7.7,0,0,0-.063-1.142c.571-.889,1.016-1.65,1.206-1.968,7.743-4.887,4.189-14.916,1.587-22.278-.381-1.142-.762-2.158-1.079-3.174v-.063a2.549,2.549,0,0,0-1.9-1.841V21.29H55.283l-.889-1.269a6.036,6.036,0,0,0,.952-1.269,2.733,2.733,0,0,0,1.4-.571,2.5,2.5,0,0,0,.7-1.841V15.2a25.953,25.953,0,0,0-.19-5.585h.19V9.04h0V8.977a6.752,6.752,0,0,0-13.456-.19H41A.508.508,0,0,0,41,9.8h2.92v.127h1.46c0,.19-.063.381-.063.571v6.03A5.248,5.248,0,0,0,47.6,20.909v.7H42.462a2.606,2.606,0,0,0-2.348,1.777l-.063.063A51.3,51.3,0,0,0,38.4,30.3c-.063.254-.063.444-.127.7a1.515,1.515,0,0,0-1.016-.889,1.561,1.561,0,0,0-1.079.063L6.664.218a.579.579,0,0,0-.762,0,.579.579,0,0,0,0,.762l.254.254V13.991l-.254.254A19.407,19.407,0,0,0,4.316,39.95,19.816,19.816,0,0,0,.381,49.217l-.127.952,6.03-2.729,6.03,2.729-.127-.952A18.938,18.938,0,0,0,8.251,39.95,19.407,19.407,0,0,0,6.664,14.245l-.254-.254V1.487L35.289,30.81c-.063,0-.127.063-.19.063a1.928,1.928,0,0,0-1.46-.635c-1.079.063-1.9,1.079-2.6,2.158h0v.063a3.521,3.521,0,0,1-.381.508h0l-.063.127a8.4,8.4,0,0,0,.952,8.251,4.745,4.745,0,0,0,4.443,2.031c1.523-.254,3.554-1.4,5.458-5.268v8.251L41,54.739a70.673,70.673,0,0,0,1.714,13.71l.127.444h0l.825,5.458a6.312,6.312,0,0,1-4.062,1.523,1.929,1.929,0,0,0-2.158,1.777,1.563,1.563,0,0,0,.571,1.206c.063.063.127.063.19.127H.508A.546.546,0,0,0,0,79.492.467.467,0,0,0,.508,80H126.242a.546.546,0,0,0,.508-.508C126.687,79.175,126.5,78.921,126.242,78.921Zm-46.4-32.687a9.854,9.854,0,0,1-.254-1.333h.127c.127,0,.254-.063.381-.063a7.16,7.16,0,0,1,6.03,5.585c0,.127.063.317.063.444v.19a5.586,5.586,0,0,0-.952.317,7.266,7.266,0,0,1-4.506-3.047A9.871,9.871,0,0,1,79.846,46.234Zm0-3.427a4.3,4.3,0,0,1,.889-1.46c.127,0,.317.063.508.063h.889a2.948,2.948,0,0,0,1.46-.381,5.86,5.86,0,0,1-.952,1.587L82.257,43c-.19.127-.317.254-.508.381a4.9,4.9,0,0,1-1.587.635c-.127,0-.254.063-.444.063h-.127v-.127a1.878,1.878,0,0,1,.127-.635A1.494,1.494,0,0,1,79.846,42.806Zm-.635-3.681a2.255,2.255,0,0,1-.127-.635A2.113,2.113,0,0,1,81.179,36.4h3.047l-.063,2.095a1.08,1.08,0,0,1-.063.444.9.9,0,0,1-.127.381c-.063.127-.19.317-.254.444a2.014,2.014,0,0,1-1.65.825H80.988a.917.917,0,0,1-.444-.127c-.127-.063-.19-.063-.317-.127A2.115,2.115,0,0,1,79.211,39.125ZM89.874,50.931a20.308,20.308,0,0,1-2.856-.317,7.96,7.96,0,0,0-5.395-6.284,9.072,9.072,0,0,0,1.269-.889,5.946,5.946,0,0,1,2.031.7C87.589,45.536,89.239,48.582,89.874,50.931ZM79.211,69.273a8.557,8.557,0,0,1,4.253-7.363l.571-.317-.444-.508a5.429,5.429,0,0,1-1.333-3.618,5.5,5.5,0,0,1,3.681-5.2c.254,0,.571.063.825.063h.381V52.01c.19,0,.444-.063.635-.063a5.594,5.594,0,0,1,5.585,5.585,5.771,5.771,0,0,1-1.333,3.618l-.444.508.571.317a8.55,8.55,0,0,1-3.872,15.931V69.781h0l2.221-3.174-.952-1.333-1.269,1.841V61.721H86.954v9.774l-2.221-3.174-.952,1.333,3.11,4.443h0v3.745A8.6,8.6,0,0,1,79.211,69.273ZM10.917,48.455,6.284,46.361,1.65,48.455a17.574,17.574,0,0,1,3.364-7.616c.317.317.571.635.889.952l.381.381.381-.381a12.183,12.183,0,0,0,.889-.952A17.574,17.574,0,0,1,10.917,48.455ZM7.172,39.633h0a6.794,6.794,0,0,1-.889,1.016c-.317-.317-.571-.635-.889-1.016h0a18.374,18.374,0,0,1,.889-24.246A18.374,18.374,0,0,1,7.172,39.633Zm41.446,29.2h.127l1.206-8.442c.508,4.379,1.333,8,1.333,8.061l.127.444h0c.19,1.333.571,4.126.825,5.458a6.415,6.415,0,0,1-3.3,1.46,6.125,6.125,0,0,0-.762-1.587l-.19-.19h0Zm7.87,8.949a1,1,0,0,1-.317.508H48.11a1.4,1.4,0,0,1-.508-.063,1.033,1.033,0,0,1-.381-.19.549.549,0,0,1-.19-.381c0-.317.317-.635.952-.7h.127a4.8,4.8,0,0,0,.952-.063A8.457,8.457,0,0,0,53,75.113h2.983A3.982,3.982,0,0,1,56.489,77.778Zm-.381-8.7-.635,4.633H53.188c-.19-1.4-.571-3.618-.7-4.887h1.016A25.835,25.835,0,0,0,56.108,69.083ZM54.838,54.548h-.127c-.571-.444-.825-.762-.889-1.079-.063-.571.571-1.4,1.4-2.475l.571-.762-.254-.317c-.063-.063,0-.19,0-.254a4.763,4.763,0,0,1,2.221-2.095L59.535,48.9C57.758,51.883,55.727,54.358,54.838,54.548Zm-2.221-7.68h4.062a5.355,5.355,0,0,0-2.031,2.095Zm3.745-31.291V16.72a1.167,1.167,0,0,1-1.206,1.333c-.317,0-.889-.127-.889-.7v-7.3h1.9A47.094,47.094,0,0,1,56.362,15.578Zm-11.3-6.791a5.689,5.689,0,0,1,11.3,0ZM46.4,16.593v-6.03a1.757,1.757,0,0,1,.063-.571h.063a4.35,4.35,0,0,0,2.729.571c1.206,0,3.047,0,3.935-.063v6.791A1.738,1.738,0,0,0,54.2,18.878a3.184,3.184,0,0,1-.889.952l-.381.317,1.016,1.46H48.682V20.274l-.254-.127A3.978,3.978,0,0,1,46.4,16.593ZM39.542,30.62a39.2,39.2,0,0,1,1.587-6.664l.063-.063a1.56,1.56,0,0,1,1.333-1.142H58.583a1.32,1.32,0,0,1,1.4,1.079l.063.127c.317,1.016.7,2.031,1.079,3.174,2.6,7.3,5.839,16.439-.952,20.882l-1.587-1.142.381-.381c3.681-4.062,2.221-8.061.508-12.694a8.479,8.479,0,0,0-.444-1.142l-1.016-2.92V45.853H51.538l-9.013-9.2V32.4L41.51,35.253c0,.063-.063.127-.063.19L39.1,33.032C39.225,32.334,39.415,31.509,39.542,30.62Zm19.612,13.9V35.888C60.3,39.189,60.868,41.854,59.154,44.52ZM42.525,38.236l7.49,7.616h-7.49ZM33.7,31.318c.063,0,.317,0,.7.444l.127.127.19.063a2.3,2.3,0,0,0,1.46-.381c.317-.19.635-.381.825-.317a1.054,1.054,0,0,1,.508.7.593.593,0,0,1,0,.571c-.381.889-2.031,1.841-4.126,2.539-.063-.063-.19-.127-.254-.19l-1.4-1.587C32.243,32.461,33.068,31.382,33.7,31.318Zm4.062,2.6c0,.063-.063.19-.063.254-.762,2.793-1.65,3.808-2.221,3.808h0c-.381,0-.952-.635-1.4-2.031A9.854,9.854,0,0,0,37.765,33.921ZM35.8,42.362a3.579,3.579,0,0,1-3.427-1.65,7.109,7.109,0,0,1-1.142-6.22,6.682,6.682,0,0,0,1.523,1.46l.317.317c.508,1.777,1.4,2.856,2.412,2.856h0c1.269,0,2.412-1.523,3.237-4.57v-.127l2.221,2.221C39.542,40.014,37.7,42.045,35.8,42.362Zm6.284,12.377.444-7.87h8.568l3.3,3.364-.063.063c-1.079,1.4-1.714,2.285-1.587,3.3a2.851,2.851,0,0,0,1.333,1.841,1.015,1.015,0,0,0,.7.254.69.69,0,0,0,.317-.063c1.016-.19,2.285-1.65,3.364-3.11v.317l.063.825L56.425,67.687H53.632a8.258,8.258,0,0,1-1.333-.254,70.584,70.584,0,0,1-1.523-12.5L49.7,54.866,47.92,67.623H45.127a10.043,10.043,0,0,1-1.333-.254A49.959,49.959,0,0,1,42.081,54.739Zm2.793,14.09c.762.127,1.65.19,2.6.254l-.635,4.633H44.62l-.7-4.887h.952ZM39.605,76.89a7.351,7.351,0,0,0,4.824-1.841h2.983c.127.254.254.508.381.825a1.851,1.851,0,0,0-1.777,1.777,2.256,2.256,0,0,0,.127.635H39.605a1.479,1.479,0,0,1-.889-.254.549.549,0,0,1-.19-.381C38.526,77.271,38.907,76.89,39.605,76.89Zm67.6-19.1a11.731,11.731,0,0,0,6.664-2.475v6.474l-2.221-3.174-.952,1.333,3.11,4.443h0v8.569a10.625,10.625,0,0,1-6.664-2.856V57.785Zm10.536-16.693a6.969,6.969,0,0,1,3.872,6.284A7.194,7.194,0,0,1,119.9,52.01l-.444.508.571.317a10.817,10.817,0,0,1-4.824,20.12V68.068h0l3.11-4.443-.952-1.333-2.221,3.174V54.1a12.055,12.055,0,0,0,3.3-8.251,12.7,12.7,0,0,0-1.015-4.887C117.547,41.029,117.61,41.029,117.737,41.093Zm-6.474-28.5-.063-1.65h2.475a1.707,1.707,0,0,1,1.714,1.714,1.854,1.854,0,0,1-.127.571,1.142,1.142,0,0,1-.381.571,1.725,1.725,0,0,1-1.016.508H112.66a1.9,1.9,0,0,1-.635-.254c-.127-.063-.19-.19-.317-.254-.063-.063-.063-.127-.127-.127-.063-.063-.063-.127-.127-.127-.063-.063-.063-.127-.127-.19,0-.063-.063-.127-.063-.19a1.714,1.714,0,0,0,0-.571Zm1.65,6.791a2.574,2.574,0,0,1-2.6,2.6h-.254a.805.805,0,0,1-.381-.063l1.46-1.46,1.777-1.777Zm-9.838,3.872.381.317.127.127a3.852,3.852,0,0,0,.635.444,2.718,2.718,0,0,0,1.4.381l-1.65,1.9a1.292,1.292,0,0,1-.952.381h0a1.853,1.853,0,0,1-.571-.127,1.328,1.328,0,0,1-.381-.254l-.254-.254-.7-.635Zm7.616-9.647c.063.063.063.19.127.254,0,.063.063.063.063.127a.876.876,0,0,1,.19.254l.063.063a.634.634,0,0,0,.317.254,2.351,2.351,0,0,0,1.142.508c.127,0,.254.063.444.063h.508a2.255,2.255,0,0,1,.127.635v.127a1.863,1.863,0,0,1-.254,1.016v.063a2.227,2.227,0,0,1-.317.508.062.062,0,0,1-.063.063l-.063.063-.889.889-1.4,1.4-.825,1.142-.571.635c-.063-.063-.19-.063-.254-.127l-.063.063-.19.19-.254.254-.381.381-.317.317-.19.19a2.485,2.485,0,0,1-1.016.635,2.282,2.282,0,0,1-.7.127,1.862,1.862,0,0,1-1.016-.254,4.271,4.271,0,0,1-.7-.444h-.063l-.19-.19-.19-.19-.317-.254-.317-.254-.063-.063-.7-.635,7.172-7.172a2.234,2.234,0,0,1,1.206-.635C110.629,13.547,110.629,13.547,110.692,13.61Zm-8.759,13.71a2.14,2.14,0,0,0,1.079.317h0A2.342,2.342,0,0,0,104.536,27l2.285-2.6a4.047,4.047,0,0,0,.889-.508L104.472,28.4a1.013,1.013,0,0,1-.889.508,1.19,1.19,0,0,1-1.016-.254l-1.079-.762ZM95.65,45.853a10.786,10.786,0,0,1,5.014-9.14l.571-.381-.444-.444a7.938,7.938,0,0,1-2.221-5.522,7.492,7.492,0,0,1,1.587-4.7l1.269,1.142-.889,1.269,1.777,1.206a2.289,2.289,0,0,0,1.269.381h.317a2,2,0,0,0,1.4-.825l4.253-5.9a8.012,8.012,0,0,1,5.141,7.426,7.827,7.827,0,0,1-2.221,5.522l-.444.444.571.381a10.86,10.86,0,0,1-5.2,19.993V50.55h0l3.11-4.443-.952-1.333-2.221,3.174V35.38H106v7.109l-2.221-3.174-.952,1.333,3.11,4.443h0V56.706A10.866,10.866,0,0,1,95.65,45.853Zm8.061,16.312a11.722,11.722,0,0,1,.825-4.189l.127-.317a7.777,7.777,0,0,0,1.206.127V68.639A10.329,10.329,0,0,1,103.71,62.165ZM107.2,78.921V71.558a11.563,11.563,0,0,0,6.664,2.475v4.887Z" transform="translate(0 -0.075)"/></svg>