<svg xmlns="http://www.w3.org/2000/svg" viewBox="0 0 134.861 67.888"><defs><style>.a,.c,.d{fill:none;stroke:#214185;stroke-miterlimit:10;stroke-width:2px;}.b{fill:#214185;}.c,.d{stroke-linecap:round;}.c{stroke-linejoin:round;}</style></defs><g transform="translate(1 1)"><g transform="translate(6.093 0)"><g transform="translate(60.261)"><path class="a" d="M157.22,84.568l.307,3.021H139.3l.41-3.789h12.544" transform="translate(-134.846 -41.407)"/><path class="a" d="M153.435,18.766l-1.843-2.611a4.985,4.985,0,0,0,1.843-3.891V6.017a5.017,5.017,0,0,0-10.035,0v6.3a4.99,4.99,0,0,0,2.406,4.25l-1.792,2.816" transform="translate(-136.847 -1)"/><path class="a" d="M167.851,53.341V39.466c1.638,1.741,3.789,4.3,5.99,6.861l3.277-2.816a100.757,100.757,0,0,0-7.629-8.243,1.859,1.859,0,0,0-1.638-.358V34.5H161.4" transform="translate(-145.631 -17.348)"/><path class="a" d="M137.768,34.6h-2.3v.512a1.727,1.727,0,0,0-1.434,1.024c-1.229,3.123-2.406,7.014-3.43,10.7l4.147,1.178c.256-.819.461-1.69.717-2.509V59.841" transform="translate(-130.6 -17.397)"/></g><path class="a" d="M17.559,99.767A19.526,19.526,0,0,1,12.9,87.838c0-3.174,1.382-3.737,1.382-3.737,1.382,0,9.523,3.737,9.523,3.737h80.638" transform="translate(-12.9 -41.554)"/><path class="a" d="M227.9,86.662A46.009,46.009,0,0,1,235.529,84s1.382.563,1.382,3.738c0,4.249-1.894,9.83-5.069,12.8" transform="translate(-117.822 -41.505)"/><path class="a" d="M142.046,34.6H140.1V59.79h4.608V38.235A5.157,5.157,0,0,1,142.046,34.6Z" transform="translate(-74.975 -17.397)"/><rect class="b" width="4.608" height="1.434" transform="translate(65.125 29.286)"/><rect class="b" width="4.608" height="1.434" transform="translate(65.125 35.276)"/><path class="a" d="M166.485,52.212V34.6h-5.376a4.885,4.885,0,0,1-2.509,3.533V59.79h3.328" transform="translate(-84.003 -17.397)"/><rect class="b" width="7.885" height="1.434" transform="translate(74.648 29.286)"/><rect class="b" width="7.885" height="1.434" transform="translate(74.648 35.276)"/><line class="c" x2="8.653" y2="2.355" transform="translate(82.942 43.161)"/><line class="c" x2="39.781" y2="10.854" transform="translate(37.734 30.822)"/><path class="a" d="M117.359,54.8a.05.05,0,0,1-.051.051c-3.789,2-7.219,4.045-8.55,4.966-1.638-.358-3.686-.051-3.738.922-3.072.666-2.816.666-2.253,3.226.358,1.587,4.1.256,7.321-.922l-.051-.256a85.642,85.642,0,0,0,10.7-4.864" transform="translate(-56.586 -27.255)"/><path class="a" d="M174.843,53.943c-2.15,3.328-5.017,6.963-5.734,8.7h0c-1.69.614-3.533,2.56-2.867,3.43-1.894,2.509-2.867,3.43-.768,5.017,1.28.973,4.454-3.584,6.093-6.553a108.753,108.753,0,0,0,7.168-9.677,1.911,1.911,0,0,0-.154-2.765" transform="translate(-86.781 -25.937)"/><path class="a" d="M64.459,49.71l-1.331-.358a5.12,5.12,0,0,0-3.789-4.813c-.154-.051-.307-.051-.461-.1-.1-.051-.2-.051-.307-.1l-10.8-2.918a2.422,2.422,0,0,0-2.97,1.69l-.307,1.178h0L43.723,47.1h0l-.307,1.178a2.422,2.422,0,0,0,1.69,2.97l10.8,2.918a.649.649,0,0,0,.307.051,3.525,3.525,0,0,1,.41.154,5.049,5.049,0,0,0,5.683-2.253l1.382.358h0a1.474,1.474,0,0,0,1.792-1.024A1.444,1.444,0,0,0,64.459,49.71Z" transform="translate(-27.749 -20.68)"/><path class="a" d="M212.082,87.048l-10.8-2.918a.65.65,0,0,0-.307-.051l-.461-.154a5.049,5.049,0,0,0-5.683,2.253l-1.382-.358a1.459,1.459,0,1,0-.768,2.816l1.382.358a5.12,5.12,0,0,0,3.789,4.813c.154.051.307.051.461.1.1.051.2.051.307.1l10.8,2.918a2.422,2.422,0,0,0,2.97-1.69l1.382-5.222A2.422,2.422,0,0,0,212.082,87.048Z" transform="translate(-100.11 -41.379)"/><g transform="translate(64.152)"><path class="a" d="M143.3,6.017a5.017,5.017,0,1,1,10.035,0Z" transform="translate(-140.689 -1)"/><line class="a" x2="12.697" transform="translate(0 5.017)"/></g></g><path class="d" d="M1,122.243c10.342-10.137,17.254-9.062,26.214-3.789,20.684,12.134,32.511-9.216,55.244-.1a40.978,40.978,0,0,0,11.591,2.982c18.266,1.75,21.383-15.43,39.813.909" transform="translate(-1 -56.401)"/></g></svg>