<svg xmlns="http://www.w3.org/2000/svg" viewBox="0 0 134.858 64.722"><defs><style>.a,.b,.c,.d,.e,.f,.g,.h,.j{fill:none;}.a,.b,.c,.e,.f,.g,.h,.j{stroke:#b24642;}.a,.g,.j{stroke-linejoin:round;}.a,.b,.c,.e,.g,.h,.j{stroke-miterlimit:10;}.a,.c,.f,.h,.j{stroke-width:2px;}.b{stroke-width:0.5px;}.f,.g,.h,.j{stroke-linecap:round;}.i{fill:#ae302c;}</style></defs><g transform="translate(1 1)"><g transform="translate(0 0)"><g transform="translate(0 9.781)"><path class="a" d="M26.339,60.636a10.752,10.752,0,1,0-18.108,0A16.075,16.075,0,0,0,1,74.154,16.285,16.285,0,1,0,26.339,60.636Z" transform="translate(-1 -44.1)"/><path class="a" d="M30.685,74.991l-2.264-2.264-5.344,5.344V66h-3.27V87.315L14.464,81.97,12.2,84.234l7.608,7.608v13.015h3.27V82.536Z" transform="translate(-5.158 -52.23)"/></g><line class="b" y2="15.53" transform="translate(115.879 47.192)"/><line class="b" y2="15.53" transform="translate(127.197 47.192)"/><line class="b" x1="25.024" transform="translate(103.367 54.8)"/><line class="b" x1="25.024" transform="translate(103.367 50.399)"/><line class="b" x1="25.024" transform="translate(103.367 59.201)"/><g transform="translate(85.448)"><path class="a" d="M156.46,36.792a8.589,8.589,0,0,0,1.383-4.653,8.74,8.74,0,0,0-17.479,0,8.433,8.433,0,0,0,1.383,4.653,13.2,13.2,0,1,0,20.56,10.94A13.072,13.072,0,0,0,156.46,36.792Z" transform="translate(-135.9 -23.4)"/><path class="a" d="M158.221,53.208l-4.59,5.019V46.9H150.8V66.842l-4.653-5.019-1.949,2.1,6.539,7.122.063,26.114h2.829V62.433l6.6-7.122Z" transform="translate(-138.981 -34.44)"/></g><rect class="c" width="3.521" height="4.967" transform="translate(71.992 17.578)"/><path class="c" d="M111.342,68.075H104.3V55.5h7.042" transform="translate(-39.35 -37.922)"/><path class="c" d="M127.208,82.011V63.4H71.5v40.177h60.486V82.011Z" transform="translate(-27.173 -40.855)"/><g transform="translate(24.396 21.665)"><path class="d" d="M78.588,91.631v-9.62h0L59.725,63.4,40.8,82.011v21.566H78.588V101" transform="translate(-40.171 -62.52)"/><path class="d" d="M78.846,103.686H39.8V81.24L59.354,62,78.846,81.24v10.5l-1.258-1.258v-8.74L59.354,63.761l-18.3,17.982v20.686H77.588v-1.32l1.258-1.258Z" transform="translate(-39.8 -62)"/></g><path class="e" d="M68.561,86.7A3.945,3.945,0,0,0,64.6,90.661v9.809h7.985V90.724A4.094,4.094,0,0,0,68.561,86.7Z" transform="translate(-24.611 -49.505)"/><path class="f" d="M0,0H124.182" transform="translate(8.677 62.722)"/><path class="e" d="M135.993,86.7a5.072,5.072,0,0,0-5.093,5.093v20.435h10.123V91.793A5.019,5.019,0,0,0,135.993,86.7Z" transform="translate(-49.225 -49.505)"/><path class="e" d="M113.161,86.7a3.945,3.945,0,0,0-3.961,3.961v9.809h7.985V90.724A4.094,4.094,0,0,0,113.161,86.7Z" transform="translate(-41.169 -49.505)"/><path class="c" d="M143.5,86.5H94.329L83.2,75.5h52.5Z" transform="translate(-31.516 -45.347)"/><g transform="translate(49.986 48.324)"><path class="e" d="M94.936,111.568a7.168,7.168,0,1,1-7.168-7.168A7.165,7.165,0,0,1,94.936,111.568Z" transform="translate(-80.537 -104.4)"/><line class="g" y2="14.398" transform="translate(7.231)"/><line class="g" x1="10.186" y2="10.186" transform="translate(2.138 2.075)"/><line class="g" x1="14.398" transform="translate(0 7.168)"/><line class="g" x1="10.186" y1="10.186" transform="translate(2.138 2.075)"/><path class="e" d="M92.438,115.169a1.069,1.069,0,1,1-1.069-1.069A1.1,1.1,0,0,1,92.438,115.169Z" transform="translate(-84.138 -108.001)"/></g></g><g transform="translate(0 10.41)"><path class="c" d="M26.339,60.636a10.752,10.752,0,1,0-18.108,0A16.075,16.075,0,0,0,1,74.154,16.285,16.285,0,1,0,26.339,60.636Z" transform="translate(-1 -44.1)"/><line class="h" y2="15.53" transform="translate(115.879 36.782)"/><line class="h" y2="15.53" transform="translate(127.197 36.782)"/><line class="h" x1="25.024" transform="translate(103.367 44.39)"/><line class="h" x1="25.024" transform="translate(103.367 39.989)"/><line class="h" x1="25.024" transform="translate(103.367 48.791)"/><rect class="c" width="3.521" height="4.967" transform="translate(71.992 7.168)"/><path class="c" d="M111.342,68.075H104.3V55.5h7.042" transform="translate(-39.35 -48.332)"/><path class="c" d="M127.208,82.011V63.4H71.5v40.177h60.486V82.011Z" transform="translate(-27.173 -51.265)"/><g transform="translate(23.767 11.417)"><path class="i" d="M78.846,103.524H39.8V81.165L59.354,62,78.846,81.165V91.625l-1.258-1.253V81.666L59.354,63.754l-18.3,17.912v20.606H77.588v-1.315L78.846,99.7Z" transform="translate(-39.8 -62)"/></g><path class="j" d="M68.561,86.7A3.945,3.945,0,0,0,64.6,90.661v9.809h7.985V90.724A4.094,4.094,0,0,0,68.561,86.7Z" transform="translate(-24.611 -59.915)"/><path class="f" d="M0,0H124.182" transform="translate(8.677 52.312)"/><path class="j" d="M135.993,86.7a5.072,5.072,0,0,0-5.093,5.093v20.435h10.123V91.793A5.019,5.019,0,0,0,135.993,86.7Z" transform="translate(-49.225 -59.915)"/><path class="j" d="M113.161,86.7a3.945,3.945,0,0,0-3.961,3.961v9.809h7.985V90.724A4.094,4.094,0,0,0,113.161,86.7Z" transform="translate(-41.169 -59.915)"/><path class="c" d="M143.5,86.5H94.329L83.2,75.5h52.5Z" transform="translate(-31.516 -55.757)"/></g></g></svg>