<svg xmlns="http://www.w3.org/2000/svg" viewBox="0 0 133.925 61.769"><defs><style>.a{fill:none;}.b{fill:#e7b333;}</style></defs><path class="a" d="M18.837,40.8v-.243h0l.111-.121,8.211-9.708h0l.555.607,7.878,9.223v.121h0v.849h2.33l3.773-16.868L27.158,13.5,8.3,28.062l-3,13.47H18.726Z" transform="translate(0.581 2.883)"/><path class="a" d="M5.085,38.6,2.2,51.463H17.4L18.844,38.6Z" transform="translate(0.241 8.242)"/><path class="a" d="M34.342,38.6H32.9l.444,4.611Z" transform="translate(3.605 8.242)"/><path class="a" d="M105.3,47.083a5.053,5.053,0,0,1,1.775-3.883h-5.326a3.9,3.9,0,0,0,0,7.767h5.326A4.873,4.873,0,0,1,105.3,47.083Z" transform="translate(10.76 9.225)"/><path class="b" d="M34.175,58.849l-.222-.607H21.526l-.111.607H17.642v-.607h0v-.971H2.441L5.326,44.408H4.216V41.981H5.881l3-13.47L27.739,13.948,42.275,25.113l.555-2.184L27.739,11.4,7.1,27.3,0,59.335H34.729l.111-.485Z" transform="translate(0 2.434)"/><path class="b" d="M34.375,39.027,34.93,36.6H32.6l.333,2.427Z" transform="translate(3.572 7.815)"/><path class="b" d="M18.781,36.6H5.355L4.8,39.027H18.559Z" transform="translate(0.526 7.815)"/><path class="b" d="M3.8,36.6v2.427H4.91L5.464,36.6Z" transform="translate(0.416 7.815)"/><path class="b" d="M17.511,36l-.111.728h0Z" transform="translate(1.906 7.687)"/><path class="b" d="M17.342,38.6h0L15.9,51.463h.111Z" transform="translate(1.742 8.242)"/><path class="b" d="M25.822,27.7h0l-8.211,9.708-.111.121,7.767-9.223Z" transform="translate(1.917 5.915)"/><path class="b" d="M32.6,36.749V35.9h0Z" transform="translate(3.572 7.666)"/><path class="b" d="M33.344,43.211,32.9,38.6h0l.444,4.733Z" transform="translate(3.605 8.242)"/><path class="b" d="M19.511,49.6l-.111.485H31.827l-.111-.485Z" transform="translate(2.126 10.591)"/><path class="b" d="M15.9,49.2v.971h0l.111-.971Z" transform="translate(1.742 10.506)"/><path class="b" d="M32.933,39.027h0L32.6,36.6h0Z" transform="translate(3.572 7.815)"/><path class="b" d="M17.422,36.6,17.2,39.027h0Z" transform="translate(1.885 7.815)"/><path class="b" d="M16.911,49.2l-.111.485h2l.111-.485Z" transform="translate(1.841 10.506)"/><path class="b" d="M19.611,49.2l-.111.485H31.705l-.111-.485Z" transform="translate(2.137 10.506)"/><path class="b" d="M31.3,49.2l.111.485h.222l.111-.485Z" transform="translate(3.429 10.506)"/><path class="b" d="M33.433,37.651V37.53l-7.878-9.223L25,27.7h0l8.322,9.83Z" transform="translate(2.739 5.915)"/><path class="b" d="M17.5,35.8h0v0Z" transform="translate(1.917 7.645)"/><path class="b" d="M30.6,50l.222.607h.666L31.6,50Z" transform="translate(3.353 10.677)"/><path class="b" d="M15.9,50.607h3.773L19.783,50H15.9Z" transform="translate(1.742 10.677)"/><path class="b" d="M27.4,38.6l3.329,12.863h1L28.4,38.6Z" transform="translate(3.002 8.242)"/><path class="b" d="M22.029,38.6,18.7,51.463h1L23.027,38.6Z" transform="translate(2.049 8.242)"/><path class="b" d="M32,38.6h0l.777,7.767v-.121Z" transform="translate(3.506 8.242)"/><path class="b" d="M24.735,30.092l-2,8.131h1l2-8.131,2.108,8.131h1l-2.108-8.131,6.435,7.645.111.485h0l-.111-.485L25.734,29,18.3,37.737v.485h0v-.485Z" transform="translate(2.005 6.192)"/><path class="b" d="M18.131,38.6,16.8,51.463h.111Z" transform="translate(1.841 8.242)"/><path class="b" d="M26.9,36.6l.555,2.427h1L27.9,36.6Z" transform="translate(2.947 7.815)"/><path class="b" d="M31.8,36.6h0l.222,2.427h0Z" transform="translate(3.484 7.815)"/><path class="b" d="M18.333,36.6h0L18,39.027h0Z" transform="translate(1.972 7.815)"/><path class="b" d="M22.366,36.6,21.7,39.027h1l.666-2.427Z" transform="translate(2.378 7.815)"/><path class="b" d="M17.331,38.6,16,51.463h.444L17.775,38.6Z" transform="translate(1.753 8.242)"/><path class="b" d="M33.066,44.789l.333-1.456L32.955,38.6H32.4Z" transform="translate(3.55 8.242)"/><path class="b" d="M17.844,38.5l.111-.728,7.878-9.344,7.878,9.344.111.728h.444v-.849l-.111-.121L25.833,27.7l-.555.607L17.511,37.53h0v.243L17.4,38.5Z" transform="translate(1.906 5.915)"/><path class="b" d="M18.9,49.685H16.344l.111-.485h-.444l-.111.971h3.883l.111-.485Z" transform="translate(1.742 10.506)"/><path class="b" d="M31.721,49.6H30.5l.111.485h1Z" transform="translate(3.342 10.591)"/><path class="b" d="M32.977,39.027,32.644,36.6H32.2l.222,2.427Z" transform="translate(3.528 7.815)"/><path class="b" d="M17.866,36.6h-.444L17.2,39.027h.444Z" transform="translate(1.885 7.815)"/><path class="b" d="M33.11,44.789,32.444,38.6H32l.777,7.645Z" transform="translate(3.506 8.242)"/><path class="b" d="M18.355,37.887l7.434-8.737,7.434,8.737.111.485h.444l-.111-.728L25.789,28.3l-7.878,9.344-.111.728h.555Z" transform="translate(1.95 6.043)"/><path class="b" d="M18.175,38.6h-.444L16.4,51.463h.444Z" transform="translate(1.797 8.242)"/><path class="b" d="M30.4,49.2l.111.485h1L31.4,49.2Z" transform="translate(3.331 10.506)"/><path class="b" d="M18.711,49.2l-.111.485h1l.111-.485Z" transform="translate(2.038 10.506)"/><path class="b" d="M16.855,49.2h-.444l-.111.485h.555l.111-.485Z" transform="translate(1.786 10.506)"/><path class="b" d="M32.022,39.027h.444L32.244,36.6H31.8Z" transform="translate(3.484 7.815)"/><path class="b" d="M17.822,36.6,17.6,39.027h.444l.333-2.427Z" transform="translate(1.928 7.815)"/><path class="b" d="M116.788,42.4H115.9v.121A1.992,1.992,0,0,1,116.788,42.4Z" transform="translate(12.699 9.054)"/><path class="b" d="M117.144,50.5Z" transform="translate(12.787 10.783)"/><path class="b" d="M110.653,50a5.951,5.951,0,0,1-1.553.485h8.433a6.013,6.013,0,0,1-2-.485Z" transform="translate(11.954 10.677)"/><path class="b" d="M117.144,42.4h0Z" transform="translate(12.787 9.054)"/><path class="b" d="M111.277,49.6a1.759,1.759,0,0,1-.777.485h4.882c-.222-.121-.555-.364-.777-.485Z" transform="translate(12.107 10.591)"/><path class="b" d="M121.094,47.254A4.734,4.734,0,0,0,117.1,42.4v.485a4.463,4.463,0,0,1,0,8.737v.485A4.734,4.734,0,0,0,121.094,47.254Z" transform="translate(12.83 9.054)"/><path class="b" d="M112.8,45.627a6.613,6.613,0,0,1,.222,1.456A4.518,4.518,0,0,1,115.13,43.2h-.888A5.708,5.708,0,0,0,112.8,45.627Z" transform="translate(12.359 9.225)"/><path class="b" d="M113.022,46.4a6.613,6.613,0,0,1-.222,1.456,4.961,4.961,0,0,0,1.553,2.427h.888A4.375,4.375,0,0,1,113.022,46.4Z" transform="translate(12.359 9.908)"/><path class="b" d="M112.7,45.885c0,.243.111.485.111.849a2.576,2.576,0,0,1-.111.849c0,.243.111.485.111.728a6.614,6.614,0,0,0,.222-1.456,6.614,6.614,0,0,0-.222-1.456C112.7,45.4,112.7,45.643,112.7,45.885Z" transform="translate(12.348 9.694)"/><path class="b" d="M116.9,50h-2a3.536,3.536,0,0,0,2,.485h.444V50Z" transform="translate(12.589 10.677)"/><path class="b" d="M116.022,42.885h1.11V42.4h-.444a2.248,2.248,0,0,0-.888.121Z" transform="translate(12.688 9.054)"/><path class="b" d="M116.777,42.8H116v.121A1.994,1.994,0,0,1,116.777,42.8Z" transform="translate(12.71 9.139)"/><path class="b" d="M114.2,49.6a1.759,1.759,0,0,0,.777.485h2a4.861,4.861,0,0,1-1.886-.485Z" transform="translate(12.513 10.591)"/><path class="b" d="M120.207,47.169a3.7,3.7,0,0,1-3.107,3.762v.607a4.463,4.463,0,0,0,0-8.737v.485A4.034,4.034,0,0,1,120.207,47.169Z" transform="translate(12.83 9.139)"/><path class="b" d="M113.544,47.062a3.7,3.7,0,0,1,3.107-3.762h-1.442a4.631,4.631,0,0,0,0,7.767h1.442A4.161,4.161,0,0,1,113.544,47.062Z" transform="translate(12.392 9.246)"/><path class="b" d="M116.7,49.6h0v.485h.444V49.6Z" transform="translate(12.787 10.591)"/><path class="b" d="M116.7,43.285h.444V42.8H116.7Z" transform="translate(12.787 9.139)"/><path class="b" d="M116.342,49.6H114.9a3.4,3.4,0,0,0,1.886.485V49.6Z" transform="translate(12.589 10.591)"/><path class="b" d="M116.211,43.285h.555V42.8a1.3,1.3,0,0,0-.666.121Z" transform="translate(12.721 9.139)"/><path class="b" d="M108.7,50.5h0Z" transform="translate(11.91 10.783)"/><path class="b" d="M101.849,51.159a3.9,3.9,0,0,1,0-7.767h1l.333-1.092h-1.331a5,5,0,0,0,0,9.951h7.989a4.046,4.046,0,0,1-2.774-1.092h-5.215Z" transform="translate(10.661 9.033)"/><path class="b" d="M109,50.4Z" transform="translate(11.943 10.762)"/><path class="b" d="M105.155,47.083a4.518,4.518,0,0,1,2.108-3.883h-.888a4.873,4.873,0,0,0-1.775,3.883,5.053,5.053,0,0,0,1.775,3.883h.888A4.286,4.286,0,0,1,105.155,47.083Z" transform="translate(11.461 9.225)"/><path class="b" d="M111.1,49.621h0c.111,0,.111-.121.222-.121C111.211,49.5,111.211,49.621,111.1,49.621Z" transform="translate(12.173 10.57)"/><path class="b" d="M111.1,43.2c.111,0,.111.121.222.121-.111,0-.111,0-.222-.121Z" transform="translate(12.173 9.225)"/><path class="b" d="M112.952,47.933c0-.243-.111-.485-.111-.849a2.576,2.576,0,0,1,.111-.849,5.186,5.186,0,0,0-1.553-2.912c-.111,0-.111-.121-.222-.121H110.4a4.631,4.631,0,0,1,0,7.767h.777c.111,0,.111-.121.222-.121A5.186,5.186,0,0,0,112.952,47.933Z" transform="translate(12.096 9.225)"/><path class="b" d="M109.1,50v.485A7.642,7.642,0,0,0,110.653,50H109.1Z" transform="translate(11.954 10.677)"/><path class="b" d="M109.1,50Z" transform="translate(11.954 10.677)"/><path class="b" d="M111.286,49.6a3.4,3.4,0,0,1-1.886.485h1.221a2.316,2.316,0,0,0,.666-.485Z" transform="translate(11.987 10.591)"/><path class="b" d="M109.4,50.085h0a2.634,2.634,0,0,0,1.886-.485h-.777A4.414,4.414,0,0,1,109.4,50.085Z" transform="translate(11.987 10.591)"/><path class="b" d="M112.711,45.8c0,.243-.111.485-.111.849a2.576,2.576,0,0,0,.111.849c0-.243.111-.485.111-.849A2.576,2.576,0,0,1,112.711,45.8Z" transform="translate(12.337 9.78)"/><path class="b" d="M109.307,50.085h-.333a4.861,4.861,0,0,1-1.886-.485H106.2a4.442,4.442,0,0,0,2.774,1.092h.333Z" transform="translate(11.636 10.591)"/><path class="b" d="M109.011,50h0l-.111.485h.111V50Z" transform="translate(11.932 10.677)"/><path class="b" d="M109,50Z" transform="translate(11.943 10.677)"/><path class="b" d="M107.319,50.36a4.185,4.185,0,0,1-1.775-3.277,3.607,3.607,0,0,1,1.775-3.277,4.734,4.734,0,0,1,.777-.607h-.888a4.631,4.631,0,0,0,0,7.767h.777A3.018,3.018,0,0,1,107.319,50.36Z" transform="translate(11.516 9.225)"/><path class="b" d="M108.331,49.685A5.889,5.889,0,0,1,107,49.2a4.731,4.731,0,0,0,.777.607l.555-.121Z" transform="translate(11.724 10.506)"/><path class="b" d="M108.331,43.2h-.555a3.393,3.393,0,0,0-.777.607,6.479,6.479,0,0,1,1.331-.607Z" transform="translate(11.724 9.225)"/><path class="b" d="M109.8,43.543a4.1,4.1,0,0,1,0,7.281v.243h.555a4.631,4.631,0,0,0,0-7.767H109.8Z" transform="translate(12.031 9.246)"/><path class="b" d="M109.1,49.621v.485h.333V49.5A.386.386,0,0,0,109.1,49.621Z" transform="translate(11.954 10.57)"/><path class="b" d="M109.1,43.2h0a.386.386,0,0,0,.333.121V43.2H109.1Z" transform="translate(11.954 9.225)"/><path class="b" d="M109.844,43.543V43.3H109.4v.121C109.622,43.421,109.733,43.421,109.844,43.543Z" transform="translate(11.987 9.246)"/><path class="b" d="M109.844,49.4a.623.623,0,0,1-.444.121v.607a4.414,4.414,0,0,0,1.11-.485h-.555V49.4Z" transform="translate(11.987 10.549)"/><path class="b" d="M107.777,49.6H107a3.4,3.4,0,0,0,1.886.485h.333A5.156,5.156,0,0,1,107.777,49.6Z" transform="translate(11.724 10.591)"/><path class="b" d="M108.2,43.2Z" transform="translate(11.855 9.225)"/><path class="b" d="M109.033,43.2h0Z" transform="translate(11.91 9.225)"/><path class="b" d="M108.8,49.6h-1a5.156,5.156,0,0,0,1.442.485V49.6Z" transform="translate(11.811 10.591)"/><path class="b" d="M109,50Z" transform="translate(11.943 10.677)"/><path class="b" d="M109.111,43.3Z" transform="translate(11.943 9.246)"/><path class="b" d="M109.111,49.6H109v.485h.222V49.6Z" transform="translate(11.943 10.591)"/><path class="b" d="M111.063,30.556l5.1,14.684h.555L111.063,29.1,108.4,36.624l.333.849Z" transform="translate(11.877 6.214)"/><path class="b" d="M115.511,42.643c.111,0,.333-.121.444-.121V42.4H115.4Z" transform="translate(12.644 9.054)"/><path class="b" d="M115.021,42.8Z" transform="translate(12.469 9.139)"/><path class="b" d="M114.022,43.285h.222a1.758,1.758,0,0,1,.777-.485H113.8Z" transform="translate(12.469 9.139)"/><path class="b" d="M114.9,42.885h1.331l-.111-.485c-.111,0-.333.121-.444.121l.111.243H114.9Z" transform="translate(12.589 9.054)"/><path class="b" d="M114.2,43.307h.888a3.765,3.765,0,0,1,1.221-.485V42.7h-1.331C114.644,42.943,114.422,43.185,114.2,43.307Z" transform="translate(12.513 9.118)"/><path class="b" d="M116.221,42.9a5.118,5.118,0,0,0-1.221.485h1.331Z" transform="translate(12.6 9.161)"/><path class="b" d="M111.03,31.756l4.549,13.228h.555L111.03,30.3l-2.33,6.917.222.728Z" transform="translate(11.91 6.47)"/><path class="b" d="M113.6,42.4l.222.485h1.221a1.487,1.487,0,0,1,.666-.243L115.6,42.4h-2Z" transform="translate(12.447 9.054)"/><path class="b" d="M115.677,42.843l-.111-.243c-.222.121-.444.121-.666.243Z" transform="translate(12.589 9.097)"/><path class="b" d="M109.5,39.026l.333.728,1.11-3.277L113.605,44h.444l-3.107-9.1Z" transform="translate(11.998 7.452)"/><path class="b" d="M111.3,42.8Z" transform="translate(12.195 9.139)"/><path class="b" d="M114.3,43.285l-.222-.485H111.3l.111.485Z" transform="translate(12.195 9.139)"/><path class="b" d="M113.311,42.885h.555l-.222-.485H113.2Z" transform="translate(12.403 9.054)"/><path class="b" d="M110.91,37.656l2.108,6.068h.555L110.91,36.2l-1.11,3.277.222.728Z" transform="translate(12.031 7.73)"/><path class="b" d="M111.1,42.4l.222.485h2.219l-.111-.485H111.1Z" transform="translate(12.173 9.054)"/><path class="b" d="M107.371,32.778l1.442,4.247.222-.849L107.371,31.2,102.6,44.792h.555Z" transform="translate(11.242 6.662)"/><path class="b" d="M104.741,43.371l.222-.485h-2l.222-.485h-.555l-.333.971Z" transform="translate(11.209 9.054)"/><path class="b" d="M109.588,38.663l-.666-2.063-.222.728.666,2.063Z" transform="translate(11.91 7.815)"/><path class="b" d="M108.422,36.878l.333-.728-.333-.849-.222.849Z" transform="translate(11.855 7.538)"/><path class="b" d="M108.955,36.728,108.733,36l-.333.728.333.728Z" transform="translate(11.877 7.687)"/><path class="b" d="M111.242,43.019,110.022,39.5l-.222.728.888,2.791Z" transform="translate(12.031 8.435)"/><path class="b" d="M109.855,39.028l-.333-.728-.222.728.222.728Z" transform="translate(11.976 8.178)"/><path class="b" d="M110.5,42.8Z" transform="translate(12.107 9.139)"/><path class="b" d="M111.277,43.285h.333l-.222-.485H110.5A4.738,4.738,0,0,0,111.277,43.285Z" transform="translate(12.107 9.139)"/><path class="b" d="M109.1,42.8Z" transform="translate(11.954 9.139)"/><path class="b" d="M109.1,42.821h.333V42.7a.386.386,0,0,1-.333.121Z" transform="translate(11.954 9.118)"/><path class="b" d="M110.621,42.8H109.4a4.861,4.861,0,0,1,1.886.485h.111A4.738,4.738,0,0,1,110.621,42.8Z" transform="translate(11.987 9.139)"/><path class="b" d="M109.4,42.906a2.633,2.633,0,0,1,1,.485h.777a2.24,2.24,0,0,0-1.775-.485Z" transform="translate(11.987 9.155)"/><path class="b" d="M109.1,42.8Z" transform="translate(11.954 9.139)"/><path class="b" d="M109.1,42.8Z" transform="translate(11.954 9.139)"/><path class="b" d="M109.1,42.921l.111.364h.222V42.8a.386.386,0,0,0-.333.121Z" transform="translate(11.954 9.139)"/><path class="b" d="M109.4,43.285h1a3.78,3.78,0,0,0-1-.485Z" transform="translate(11.987 9.139)"/><path class="b" d="M109.1,42.8v0Z" transform="translate(11.954 9.139)"/><path class="b" d="M109.833,40.356l.222-.728-.222-.728-.333.728Z" transform="translate(11.998 8.306)"/><path class="b" d="M110.6,42.4l.222.485h.555l-.222-.485Z" transform="translate(12.118 9.054)"/><path class="b" d="M107.316,33.956l1.221,3.519.222-.728L107.316,32.5,103.1,44.514h.444Z" transform="translate(11.296 6.94)"/><path class="b" d="M103.566,42.4h-.444l-.222.485h2l.111-.485Z" transform="translate(11.275 9.054)"/><path class="b" d="M109.4,39.263l-.666-2.063-.333.728.777,2.063Z" transform="translate(11.877 7.943)"/><path class="b" d="M108.222,37.456l.222-.728L108.222,36l-.222.728Z" transform="translate(11.833 7.687)"/><path class="b" d="M108.422,38.056l.333-.728-.333-.728-.222.728Z" transform="translate(11.855 7.815)"/><path class="b" d="M110.277,42.891h.444l-.888-2.791-.333.728Z" transform="translate(11.998 8.563)"/><path class="b" d="M109.544,39.628l-.222-.728-.222.728.222.728Z" transform="translate(11.954 8.306)"/><path class="b" d="M109.855,40.228l-.333-.728-.222.728.222.728Z" transform="translate(11.976 8.435)"/><path class="b" d="M109.1,42.4h0a7.641,7.641,0,0,1,1.553.485h.333l-.222-.485H109.1Z" transform="translate(11.954 9.054)"/><path class="b" d="M108.9,42.4Z" transform="translate(11.932 9.054)"/><path class="b" d="M109,42.4Z" transform="translate(11.943 9.054)"/><path class="b" d="M109.1,42.885h1.553A5.95,5.95,0,0,0,109.1,42.4Z" transform="translate(11.954 9.054)"/><path class="b" d="M109.011,42.643V42.4H108.9Z" transform="translate(11.932 9.054)"/><path class="b" d="M109.111,42.4H109v.243l.111.243h.111V42.4Z" transform="translate(11.943 9.054)"/><path class="b" d="M107.352,39.306l.222-.728L107.13,37l-2.33,6.553h.555l1.775-4.975Z" transform="translate(11.483 7.901)"/><path class="b" d="M108.266,42.291l.222-.728-.666-2.063-.222.728Z" transform="translate(11.789 8.435)"/><path class="b" d="M107.655,39.028l-.333-.728-.222.728.222.728Z" transform="translate(11.735 8.178)"/><path class="b" d="M107.633,40.356l.222-.728-.222-.728-.333.728Z" transform="translate(11.757 8.306)"/><path class="b" d="M108.422,42.656h0l.333-.728-.333-.728-.222.728Z" transform="translate(11.855 8.798)"/><path class="b" d="M108.955,42.528l-.222-.728-.333.728h.555Z" transform="translate(11.877 8.926)"/><path class="b" d="M105.72,42.8h-1l-.222.485h1Z" transform="translate(11.45 9.139)"/><path class="b" d="M106.077,42.8h-.555l-.222.485h.888a1.758,1.758,0,0,1,.777-.485Z" transform="translate(11.537 9.139)"/><path class="b" d="M107.975,42.8h-1c-.222.121-.555.364-.777.485h.888a7.246,7.246,0,0,1,.888-.364Z" transform="translate(11.636 9.139)"/><path class="b" d="M107,43.264h.777l.111-.364A7.25,7.25,0,0,0,107,43.264Z" transform="translate(11.724 9.161)"/><path class="b" d="M108.7,42.8h-.888l-.111.121a3.508,3.508,0,0,1,1-.121h0Z" transform="translate(11.8 9.139)"/><path class="b" d="M109.108,42.8Z" transform="translate(11.946 9.139)"/><path class="b" d="M109,42.8Z" transform="translate(11.943 9.139)"/><path class="b" d="M109.1,42.9v.364h.111Z" transform="translate(11.954 9.161)"/><path class="b" d="M109.142,42.8h-.333c-.333,0-.666.121-1,.121l-.111.364h.111a3.532,3.532,0,0,1,1.331-.485Z" transform="translate(11.8 9.139)"/><path class="b" d="M108.81,43.285h.333V42.8a6.731,6.731,0,0,0-1.442.485h1.11Z" transform="translate(11.8 9.139)"/><path class="b" d="M109,42.8Z" transform="translate(11.943 9.139)"/><path class="b" d="M109.111,42.921V42.8H109v.485h.111Z" transform="translate(11.943 9.139)"/><path class="b" d="M105.366,42.4h-.555l-.111.485h.444Z" transform="translate(11.472 9.054)"/><path class="b" d="M108.4,42.4Z" transform="translate(11.877 9.054)"/><path class="b" d="M108.7,42.4h0Z" transform="translate(11.91 9.054)"/><path class="b" d="M108.4,42.4h0Z" transform="translate(11.877 9.054)"/><path class="b" d="M108.944,42.4H108.5l.222.485h.444v-.243Z" transform="translate(11.888 9.054)"/><path class="b" d="M109,42.843h.111L109,42.6Z" transform="translate(11.943 9.097)"/><path class="b" d="M107.3,39.028l-.222-.728L105.3,43.275h.444Z" transform="translate(11.537 8.178)"/><path class="b" d="M107.633,40.1l-.333.728.777,2.063h0l.222-.728Z" transform="translate(11.757 8.563)"/><path class="b" d="M107.253,40.356l.222-.728-.222-.728L105.7,43.147h.111l1.221-3.519Z" transform="translate(11.581 8.306)"/><path class="b" d="M107.322,39.5l-.222.728.222.728.333-.728Z" transform="translate(11.735 8.435)"/><path class="b" d="M108.222,41.8l-.222.728h.444Z" transform="translate(11.833 8.926)"/><path class="b" d="M105.322,42.4l-.222.485h.555l.111-.485Z" transform="translate(11.516 9.054)"/><path class="b" d="M106.266,42.4h-.555l-.111.485h.444Z" transform="translate(11.57 9.054)"/><path class="b" d="M108.219,42.4h-2l-.222.485h.888a5.89,5.89,0,0,1,1.331-.485Z" transform="translate(11.614 9.054)"/><path class="b" d="M106.9,42.885h1l.111-.485A4.414,4.414,0,0,0,106.9,42.885Z" transform="translate(11.713 9.054)"/><path class="b" d="M108.444,42.4H108v.121a.623.623,0,0,1,.444-.121Z" transform="translate(11.833 9.054)"/><path class="b" d="M108.466,42.4h-.555l-.111.485h.555Z" transform="translate(11.811 9.054)"/><path class="b" d="M108.4,42.4Z" transform="translate(11.877 9.054)"/><path class="b" d="M108.411,42.4l-.111.485h.333Z" transform="translate(11.866 9.054)"/><path class="b" d="M66.228,0,39.6,20.509l-1,4.854.777.607,1.11-4.854L66.228,1.335,91.97,21.116,96.076,39.44h.777v2.306h-.333l4.216,18.931h-21.3V61.4H53.024v-.728h-2l.222,1.092h50.707l-9.209-41.26Z" transform="translate(4.229)"/><path class="b" d="M35.7,39.568l.666-2.67h-.333V34.593h.777L39.36,23.428l-.888-.728L34.7,39.568Z" transform="translate(3.802 4.847)"/><path class="b" d="M33.633,46.245,35.3,38.6h-1l-1,4.611Z" transform="translate(3.649 8.242)"/><path class="b" d="M34.518,50h-.111l.111.607H31.411l-.111.485H52.049L51.827,50Z" transform="translate(3.429 10.677)"/><path class="b" d="M38.988,23.812l.444-2.306-.777-.607L38.1,23.084Z" transform="translate(4.175 4.463)"/><path class="b" d="M35.2,39.027l.555-2.427h-1L34.2,39.027Z" transform="translate(3.747 7.815)"/><path class="b" d="M32.81,45,31.7,50.1h1l.444-2.063Z" transform="translate(3.473 9.609)"/><path class="b" d="M33.3,42.521l.333,3.034v-.121L33.3,42.4Z" transform="translate(3.649 9.054)"/><path class="b" d="M31.711,49.2l-.111.485h1l.111-.485Z" transform="translate(3.462 10.506)"/><path class="b" d="M31.511,50l-.111.607h3.107L34.4,50H31.511Z" transform="translate(3.44 10.677)"/><path class="b" d="M32.7,45.021l.333,3.034v-.121L32.7,44.9Z" transform="translate(3.583 9.588)"/><path class="b" d="M33,43.956l.333,3.034.333-1.456L33.333,42.5Z" transform="translate(3.616 9.075)"/><path class="b" d="M31.5,50.085h1l.111-.485h-1Z" transform="translate(3.451 10.591)"/><path class="b" d="M32.7,45.156l.333,3.034.333-1.456L33.033,43.7Z" transform="translate(3.583 9.331)"/><path class="b" d="M41.3,21.609l24.854-19.3,24.854,19.3L95,39.2h1L91.894,20.881,66.152,1.1,40.41,20.881,39.3,25.735l.888.728Z" transform="translate(4.306 0.235)"/><path class="b" d="M37.153,34.4h-.888L35.6,37.07h1Z" transform="translate(3.901 7.346)"/><path class="b" d="M37.6,34.465l2.33-10.558-.777-.607L36.6,34.465Z" transform="translate(4.01 4.975)"/><path class="b" d="M33.6,46.245l.333,3.034L36.263,38.6h-1Z" transform="translate(3.681 8.242)"/><path class="b" d="M49.6,49.2l.222.971h2l.111-.971Z" transform="translate(5.435 10.506)"/><path class="b" d="M95.494,52.36H75.3l.111.971h21.3L92.5,34.4h-1Z" transform="translate(9.107 7.967)"/><path class="b" d="M39.677,24.312l.555-2.184-.888-.728L38.9,23.706Z" transform="translate(4.262 4.57)"/><path class="b" d="M49.3,49.2H34.1l.111.971H51.52L51.3,49.2Z" transform="translate(3.736 10.506)"/><path class="b" d="M36.1,39.027l.555-2.427h-1L35.1,39.027Z" transform="translate(3.846 7.815)"/><path class="b" d="M32.6,49.563h.666L33.044,47.5Z" transform="translate(3.572 10.143)"/><path class="b" d="M33.6,45.021l.333,3.034v-.121L33.6,44.9Z" transform="translate(3.681 9.588)"/><path class="b" d="M34,49.2l.111.971h.111l-.111-.971Z" transform="translate(3.725 10.506)"/><path class="b" d="M32.611,49.2l-.111.485h.777V49.2Z" transform="translate(3.561 10.506)"/><path class="b" d="M33,47.521l.222,2.063h0L33,47.4Z" transform="translate(3.616 10.122)"/><path class="b" d="M33.3,46.456l.333,2.912.333-1.335L33.633,45Z" transform="translate(3.649 9.609)"/><path class="b" d="M33.731,49.2l.111.485H32.511l-.111.485h1.886l-.111-.971Z" transform="translate(3.55 10.506)"/><path class="b" d="M33,47.656l.222,2.184h.333l.111-.728L33.333,46.2Z" transform="translate(3.616 9.865)"/><path class="b" d="M33.2,49.2h0v.485h.555l-.111-.485H33.2Z" transform="translate(3.638 10.506)"/><path class="b" d="M73.622,34.806H91.708L91.264,32.5H73.4Z" transform="translate(8.042 6.94)"/><path class="b" d="M91.177,34.806V32.5H90.4l.444,2.306Z" transform="translate(9.905 6.94)"/><path class="b" d="M89.944,34.806h1L90.5,32.5h-1Z" transform="translate(9.806 6.94)"/><path class="b" d="M54.255,34.806l.222-2.306H45.6l.444,2.306Z" transform="translate(4.996 6.94)"/><path class="b" d="M44.989,34.806,44.545,32.5h-6.99L37,34.806Z" transform="translate(4.054 6.94)"/><path class="b" d="M46.241,34.806,45.8,32.5h-2l.444,2.306Z" transform="translate(4.799 6.94)"/><path class="b" d="M35.9,32.5v2.306h.333l.444-2.306Z" transform="translate(3.933 6.94)"/><path class="b" d="M37.642,32.5h-1L36.2,34.806h.888Z" transform="translate(3.966 6.94)"/><path class="b" d="M75.453,51.805h0L73.9,37Z" transform="translate(8.097 7.901)"/><path class="b" d="M53.1,37.555l.333-3.155h0Z" transform="translate(5.818 7.346)"/><path class="b" d="M53.711,33.742,63.919,21.728,64.585,21l.666.728,1.886,2.184L64.585,21,53.711,33.742,53.6,34.956h0Z" transform="translate(5.873 4.484)"/><path class="b" d="M75.4,50.728h0V50h0Z" transform="translate(8.261 10.677)"/><path class="b" d="M72.422,50h-16.2L56,50.728H72.644l-.111-.485Z" transform="translate(6.136 10.677)"/><path class="b" d="M75.3,49.2l.111.971h0Z" transform="translate(8.25 10.506)"/><path class="b" d="M53.4,34.806l.222-2.306h0Z" transform="translate(5.851 6.94)"/><path class="b" d="M56.311,49.5l-.111.607H72.4l-.111-.607Z" transform="translate(6.158 10.57)"/><path class="b" d="M62.585,23.9,59.7,27.3Z" transform="translate(6.541 5.103)"/><path class="b" d="M54.353,37.1,52.8,51.784h0Z" transform="translate(5.785 7.922)"/><path class="b" d="M52.8,49.2v.364h0Z" transform="translate(5.785 10.506)"/><path class="b" d="M73.133,34.336h0l-.111-.607L64.7,23.9h0l8.322,9.83Z" transform="translate(7.089 5.103)"/><path class="b" d="M72.833,37.434,72.5,34.4h0Z" transform="translate(7.944 7.346)"/><path class="b" d="M72.3,32.5l.222,2.306h0Z" transform="translate(7.922 6.94)"/><path class="b" d="M51.7,51.805h0L53.253,37Z" transform="translate(5.665 7.901)"/><path class="b" d="M73.933,37.555,73.6,34.4h0Z" transform="translate(8.064 7.346)"/><path class="b" d="M74.233,34.443h0l-.111-1.214L65.8,23.4l8.322,9.83Z" transform="translate(7.21 4.997)"/><path class="b" d="M51.6,50v.728h0Z" transform="translate(5.654 10.677)"/><path class="b" d="M51.711,49.2h0l-.111.971h0Z" transform="translate(5.654 10.506)"/><path class="b" d="M73.622,34.806h0L73.4,32.5h0Z" transform="translate(8.042 6.94)"/><path class="b" d="M66.4,34.4l4.66,17.96h.666L67.066,34.4Z" transform="translate(7.275 7.346)"/><path class="b" d="M60.349,34.4,55.8,52.36h.666L61.015,34.4Z" transform="translate(6.114 7.346)"/><path class="b" d="M63.5,23.085l-3,11.529h.666l2.663-10.436,2.663,10.436h.666l-3-11.529-.333-.485Z" transform="translate(6.629 4.826)"/><path class="b" d="M55.811,49.2l-.111.364h.666l.111-.364Z" transform="translate(6.103 10.506)"/><path class="b" d="M70.6,49.2l.111.364h.555V49.2Z" transform="translate(7.735 10.506)"/><path class="b" d="M65.9,32.5l.555,2.306h.666L66.566,32.5Z" transform="translate(7.221 6.94)"/><path class="b" d="M60.566,32.5,59.9,34.806h.666l.666-2.306Z" transform="translate(6.563 6.94)"/><path class="b" d="M54.141,34.4h-.555l-.333,3.155L51.7,52.36h.666Z" transform="translate(5.665 7.346)"/><path class="b" d="M63.5,21.8Z" transform="translate(6.958 4.655)"/><path class="b" d="M64.585,21l-.666.728L53.711,33.742,53.6,34.956h.555l.111-.849L64.585,21.971h0l.222.243,9.986,11.893.111.849h.666l-.111-1.214-8.322-9.83L65.25,21.728Z" transform="translate(5.873 4.484)"/><path class="b" d="M73.666,34.4H73l1.886,17.96h.666L74,37.555Z" transform="translate(7.998 7.346)"/><path class="b" d="M56.038,50H51.6v.728h4.882L56.7,50Z" transform="translate(5.654 10.677)"/><path class="b" d="M75.238,50H70.8l.111.243.111.485H75.9V50Z" transform="translate(7.757 10.677)"/><path class="b" d="M51.711,49.2l-.111.971h.666l.111-.971Z" transform="translate(5.654 10.506)"/><path class="b" d="M74.811,50.171h.666l-.111-.971H74.7Z" transform="translate(8.185 10.506)"/><path class="b" d="M72.8,32.5l.222,2.306h.666L73.466,32.5Z" transform="translate(7.977 6.94)"/><path class="b" d="M53.622,32.5,53.4,34.806h.555l.222-2.306Z" transform="translate(5.851 6.94)"/><path class="b" d="M63.5,21.8h0l.222.243Z" transform="translate(6.958 4.655)"/><path class="b" d="M63.533,22.771l.333.485L63.533,21.8h0L63.2,23.256Z" transform="translate(6.925 4.655)"/><path class="b" d="M55.711,49.5l-.111.607h.666l.111-.607Z" transform="translate(6.092 10.57)"/><path class="b" d="M70.7,49.5l.111.607h.666l-.222-.607Z" transform="translate(7.746 10.57)"/><path class="b" d="M60.566,34.529l3-11.529-1,1.092L59.9,34.529Z" transform="translate(6.563 4.911)"/><path class="b" d="M60.248,26.7l-5.437,6.432-.111.607h0l.111-.607Z" transform="translate(5.993 5.701)"/><path class="b" d="M54.533,34.4,54.2,37.677Z" transform="translate(5.939 7.346)"/><path class="b" d="M59.86,34.4,55.2,52.36h.666L60.415,34.4Z" transform="translate(6.048 7.346)"/><path class="b" d="M55.211,49.2l-.111.364h.666l.111-.364Z" transform="translate(6.037 10.506)"/><path class="b" d="M54.722,32.5h0L54.5,34.806h0Z" transform="translate(5.971 6.94)"/><path class="b" d="M59.955,32.5,59.4,34.806h.555l.666-2.306Z" transform="translate(6.508 6.94)"/><path class="b" d="M54.211,33.935,64.53,21.8h0L54.211,33.935l-.111.849h0Z" transform="translate(5.928 4.655)"/><path class="b" d="M54.075,34.4,52.3,52.36h0Z" transform="translate(5.73 7.346)"/><path class="b" d="M52.311,49.2l-.111.971h0Z" transform="translate(5.719 10.506)"/><path class="b" d="M54.122,32.5h0L53.9,34.806h0Z" transform="translate(5.906 6.94)"/><path class="b" d="M54.877,34.178l5.437-6.432,2.885-3.4h0l1-1.092L64.53,21.8,54.211,33.935l-.111.849h.666Z" transform="translate(5.928 4.655)"/><path class="b" d="M54.741,34.4h-.666L52.3,52.36h.555l1.553-14.684Z" transform="translate(5.73 7.346)"/><path class="b" d="M55.418,49.564H52.866V49.2h-.555l-.111.971h3.773l.111-.607Z" transform="translate(5.719 10.506)"/><path class="b" d="M54.122,32.5,53.9,34.806h.666l.222-2.306Z" transform="translate(5.906 6.94)"/><path class="b" d="M74.242,51.826h0L72.8,36.9Z" transform="translate(7.977 7.879)"/><path class="b" d="M67.462,34.529,64.8,24.092,63.8,23l3,11.529Z" transform="translate(6.99 4.911)"/><path class="b" d="M67,34.4l4.66,17.96h.555L67.666,34.4Z" transform="translate(7.341 7.346)"/><path class="b" d="M71.2,49.2v.364h.666l-.111-.364Z" transform="translate(7.801 10.506)"/><path class="b" d="M74.211,49.564h0L74.1,49.2h0Z" transform="translate(8.119 10.506)"/><path class="b" d="M66.5,32.5l.555,2.306h.666L67.166,32.5Z" transform="translate(7.286 6.94)"/><path class="b" d="M63.5,21.8Z" transform="translate(6.958 4.655)"/><path class="b" d="M74.886,52.36h0L73,34.4h0Z" transform="translate(7.998 7.346)"/><path class="b" d="M73.8,34.742h0l-.111-.849L63.7,22l9.986,11.893Z" transform="translate(6.979 4.698)"/><path class="b" d="M74.7,49.2l.111.971Z" transform="translate(8.185 10.506)"/><path class="b" d="M72.8,32.5l.222,2.306h0Z" transform="translate(7.977 6.94)"/><path class="b" d="M63.833,23.256l1,1.092h0l8.322,9.83.111.607h.555l-.111-.849L63.722,22.043,63.5,21.8h0Z" transform="translate(6.958 4.655)"/><path class="b" d="M72.5,34.4l.333,3.034L74.275,52.36h.666L73.055,34.4Z" transform="translate(7.944 7.346)"/><path class="b" d="M74.418,49.2l.111.364H71.2l.222.607h3.773l-.111-.971Z" transform="translate(7.801 10.506)"/><path class="b" d="M72.522,34.806h.555L72.855,32.5H72.3Z" transform="translate(7.922 6.94)"/></svg>