<svg xmlns="http://www.w3.org/2000/svg" viewBox="0 0 94.258 65.614"><defs><style>.a{fill:none;}.b{fill:#777;}</style></defs><g transform="translate(0 0)"><path class="a" d="M9.1,21.473c0,.622.311,1.555.311,2.177v.311c7.463.622,14.3.933,21.146.933V23.65a15.755,15.755,0,0,1-.622-4.043v-.622a19.123,19.123,0,0,1-.311-4.354V10.9h-17.1C11.277,14.943,10.344,18.363,9.1,21.473Z" transform="translate(19.198 22.995)"/><path class="a" d="M11.566,3.388h0a13.165,13.165,0,0,1,1.555-2.177A.3.3,0,0,1,13.432.9a3.381,3.381,0,0,0-1.555.311,4.293,4.293,0,0,0-.933,1.244c-.311,0-.622.311-.933.622a.3.3,0,0,1-.311.311Z" transform="translate(20.464 1.899)"/><path class="a" d="M8,20c.622,0,1.244.311,1.866.311,0-.311-.311-.622-.311-.933-.311-.622-.311-.933-.622-1.555,0-.311-.311-.311-.311-.622C8.311,18.133,8.311,19.066,8,20Z" transform="translate(16.877 36.286)"/><path class="a" d="M25.4,1.3h0a1.142,1.142,0,0,1,.933.311A1.142,1.142,0,0,0,25.4,1.3Z" transform="translate(53.586 2.743)"/><path class="a" d="M27.832,20.777A7.822,7.822,0,0,0,31.563,18.6l-7.463.933C25.344,20.466,26.588,21.088,27.832,20.777Z" transform="translate(50.843 39.24)"/><path class="a" d="M8.5,17.355c0,.311.311.622.311,1.244.311.622.311,1.555.622,2.177s.311.933.622,1.244c0,.622.311.933.622,1.555a3.944,3.944,0,0,1,1.866.311c0-.311-.311-.622-.311-.933-.311-.622-.311-.933-.622-1.555a5.765,5.765,0,0,1-.622-2.177c-.311-.622-.311-1.244-.622-1.555A4.42,4.42,0,0,1,9.744,15.8H9.122A2.375,2.375,0,0,0,8.5,17.355Z" transform="translate(17.932 33.333)"/><path class="a" d="M9.6,19c.311.311.311.622.622.933s.622.622.622.933c.311.311.622.933.933,1.244a2.8,2.8,0,0,1,1.555.311l-.311-.311a1.616,1.616,0,0,1-.622-1.244c-.311-.622-.622-.933-.933-1.555h0C10.533,19.311,9.911,19.311,9.6,19Z" transform="translate(20.253 40.084)"/><path class="a" d="M26.988,1.8h-.622a3.944,3.944,0,0,0-1.866.311c1.555.311,3.421.311,4.975.622A4.135,4.135,0,0,0,26.988,1.8Z" transform="translate(51.687 3.797)"/><path class="a" d="M25.8,1.4c.311,0,.311.311.622.311A.963.963,0,0,0,25.8,1.4Z" transform="translate(54.43 2.954)"/><path class="a" d="M12.866,1.441h0A13.525,13.525,0,0,0,11,3.618V4.24a123.045,123.045,0,0,1,21.146-.933h0A9.45,9.45,0,0,0,33.7,1.13L34.012.82A96.828,96.828,0,0,0,12.866,1.441Z" transform="translate(23.206 1.046)"/><path class="a" d="M25.4,20.011a1.142,1.142,0,0,0,.933-.311,1.142,1.142,0,0,1-.933.311Z" transform="translate(53.586 41.561)"/><path class="a" d="M26.422,19.6c-.311,0-.311.311-.622.311A1.086,1.086,0,0,1,26.422,19.6Z" transform="translate(54.43 41.35)"/><path class="a" d="M12.4,3.041h0c-.622,1.244-.933,2.177-1.555,3.421v.311A11.14,11.14,0,0,0,9.6,10.194v.933c7.463-.622,14.3-.933,21.146-.933V9.883A11.14,11.14,0,0,1,31.99,6.462V6.151a32.263,32.263,0,0,1,1.244-3.11h0a1.086,1.086,0,0,1,.311-.622A97.362,97.362,0,0,0,12.4,3.041Z" transform="translate(20.253 4.422)"/><path class="a" d="M15.84,2.555a2.357,2.357,0,0,0,.622-1.244L16.773,1l-5.6.933h-.311A8.239,8.239,0,0,0,6.2,5.043c3.11-.622,6.219-.933,9.018-1.244C15.529,3.177,15.529,2.866,15.84,2.555Z" transform="translate(13.08 2.11)"/><path class="a" d="M10.522,15.151v1.244h0a16.428,16.428,0,0,1-.311,4.043H27V16.395c0-1.555.311-2.8.311-4.354v-.622c.311-1.244.311-2.8.622-4.043V6.755c0-.622.311-.933.311-1.555-5.908,0-11.817.311-18.347.933v9.018Z" transform="translate(20.886 10.97)"/><path class="a" d="M8.658,10.485h1.555V9.863c.311-1.244.622-2.177.933-3.421V6.132a13,13,0,0,1,1.244-3.11V2.711A.3.3,0,0,1,12.7,2.4a3.944,3.944,0,0,0-1.866.311h0a5.765,5.765,0,0,1-.622,2.177C9.9,5.2,9.9,5.51,9.591,6.132S9.28,7.686,8.969,8.619c0,.311-.311.933-.311,1.244-.311.311-.311.622,0,.622Z" transform="translate(17.774 5.063)"/><path class="a" d="M14.018,9.441c.311-.622.311-1.244.622-1.555a19.817,19.817,0,0,1,.622-2.177c.311-.622.311-.933.622-1.555s.311-.933.622-1.555c-2.488.311-5.286.933-8.4,1.244l-1.244.311A33.92,33.92,0,0,0,5,7.575a4.836,4.836,0,0,1,1.866,2.488h7.152S14.018,9.752,14.018,9.441Z" transform="translate(10.548 5.485)"/><path class="a" d="M9.922,17.355c.311.622.311,1.244.622,1.555.311.622.311,1.555.622,2.177s.311.933.622,1.555c.311.311.311.622.622,1.244a170.593,170.593,0,0,0,21.146,1.244h0a13,13,0,0,1-1.244-3.11v-.311a23.621,23.621,0,0,0-1.244-3.421c0-.311,0-.311-.311-.622a1.142,1.142,0,0,0-.311-.933c-6.841,0-13.372-.311-21.146-.933A2.01,2.01,0,0,1,9.922,17.355Z" transform="translate(19.62 33.333)"/><path class="a" d="M34.739,15.6c-4.354.311-8.4.622-12.439.933A20.954,20.954,0,0,0,26.032,24c3.732-.311,7.463-.933,11.506-1.555.311-.622.622-.933.933-1.555H31.007V16.222h6.53V15.6h-2.8Z" transform="translate(47.046 32.911)"/><path class="a" d="M31.4,5.922c-4.354-.311-8.4-.311-12.439-.622v.311c0,.311-.311.933-.311,1.244A2.351,2.351,0,0,1,18.344,8.1c0,.311-.311.622-.311,1.244a1.87,1.87,0,0,1-.311,1.244,2.351,2.351,0,0,1-.311,1.244,1.87,1.87,0,0,1-.311,1.244v7.463H29.539A52.116,52.116,0,0,1,31.4,5.922Z" transform="translate(36.076 11.181)"/><path class="a" d="M30.239,15.9c-4.354.311-8.4.311-12.439.622v.311c0,.311.311.622.311,1.244,0,.311.311.622.311.933s.311.622.311.933.311.622.311.933.311.622.311.933.311.622.311.933.311.622.311.933a1.086,1.086,0,0,0,.311.622c0,.311.311.311.311.622q6.064-.466,13.061-.933A39.5,39.5,0,0,1,30.239,15.9Z" transform="translate(37.552 33.544)"/><path class="a" d="M28.044,14.6H26.8v.622h1.555V14.6Z" transform="translate(56.539 30.801)"/><path class="a" d="M32.572,19.1c-4.665.622-9.018.933-13.372,1.244l.311.311.622.622c0,.311.311.311.311.622l.622.622a.3.3,0,0,0,.311.311l.311.311c4.665-.311,9.64-.933,15.548-1.866a6.718,6.718,0,0,1-4.354-1.866Z" transform="translate(40.506 40.295)"/><path class="a" d="M28.322,16.433h.622c0-.311.311-.622.311-.933H27.7v.622h.622Z" transform="translate(58.438 32.7)"/><path class="a" d="M28.911,17.433h0c0,.311-.311.311-.311.622a4.314,4.314,0,0,1,2.177,3.732h1.555a6.019,6.019,0,0,0-3.11-5.286,1.142,1.142,0,0,1-.311.933Z" transform="translate(60.337 34.81)"/><path class="a" d="M30.575,17.855V16.3H25.6v1.555h4.975Z" transform="translate(54.008 34.388)"/><path class="a" d="M31.094,24.483A61.306,61.306,0,0,1,29.539,10.8H17.1v7.463a1.87,1.87,0,0,0,.311,1.244,2.351,2.351,0,0,0,.311,1.244,1.87,1.87,0,0,0,.311,1.244,1.142,1.142,0,0,0,.311.933,1.87,1.87,0,0,0,.311,1.244v.622A84.135,84.135,0,0,0,31.094,24.483Z" transform="translate(36.076 22.785)"/><path class="a" d="M42.746,7.366C35.594,6.433,29.374,5.811,23.466,5.5A49.859,49.859,0,0,0,21.6,19.8H44.612A40.1,40.1,0,0,0,42.746,7.366Z" transform="translate(45.569 11.603)"/><path class="a" d="M33.859,3.244C29.195,2.622,24.841,2.311,20.8,2a.3.3,0,0,1-.311.311,1.086,1.086,0,0,1-.311.622c0,.311-.311.622-.311.933s-.311.622-.311.933-.311.622-.311.933-.311.622-.311.933-.311.622-.311.933-.311.622-.311.933S18,9.152,18,9.774v.311c4.043,0,8.085.311,12.439.622A16.626,16.626,0,0,1,33.859,3.244Z" transform="translate(37.974 4.219)"/><path class="a" d="M36.7,4.055c-3.732-.622-6.841-.933-10.262-1.555-1.555,1.555-2.8,4.043-4.043,7.152,5.6.311,11.195.933,18.036,1.866A20.954,20.954,0,0,0,36.7,4.055Z" transform="translate(47.257 5.274)"/><path class="a" d="M10.7,19.2c.311.311.311.933.622,1.244l.933.933c.311.311.622.933.933,1.244a167.6,167.6,0,0,0,21.146.933v-.311a5.578,5.578,0,0,1-1.555-2.177v-.311c0-.311-.311-.311-.311-.622h-2.8C23.139,20.133,17.23,19.822,10.7,19.2Z" transform="translate(22.574 40.506)"/><path class="a" d="M37.958,2.777C31.739,1.844,26.452,1.222,21.477.6l-.311.311c-.311,0-.311.311-.622.311,0,.622-.311.622-.311.933l-.622.622a.3.3,0,0,1-.311.311c4.354.311,8.707.622,13.683,1.244A6.357,6.357,0,0,1,37.958,2.777Z" transform="translate(40.717 1.266)"/><path class="a" d="M21.6,10.9a58.47,58.47,0,0,0,1.555,13.372q6.064-.466,13.061-.933V20.851h7.152A96.6,96.6,0,0,0,44.612,10.9Z" transform="translate(45.569 22.995)"/><path class="a" d="M7.8,21.7h.622c1.555.311,3.11.311,4.665.622a1.086,1.086,0,0,1-.311-.622,1.616,1.616,0,0,1-.622-1.244,2.358,2.358,0,0,1-.622-1.244h0c-.933,0-2.177-.311-3.11-.311C8.111,19.522,8.111,20.766,7.8,21.7Z" transform="translate(16.456 39.873)"/><path class="a" d="M19,24.683V23.439c-.311-1.244-.311-2.488-.622-4.043v-.622a17.731,17.731,0,0,1-.311-4.043V11H16.2v7.463c0,.622,0,.933.311,1.244a1.142,1.142,0,0,0,.311.933,1.87,1.87,0,0,0,.311,1.244,1.142,1.142,0,0,0,.311.933,1.87,1.87,0,0,0,.311,1.244v.311C17.755,24.683,18.377,24.683,19,24.683Z" transform="translate(34.177 23.206)"/><path class="a" d="M21.786,24.5h0c-.622-1.244-.933-2.177-1.555-3.421a.3.3,0,0,0-.311-.311c-.311-.933-.622-2.177-.933-3.421,0-.311,0-.311-.311-.622,0-.311,0-.311-.311-.622H16.5v.622c0,.311.311.622.311.933s.311.622.311.933.311.622.311.933.311.622.311.933.311.622.311.933.311.622.311.933.311.622.311.933.311.622.311.933a.3.3,0,0,0,.311.311Z" transform="translate(34.81 33.966)"/><path class="a" d="M19.644,2.988c.622-.622.933-1.555,1.555-2.177V.5h-.933l-.311.311c-.311,0-.311.311-.622.311a1.362,1.362,0,0,1-.311.933c0,.311-.311.311-.311.622l-.311.311Z" transform="translate(38.818 1.055)"/><path class="a" d="M18.666,9.874h0A17.532,17.532,0,0,1,19.91,6.143V5.832a32.263,32.263,0,0,1,1.244-3.11h0a1.086,1.086,0,0,1,.311-.622H19.91v.311c0,.311-.311.622-.311.933s-.311.622-.311.933-.311.622-.311.933-.311.622-.311.933-.311.622-.311.933-.311.622-.311.933c-.622-.622-.622-.311-.622.311,0,.311-.311.622-.311.933s0,.311-.311.622Z" transform="translate(35.443 4.43)"/><path class="a" d="M18.077,20.226V16.495c0-1.555.311-2.8.311-4.354v-.622c.311-1.244.311-2.8.622-4.043.311,0,.311,0,.311-.311,0-.622.311-1.244.311-1.866H17.766v.311c0,.311-.311.622-.311,1.244,0,.311-.311.622-.311,1.244,0,.311-.311.622-.311,1.244a1.87,1.87,0,0,1-.311,1.244,2.351,2.351,0,0,1-.311,1.244,1.87,1.87,0,0,1-.311,1.244v7.463A6.071,6.071,0,0,1,18.077,20.226Z" transform="translate(33.544 11.181)"/><path class="a" d="M21.832,22.51h0c-.622-.933-1.244-1.555-1.866-2.488h0a1.086,1.086,0,0,1-.311-.622H18.1l.311.311.622.622c0,.311.311.311.311.622l.622.622c0,.311.311.311.622.311l.311.311C21.21,22.821,21.521,22.51,21.832,22.51Z" transform="translate(38.185 40.928)"/><path class="b" d="M7.921,8.8H7.3L8.543,7.241a.669.669,0,0,1,.622-.622V6.308h.622c1.555-1.555,3.11-2.8,4.665-3.11h.311l5.6-.933-.311.311c.622-.622.933-1.555,1.555-1.866L21.914.4c-2.488.311-4.975.933-7.463,1.244h-.933C10.1,2.888,6.677,6.619,4.5,11.906a2.375,2.375,0,0,1,1.555.622A20.7,20.7,0,0,1,7.921,8.8Z" transform="translate(9.494 0.844)"/><path class="b" d="M9.1,2.433c.311-.311.311-.622.622-.933-.311.311-.311.622-.622.933Z" transform="translate(19.198 3.165)"/><path class="b" d="M7.9,5.422c0-.311,0-.311.311-.622a.963.963,0,0,0-.311.622Z" transform="translate(16.666 10.126)"/><path class="b" d="M8.5,4.155c.311-.622.311-.933.622-1.555h0C8.811,3.222,8.811,3.533,8.5,4.155Z" transform="translate(17.932 5.485)"/><path class="b" d="M9,17.9c0,.311.311.622.622,1.244h0C9.311,18.522,9,18.211,9,17.9Z" transform="translate(18.987 37.763)"/><path class="b" d="M12.588.4h0L10.411.711h0A5.292,5.292,0,0,1,12.588.4Z" transform="translate(21.308 0.844)"/><path class="b" d="M9.6,19c.311.311.311.622.622.933-.311,0-.622-.311-.622-.933Z" transform="translate(20.253 40.084)"/><path class="b" d="M8.511,17.822c0-.311,0-.311-.311-.622h0A1.086,1.086,0,0,0,8.511,17.822Z" transform="translate(17.299 36.286)"/><path class="b" d="M10.011,1.6,9.7,1.911h0C10.011,1.911,10.011,1.911,10.011,1.6Z" transform="translate(20.464 3.375)"/><path class="b" d="M8.6,6.088c.311-.933.622-1.555.933-2.488C8.911,4.222,8.911,5.155,8.6,6.088Z" transform="translate(18.143 7.595)"/><path class="b" d="M8.811,18.833c0-.311-.311-.622-.311-.933a1.142,1.142,0,0,0,.311.933Z" transform="translate(17.932 37.763)"/><path class="b" d="M9,4.677c.311-.622.622-1.555.933-2.177C9.622,3.122,9.311,4.055,9,4.677Z" transform="translate(18.987 5.274)"/><path class="b" d="M8.722,3.6A19.817,19.817,0,0,0,8.1,5.777,19.817,19.817,0,0,1,8.722,3.6Z" transform="translate(17.088 7.595)"/><path class="b" d="M12.066,20.911h0c-.622,0-1.244-.311-1.866-.311Z" transform="translate(21.519 43.459)"/><path class="b" d="M11.033.9A4.293,4.293,0,0,0,10.1,2.144c.311-.311.622-.933.933-1.244Z" transform="translate(21.308 1.899)"/><path class="b" d="M10.933,20.944h0c-.311-.311-.622-.933-.933-1.244C10.311,20.011,10.622,20.633,10.933,20.944Z" transform="translate(21.097 41.561)"/><path class="b" d="M9,19c.311.622.622.933.933,1.555A2.841,2.841,0,0,1,9,19Z" transform="translate(18.987 40.084)"/><path class="b" d="M12.875,19.9a1.086,1.086,0,0,1,.311.622c-1.555-.311-3.11-.311-4.665-.622H7.9v1.555h.622c2.177.311,4.354.622,6.219.933l-.311-.622A8.245,8.245,0,0,1,12.875,19.9Z" transform="translate(16.666 41.983)"/><path class="b" d="M9.222,18.877A5.765,5.765,0,0,1,8.6,16.7,5.765,5.765,0,0,0,9.222,18.877Z" transform="translate(18.143 35.232)"/><path class="b" d="M8.611,4.8c0,.311,0,.622-.311.622h0C8.611,5.422,8.611,5.111,8.611,4.8Z" transform="translate(17.51 10.126)"/><path class="b" d="M21.177.1h0Z" transform="translate(40.084 0.211)"/><path class="b" d="M11.4.3Z" transform="translate(24.05 0.633)"/><path class="b" d="M17.711,19.033c0-.311-.311-.622-.311-.933C17.4,18.411,17.711,18.722,17.711,19.033Z" transform="translate(36.708 38.185)"/><path class="b" d="M9.933,3.7C9.622,4.944,9.311,5.877,9,7.121,9.311,5.877,9.622,4.944,9.933,3.7Z" transform="translate(18.987 7.806)"/><path class="b" d="M9.6,7.232A17.531,17.531,0,0,1,10.844,3.5,17.531,17.531,0,0,0,9.6,7.232Z" transform="translate(20.253 7.384)"/><path class="b" d="M9.2,15Z" transform="translate(19.409 31.645)"/><path class="b" d="M11.855.9A13.165,13.165,0,0,0,10.3,3.077,9.45,9.45,0,0,1,11.855.9Z" transform="translate(21.73 1.899)"/><path class="b" d="M10.333,2.7,9.4,5.5Z" transform="translate(19.831 5.696)"/><path class="b" d="M9.711,4.7c0,.311,0,.311-.311.622h0C9.711,5.322,9.711,5.011,9.711,4.7Z" transform="translate(19.831 9.915)"/><path class="b" d="M10,5.51A32.262,32.262,0,0,1,11.244,2.4C10.933,3.333,10.311,4.577,10,5.51Z" transform="translate(21.097 5.063)"/><path class="b" d="M11,2.977c.622-.622,1.244-1.555,1.866-2.177A13.525,13.525,0,0,0,11,2.977Z" transform="translate(23.206 1.688)"/><path class="b" d="M11.158,1.5c-.311,0-.311.311,0,0h0C10.847,1.811,10.847,1.5,11.158,1.5Z" transform="translate(23.048 3.165)"/><path class="b" d="M16.1,9.555v0Z" transform="translate(33.966 16.877)"/><path class="b" d="M17.1,18.8Z" transform="translate(36.076 39.662)"/><path class="b" d="M16.2,8.544A1.87,1.87,0,0,1,16.511,7.3,1.87,1.87,0,0,0,16.2,8.544Z" transform="translate(34.177 15.401)"/><path class="b" d="M9,16.4c.311.622.311,1.244.622,1.555C9.311,17.333,9.311,16.711,9,16.4Z" transform="translate(18.987 34.599)"/><path class="b" d="M10.1,19.1Z" transform="translate(21.308 40.295)"/><path class="b" d="M9.4,17.6c.311.622.311.933.622,1.555C10.022,18.533,9.711,18.222,9.4,17.6Z" transform="translate(19.831 37.13)"/><path class="b" d="M16,10.766v0Z" transform="translate(33.755 18.776)"/><path class="b" d="M10.4,19.7a1.616,1.616,0,0,1,.622,1.244A1.616,1.616,0,0,0,10.4,19.7Z" transform="translate(21.941 41.561)"/><path class="b" d="M11.3,20.7Z" transform="translate(23.839 43.67)"/><path class="b" d="M17.011,17.233c0-.311-.311-.622-.311-.933A1.142,1.142,0,0,1,17.011,17.233Z" transform="translate(35.232 34.388)"/><path class="b" d="M16.711,16.044c0-.311-.311-.933-.311-1.244C16.4,15.422,16.711,15.733,16.711,16.044Z" transform="translate(34.599 31.223)"/><path class="b" d="M17.211,17.933c0-.311-.311-.622-.311-.933C17.211,17,17.211,17.622,17.211,17.933Z" transform="translate(35.654 35.865)"/><path class="b" d="M17.511,18.533c0-.311-.311-.622-.311-.933A1.142,1.142,0,0,0,17.511,18.533Z" transform="translate(36.287 37.13)"/><path class="b" d="M16.511,15.344A1.87,1.87,0,0,0,16.2,14.1,1.87,1.87,0,0,1,16.511,15.344Z" transform="translate(34.177 29.746)"/><path class="b" d="M18.822,20.222,18.2,19.6C18.511,19.911,18.511,20.222,18.822,20.222Z" transform="translate(38.396 41.35)"/><path class="b" d="M9,5Z" transform="translate(18.987 10.548)"/><path class="b" d="M16.411,14.544A1.87,1.87,0,0,0,16.1,13.3,1.87,1.87,0,0,1,16.411,14.544Z" transform="translate(33.966 28.059)"/><path class="b" d="M16.1,14.055v0Z" transform="translate(33.966 26.371)"/><path class="b" d="M17.7,1.3Z" transform="translate(37.341 2.743)"/><path class="b" d="M11.6,2.4a120.04,120.04,0,0,1,20.835-.622l-.311.311L33.679.537,33.99.226A118.412,118.412,0,0,0,13.155.848L11.6,2.4Z" transform="translate(24.472 0.085)"/><path class="b" d="M16.3,4.811v0Z" transform="translate(34.388 9.494)"/><path class="b" d="M9.8,2.811c0-.311,0-.311.311-.311h0C9.8,2.5,9.8,2.5,9.8,2.811Z" transform="translate(20.675 5.274)"/><path class="b" d="M19.122,20.622,18.5,20Z" transform="translate(39.029 42.194)"/><path class="b" d="M18.9,21.094h2.177a5.08,5.08,0,0,0-2.177,0Z" transform="translate(39.873 44.209)"/><path class="b" d="M16.3,7.744A1.87,1.87,0,0,1,16.611,6.5,2.351,2.351,0,0,0,16.3,7.744Z" transform="translate(34.388 13.713)"/><path class="b" d="M32.335,20.822h0A95.547,95.547,0,0,1,11.5,20.2v.311l1.555,1.555a110.137,110.137,0,0,0,13.994.622,50.383,50.383,0,0,0,6.841-.311l-.311-.311C33.268,22.066,32.957,21.444,32.335,20.822Z" transform="translate(24.261 42.616)"/><path class="b" d="M15.5,8.9v0Z" transform="translate(32.7 18.776)"/><path class="b" d="M16.4,7.044A1.87,1.87,0,0,1,16.711,5.8C16.711,6.111,16.4,6.422,16.4,7.044Z" transform="translate(34.599 12.236)"/><path class="b" d="M18.611,1.2l-.311.311h0A.3.3,0,0,0,18.611,1.2Z" transform="translate(38.607 2.532)"/><path class="b" d="M15.7,7.3v0Z" transform="translate(33.122 15.401)"/><path class="b" d="M16.7,3.3v0Z" transform="translate(35.232 6.962)"/><path class="b" d="M16,13.466v0Z" transform="translate(33.755 24.472)"/><path class="b" d="M15.5,12v0Z" transform="translate(32.7 25.316)"/><path class="b" d="M15.9,15v0Z" transform="translate(33.544 31.645)"/><path class="b" d="M15.7,13.5v0Z" transform="translate(33.122 28.481)"/><path class="b" d="M17.7,18.7a.3.3,0,0,0,.311.311h0A.3.3,0,0,1,17.7,18.7Z" transform="translate(37.341 39.451)"/><path class="b" d="M19.211.6,18.9.911,19.211.6Z" transform="translate(39.873 1.266)"/><path class="b" d="M18.8,20.3l.311.311h0Z" transform="translate(39.662 42.826)"/><path class="b" d="M16,10.9v0Z" transform="translate(33.755 22.995)"/><path class="b" d="M17.2,2.2Z" transform="translate(36.287 4.641)"/><path class="b" d="M17.111,4.4c0,.311,0,.311-.311.622h0C16.8,4.711,16.8,4.711,17.111,4.4Z" transform="translate(35.443 9.283)"/><path class="b" d="M16,9.7v1.244h0Z" transform="translate(33.755 20.464)"/><path class="b" d="M16.6,5.3Z" transform="translate(35.021 11.181)"/><path class="b" d="M16.094,5.8v.622C15.783,6.422,16.094,6.111,16.094,5.8Z" transform="translate(33.661 12.236)"/><path class="b" d="M17.2,4.033c0-.311.311-.622.311-.933C17.511,3.411,17.2,3.722,17.2,4.033Z" transform="translate(36.287 6.54)"/><path class="b" d="M16.2,16.4c0,.311,0,.311.311.622C16.511,16.711,16.511,16.4,16.2,16.4Z" transform="translate(34.177 34.599)"/><path class="b" d="M16.6,17.6v.311C16.911,17.911,16.911,17.911,16.6,17.6Z" transform="translate(35.021 37.13)"/><path class="b" d="M17.7,2.933c0-.311.311-.622.311-.933C18.011,2.311,17.7,2.622,17.7,2.933Z" transform="translate(37.341 4.219)"/><path class="b" d="M17.4,3.433c0-.311.311-.622.311-.933C17.711,3.122,17.711,3.433,17.4,3.433Z" transform="translate(36.708 5.274)"/><path class="b" d="M17,4.733c0-.311.311-.622.311-.933C17,3.8,17,4.111,17,4.733Z" transform="translate(35.865 8.017)"/><path class="b" d="M17.6,19.7Z" transform="translate(37.13 41.561)"/><path class="b" d="M10.622,19.155c-.311-.622-.311-.933-.622-1.555A5.254,5.254,0,0,0,10.622,19.155Z" transform="translate(21.097 37.13)"/><path class="b" d="M10.122,17.955c-.311-.622-.311-1.244-.622-1.555A2.375,2.375,0,0,1,10.122,17.955Z" transform="translate(20.042 34.599)"/><path class="b" d="M11.833,20.533,10.9,19.6Z" transform="translate(22.996 41.35)"/><path class="b" d="M18.6,1.422,19.222.8Z" transform="translate(39.24 1.688)"/><path class="b" d="M17.3,8.244A2.351,2.351,0,0,1,17.611,7C17.3,7.311,17.3,7.622,17.3,8.244Z" transform="translate(36.497 14.768)"/><path class="b" d="M17.1,10.122v0Z" transform="translate(36.076 20.042)"/><path class="b" d="M17.6,6.744c0-.311.311-.933.311-1.244C17.6,5.811,17.6,6.122,17.6,6.744Z" transform="translate(37.13 11.603)"/><path class="b" d="M17.1,9.533v0Z" transform="translate(36.076 18.143)"/><path class="b" d="M17.2,8.944v0Z" transform="translate(36.287 16.245)"/><path class="b" d="M17.9,5.344A1.87,1.87,0,0,0,18.211,4.1,1.87,1.87,0,0,1,17.9,5.344Z" transform="translate(37.763 8.65)"/><path class="b" d="M17.4,7.444A1.87,1.87,0,0,1,17.711,6.2C17.711,6.511,17.4,7.133,17.4,7.444Z" transform="translate(36.708 13.08)"/><path class="b" d="M18.1,4.433c0-.311.311-.622.311-.933A1.142,1.142,0,0,1,18.1,4.433Z" transform="translate(38.185 7.384)"/><path class="b" d="M19.111,2a.3.3,0,0,1-.311.311c.311,0,.311,0,.311-.311Z" transform="translate(39.662 4.219)"/><path class="b" d="M19.4,1.722l.622-.622C19.711,1.1,19.711,1.411,19.4,1.722Z" transform="translate(40.928 2.321)"/><path class="b" d="M19.7,1.111C20.011.8,20.011.8,20.322.8,20.011.8,20.011,1.111,19.7,1.111Z" transform="translate(41.561 1.688)"/><path class="b" d="M18.4,3.833c0-.311.311-.622.311-.933A1.142,1.142,0,0,0,18.4,3.833Z" transform="translate(38.818 6.118)"/><path class="b" d="M18.6,3.333c0-.311.311-.622.311-.933C18.911,2.711,18.6,3.022,18.6,3.333Z" transform="translate(39.24 5.063)"/><path class="b" d="M17.358,13.133V12.2A.583.583,0,0,0,17.358,13.133Z" transform="translate(36.128 25.738)"/><path class="b" d="M19.711,20.322c0-.311-.311-.311-.311-.622A1.086,1.086,0,0,0,19.711,20.322Z" transform="translate(40.928 41.561)"/><path class="b" d="M18.911,19.022A1.086,1.086,0,0,0,18.6,18.4.963.963,0,0,0,18.911,19.022Z" transform="translate(39.24 38.818)"/><path class="b" d="M18.611,18.733c0-.311-.311-.622-.311-.933C18.3,18.111,18.611,18.422,18.611,18.733Z" transform="translate(38.607 37.552)"/><path class="b" d="M19.9.1Z" transform="translate(41.983 0.211)"/><path class="b" d="M20.011,20.511A.3.3,0,0,1,19.7,20.2.3.3,0,0,1,20.011,20.511Z" transform="translate(41.561 42.616)"/><path class="b" d="M18.411,18.133c0-.311-.311-.622-.311-.933C18.1,17.511,18.411,17.822,18.411,18.133Z" transform="translate(38.185 36.286)"/><path class="b" d="M17.2,13.933v0Z" transform="translate(36.287 27.426)"/><path class="b" d="M17.1,12.233v0Z" transform="translate(36.076 23.839)"/><path class="b" d="M17.5,15.2v.622h0C17.811,15.511,17.811,15.2,17.5,15.2Z" transform="translate(36.919 32.067)"/><path class="b" d="M18.211,17.533c0-.311-.311-.622-.311-.933C17.9,16.911,18.211,17.222,18.211,17.533Z" transform="translate(37.763 35.021)"/><path class="b" d="M17.511,14.944A2.351,2.351,0,0,0,17.2,13.7C17.511,14.011,17.511,14.322,17.511,14.944Z" transform="translate(36.287 28.903)"/><path class="b" d="M17.711,15.433A1.142,1.142,0,0,0,17.4,14.5,1.142,1.142,0,0,0,17.711,15.433Z" transform="translate(36.708 30.59)"/><path class="b" d="M17.011,7.6a19.123,19.123,0,0,0-.311,4.354A19.124,19.124,0,0,1,17.011,7.6Z" transform="translate(35.232 16.034)"/><path class="b" d="M18.2,18.8Z" transform="translate(38.396 39.662)"/><path class="b" d="M17.3,16.722V16.1h0Z" transform="translate(36.497 33.966)"/><path class="b" d="M17.311,15.822c0-.311,0-.622-.311-.622a1.086,1.086,0,0,1,.311.622Z" transform="translate(35.865 32.067)"/><path class="b" d="M18.911,20.022A1.086,1.086,0,0,1,18.6,19.4h0A1.086,1.086,0,0,0,18.911,20.022Z" transform="translate(39.24 40.928)"/><path class="b" d="M17.8,17.7a32.262,32.262,0,0,0,1.244,3.11A9.312,9.312,0,0,1,17.8,17.7Z" transform="translate(37.552 37.341)"/><path class="b" d="M17.4,16.5c.311,1.244.622,2.177.933,3.421C18.022,18.677,17.711,17.744,17.4,16.5Z" transform="translate(36.708 34.81)"/><path class="b" d="M18.7,19.7a13.164,13.164,0,0,0,1.555,2.177A9.45,9.45,0,0,0,18.7,19.7Z" transform="translate(39.451 41.561)"/><path class="b" d="M16.6,14.321V10.9h0Z" transform="translate(35.021 22.995)"/><path class="b" d="M17.8,16.1v0Z" transform="translate(37.552 33.966)"/><path class="b" d="M18.2,2.722a1.086,1.086,0,0,1,.311-.622h0A.963.963,0,0,1,18.2,2.722Z" transform="translate(38.396 4.43)"/><path class="b" d="M18.8,2.777c.622-.622.933-1.555,1.555-2.177-.622.622-.933,1.555-1.555,2.177Z" transform="translate(39.662 1.266)"/><path class="b" d="M17,7.166c0-.622.311-1.244.311-1.866h0A3.944,3.944,0,0,1,17,7.166Z" transform="translate(35.865 11.181)"/><path class="b" d="M16.6,12.421v0Z" transform="translate(35.021 18.987)"/><path class="b" d="M44.256,18h.933l-.933,1.555c0,.311-.311.311-.311.622l-.311.622H42.7a10.383,10.383,0,0,1-4.043,3.421c-.311,0-.311.311-.622.311h-.311c-.311,0-.622.311-.933.311H35.548c-6.219.933-11.195,1.555-15.548,1.866l.311.311,1.555,1.244c4.043-.311,8.707-.933,14.3-1.555h1.244c3.421-.622,6.841-3.732,9.018-8.707-.311-.311-.622-.311-1.244-.311C44.877,17.376,44.566,17.687,44.256,18Z" transform="translate(42.194 37.043)"/><path class="b" d="M28.7,15.6v1.244c.311,0,.622.311.933.311.311-.622.311-.933.622-1.555Z" transform="translate(60.548 32.911)"/><path class="b" d="M29.258,14.6Z" transform="translate(61.233 30.801)"/><path class="b" d="M20,1.444c4.665.311,9.951.933,16.481,1.866h.311a1.142,1.142,0,0,1,.933.311h.311c.311,0,.311,0,.622.311a8.819,8.819,0,0,1,3.421,2.488h.311l.311.311c0,.311.311.311.311.622l1.244,1.555h-.311a41.5,41.5,0,0,1,3.421,7.463h.311l.311,2.488h-.311A52.372,52.372,0,0,1,49.231,31.3h.311v2.177h-.311a51.468,51.468,0,0,1-.933,9.951h1.244a61.655,61.655,0,0,0,.933-10.884c0-15.548-6.219-29.231-13.683-30.475C30.884,1.133,25.908.511,21.555.2L20,1.444Z" transform="translate(42.194 0.422)"/><path class="b" d="M29,15.522h.311V14.9Z" transform="translate(61.181 31.434)"/><path class="b" d="M29.011,16.758h0l-.311.622A.963.963,0,0,0,29.011,16.758Z" transform="translate(60.548 34.862)"/><path class="b" d="M28.3,16.8h0c.311.311.622.622.933.622,0-.311.311-.311.311-.622Z" transform="translate(59.704 35.443)"/><path class="b" d="M19.8,20.9h0Z" transform="translate(41.772 44.092)"/><path class="b" d="M16.6,12.1c0,1.555.311,2.8.311,4.043A19.128,19.128,0,0,0,16.6,12.1Z" transform="translate(35.021 25.527)"/><path class="b" d="M16.8,13.7c.311,1.244.311,2.488.622,4.043A21.4,21.4,0,0,1,16.8,13.7Z" transform="translate(35.443 28.903)"/><path class="b" d="M17.422,6.1a15.755,15.755,0,0,0-.622,4.043A15.755,15.755,0,0,1,17.422,6.1Z" transform="translate(35.443 12.869)"/><path class="b" d="M18.544,3.4A23.62,23.62,0,0,1,17.3,6.821,11.14,11.14,0,0,0,18.544,3.4Z" transform="translate(36.497 7.173)"/><path class="b" d="M19.044,2.3A13,13,0,0,0,17.8,5.41C18.111,4.477,18.733,3.233,19.044,2.3Z" transform="translate(37.552 4.852)"/><path class="b" d="M19.2,19.5Z" transform="translate(40.506 41.139)"/><path class="b" d="M11.955,2.312h0A17.359,17.359,0,0,0,10.4,4.8,175.464,175.464,0,0,1,31.857,3.556,13.521,13.521,0,0,1,33.1,1.379h0A124.363,124.363,0,0,0,11.955,2.312Z" transform="translate(21.941 2.663)"/><path class="b" d="M30.952,2.522c-1.555-.311-3.421-.311-4.975-.622a6.8,6.8,0,0,0-1.555.933c-.311.311-.622.622-.622.933,3.11.311,6.53.933,10.262,1.555A22.687,22.687,0,0,0,30.952,2.522Z" transform="translate(50.21 4.008)"/><path class="b" d="M32.172,4.721c.622-.622.933-1.244,1.555-1.866a.3.3,0,0,0,.311-.311A111.7,111.7,0,0,0,20.355,1.3,13.165,13.165,0,0,0,18.8,3.477h0C23.465,3.788,27.507,4.1,32.172,4.721Z" transform="translate(39.662 2.743)"/><path class="b" d="M15.662,4.288h0c.311-.933.933-1.555,1.244-2.488h0c-2.8.622-5.908.933-9.018,1.555H7.266v.311a.669.669,0,0,0-.622.622L5.4,5.843h.622l1.244-.311C10.375,5.221,13.174,4.6,15.662,4.288Z" transform="translate(11.392 3.797)"/><path class="b" d="M11.166,4.088c.311-.933.933-1.555,1.244-2.488a2.8,2.8,0,0,0-1.555.311h0A10.909,10.909,0,0,0,9.3,4.4a3.944,3.944,0,0,0,1.866-.311Z" transform="translate(19.62 3.375)"/><path class="b" d="M29.277,4.788,28.033,3.233c0-.311-.311-.311-.311-.622L27.411,2.3H27.1a17.249,17.249,0,0,1,1.866,2.488Z" transform="translate(57.172 4.852)"/><path class="b" d="M19.455,3.477c.311-.622.933-1.555,1.244-2.177H19.144A13.522,13.522,0,0,0,17.9,3.477Z" transform="translate(37.763 2.743)"/><path class="b" d="M9.5,5.533h0l1.866.311V7.71c6.53-.622,12.439-.933,18.347-.933A19.818,19.818,0,0,1,30.335,4.6h0C23.8,4.6,16.963,4.911,9.5,5.533Z" transform="translate(20.042 9.705)"/><path class="b" d="M40.858,6.666C34.328,6.044,28.419,5.422,22.822,4.8A5.765,5.765,0,0,0,22.2,6.977c5.908.311,12.128.933,19.28,1.866A5.765,5.765,0,0,0,40.858,6.666Z" transform="translate(46.835 10.126)"/><path class="b" d="M30.761,5.222c-4.354-.311-8.4-.622-12.439-.622-.311.622-.311,1.555-.622,2.177,4.043,0,8.085.311,12.439.622A5.765,5.765,0,0,0,30.761,5.222Z" transform="translate(37.341 9.705)"/><path class="b" d="M18.466,6.777h0c.311-.622.311-1.555.622-2.177H17.222c-.311.622-.311,1.555-.622,2.177h1.866Z" transform="translate(35.021 9.705)"/><path class="b" d="M8.5,5h0Z" transform="translate(17.932 10.548)"/><path class="b" d="M29.633,7.677,29.011,5.5H28.7a15.16,15.16,0,0,1,.933,2.177Z" transform="translate(60.548 11.603)"/><path class="b" d="M10,12.377H27.1V10.2H10.311A4.611,4.611,0,0,0,10,12.377Z" transform="translate(21.097 21.519)"/><path class="b" d="M29.539,11.344V10.1H17.1v2.177H29.539Z" transform="translate(36.076 21.308)"/><path class="b" d="M17.866,12.377h0V10.2H16v2.177h1.866Z" transform="translate(33.755 21.519)"/><path class="b" d="M44.612,11.344V10.1H21.6v2.177H44.612Z" transform="translate(45.569 21.308)"/><path class="b" d="M29.5,12.377h.311V10.2H29.5v2.177Z" transform="translate(62.236 21.519)"/><path class="b" d="M26.8,14.8v.933h1.555V14.8Z" transform="translate(56.539 31.223)"/><path class="b" d="M8.6,16.755h.622c0-.622-.311-.933-.311-1.555A2.33,2.33,0,0,1,8.6,16.755Z" transform="translate(18.143 32.067)"/><path class="b" d="M22.722,18.01c4.043-.311,8.085-.622,12.439-.933h0V14.9c-4.665.311-8.707.622-13.061.933A5.765,5.765,0,0,1,22.722,18.01Z" transform="translate(46.624 31.434)"/><path class="b" d="M30.661,17.377c-.311-.622-.311-1.555-.622-2.177-4.354.311-8.4.311-12.439.311h0c.311.622.311,1.555.622,2.177h0A84.136,84.136,0,0,0,30.661,17.377Z" transform="translate(37.13 32.067)"/><path class="b" d="M9.2,15.1a19.819,19.819,0,0,0,.622,2.177c7.463.622,14.3.933,21.146.933-.311-.622-.311-1.555-.622-2.177-6.841,0-13.372-.311-21.146-.933Z" transform="translate(19.409 31.856)"/><path class="b" d="M18.988,17.577c-.311-.622-.311-1.555-.622-2.177H16.5c.311.622.311,1.555.622,2.177Z" transform="translate(34.81 32.489)"/><path class="b" d="M29.522,14.6h0c-.311.622-.622.933-.622,1.555h.311l.311-.622Z" transform="translate(60.97 30.801)"/><path class="b" d="M10.3,18.4c.311.933.933,1.555,1.244,2.488,6.53.622,12.439.933,18.347.933h2.8c-.311-.622-.933-1.555-1.244-2.177h0A170.591,170.591,0,0,1,10.3,18.4Z" transform="translate(21.73 38.818)"/><path class="b" d="M25.366,21.321c2.488-.311,4.665-.622,7.463-.933A17.776,17.776,0,0,0,35.006,17.9c-4.043.622-7.774,1.244-11.506,1.555a3.747,3.747,0,0,0,1.555,1.555A.3.3,0,0,1,25.366,21.321Z" transform="translate(49.577 37.763)"/><path class="b" d="M33.416,20.577A5.578,5.578,0,0,1,31.861,18.4a95.61,95.61,0,0,1-13.061.933,13.521,13.521,0,0,0,1.244,2.177h0A103.737,103.737,0,0,0,33.416,20.577Z" transform="translate(39.662 38.818)"/><path class="b" d="M8.211,18.1c0,.622-.311,1.555-.311,2.177.933,0,2.177.311,3.11.311A18.334,18.334,0,0,0,9.766,18.1h0A1.388,1.388,0,0,1,8.211,18.1Z" transform="translate(16.666 38.185)"/><path class="b" d="M9.2,18.3c.311.933.933,1.555,1.244,2.488h0A2.33,2.33,0,0,1,12,21.1h0a18.464,18.464,0,0,1-1.244-2.488A2.8,2.8,0,0,0,9.2,18.3Z" transform="translate(19.409 38.607)"/><path class="b" d="M27.922,20.4h.311l.311-.622c0-.311.311-.311.311-.622l.933-1.555h-.933A17.358,17.358,0,0,1,27.3,20.088C27.611,20.4,27.611,20.4,27.922,20.4Z" transform="translate(57.594 37.13)"/><path class="b" d="M20.5,20.977c-.311-.622-.933-1.555-1.244-2.177H17.7a13.521,13.521,0,0,0,1.244,2.177Z" transform="translate(37.341 39.662)"/><path class="b" d="M28.2,16.433V15.5h0v.933Z" transform="translate(59.493 32.7)"/><path class="b" d="M28.958,15.6Z" transform="translate(60.601 32.911)"/><path class="b" d="M27.894,17.011H29.76V16.7H27.894Z" transform="translate(58.555 35.232)"/><path class="b" d="M30.055,14.6h-.933v1.555h.622c0-.622.311-.933.311-1.555Z" transform="translate(60.126 30.801)"/><path class="b" d="M37.892,55.362a7.822,7.822,0,0,1-3.732,2.177,4.451,4.451,0,0,1-3.421-.933c-.311,0-.311-.311-.622-.311-.622-.311-.933-.933-1.555-1.555a20.954,20.954,0,0,1-3.732-7.463c-.311-.622-.311-1.555-.622-2.177a60.636,60.636,0,0,1-1.555-13.372V29.552a49.859,49.859,0,0,1,1.866-14.3c.311-.622.311-1.555.622-2.177a17.313,17.313,0,0,1,4.043-7.152c.311-.311.622-.622.622-.933a2.841,2.841,0,0,1,1.555-.933,3.944,3.944,0,0,1,1.866-.311h.622a5.588,5.588,0,0,1,2.8,1.244c.933-.311,1.866.622,2.8,1.866a23.964,23.964,0,0,1,3.732,7.463,5.765,5.765,0,0,1,.622,2.177A74.616,74.616,0,0,1,45.666,28.93v2.177a34.939,34.939,0,0,1-1.244,9.951h1.555a51.468,51.468,0,0,0,.933-9.951V28.93a52.373,52.373,0,0,0-1.555-12.439c-.311-.622-.311-1.555-.622-2.177a41.5,41.5,0,0,0-3.421-7.463,17.248,17.248,0,0,0-1.866-2.488,8.819,8.819,0,0,0-3.421-2.488c-.311,0-.311-.311-.622-.311h-.311c-.311,0-.622-.311-.933-.311h0a6.037,6.037,0,0,0-4.975,1.555.3.3,0,0,0-.311.311c-.622.622-1.244.933-1.555,1.866a20.954,20.954,0,0,0-3.732,7.463,5.765,5.765,0,0,0-.622,2.177A51.4,51.4,0,0,0,21.1,28.93v2.177a61.306,61.306,0,0,0,1.555,13.683c.311.622.311,1.555.622,2.177A36.388,36.388,0,0,0,26.7,54.74a9.45,9.45,0,0,1,1.555,2.177c.311,0,.311.311.311.622A6.14,6.14,0,0,0,32.917,59.4h1.244a2.351,2.351,0,0,0,1.244-.311h.311c.311,0,.311-.311.622-.311a10.383,10.383,0,0,0,4.043-3.421,6.771,6.771,0,0,0,1.555-2.488c.311-.311.311-.933.622-1.244H41a6.8,6.8,0,0,1-.933,1.555Z" transform="translate(44.514 2.478)"/><path class="b" d="M13.086,3.732c-.311.311-.311.622-.622.933s-.311.622-.622.933c-.311.933-.933,1.555-1.244,2.488,0,.622-.311.933-.622,1.555-.311.311-.311.933-.622,1.555a19.817,19.817,0,0,0-.622,2.177c-.311.311-.311.933-.622,1.555,0,.311,0,.311-.311.622H9.666c0-.311,0-.622.311-.622,0-.311.311-.933.311-1.244.311-.933.622-1.555.933-2.488,0-.622,0-.933.311-1.244.311-.622.622-1.555.933-2.177h0c.311-.933.933-1.555,1.244-2.488l.311-.311.933-.933c.311-.311.622-.933.933-1.244h0a2.8,2.8,0,0,0,1.555-.311.3.3,0,0,1-.311.311,13.165,13.165,0,0,0-1.555,2.177v.311A7.8,7.8,0,0,0,14.33,7.463l-.311.311v.311a21.441,21.441,0,0,0-1.244,3.11v.311a15.158,15.158,0,0,0-1.244,3.421v.622h1.555v-.311c0-.311,0-.311.311-.622V14.3a23.62,23.62,0,0,1,1.244-3.421v-.311a32.264,32.264,0,0,1,1.244-3.11V7.152A10.909,10.909,0,0,1,17.44,4.665a.3.3,0,0,1,.311-.311V4.043c.622-.622,1.244-1.555,1.866-2.177h0l.311-.311L21.483,0h0L18.995.311h-.311A1.87,1.87,0,0,0,17.44.622c-.622,0-1.555.311-2.177.311h-.311l-.311.311A10.909,10.909,0,0,1,13.086,3.732Z" transform="translate(16.456 0)"/><path class="b" d="M18.251,32.858a4.293,4.293,0,0,1-.933-1.244l-.933-.933c-.311-.311-.311-.622-.622-1.244a18.464,18.464,0,0,1-1.244-2.488c-.311-.311-.311-.622-.622-1.244s-.311-.933-.622-1.555a19.817,19.817,0,0,1-.622-2.177c-.311-.622-.311-1.244-.622-1.555a13.468,13.468,0,0,0-.311-1.555c-.311-.622-.311-1.555-.622-2.177v-.311c0-.622-.311-1.555-.311-2.177,0,.311-.311.933-.311,1.244-.311.622-.311,1.244-.622,1.866,0,.622.311.933.311,1.555,0,.933.311,1.555.311,2.177.311.622.311,1.244.622,1.555a5.765,5.765,0,0,1,.622,2.177c.311.622.311.933.622,1.555,0,.311.311.622.311.933.311.933.933,1.555,1.244,2.488h0A6.8,6.8,0,0,0,14.83,31.3a1.616,1.616,0,0,1,.622,1.244l.311.311a2.8,2.8,0,0,1-1.555-.311h0c-.311-.311-.622-.933-.933-1.244s-.622-.622-.622-.933c-.311-.311-.311-.622-.622-.933a18.464,18.464,0,0,1-1.244-2.488c0-.622-.311-.933-.311-1.244-.311-.311-.311-.933-.622-1.244a5.765,5.765,0,0,1-.622-2.177c0-.311-.311-.622-.311-1.244a9.08,9.08,0,0,0-.622,2.8c0,.311,0,.622.311.622.311.622.311.933.622,1.555,0,.311.311.622.311.933a4.134,4.134,0,0,0,.933,2.177h0c.311.622.622.933.933,1.555a2.358,2.358,0,0,1,.622,1.244c.622.622.933,1.555,1.555,1.866l.311.311h.622a3.944,3.944,0,0,1,1.866.311,3.381,3.381,0,0,1,1.555.311h.622l2.177.311h0l-2.488-2.177Z" transform="translate(17.51 29.957)"/><path class="b" d="M29.072,63.016l-.311-.311a.3.3,0,0,1-.311-.311l-.622-.622c0-.311-.311-.311-.311-.622l-.622-.622-.311-.311c-.311-.622-.933-1.555-1.244-2.177,0-.311-.311-.311-.311-.622a1.086,1.086,0,0,0-.311-.622c0-.311-.311-.622-.311-.933s-.311-.622-.311-.933-.311-.622-.311-.933-.311-.622-.311-.933-.311-.622-.311-.933-.311-.622-.311-.933-.311-.622-.311-1.244v-.311c-.311-.622-.311-1.555-.622-2.177v-.622c0-.311-.311-.933-.311-1.244a1.142,1.142,0,0,0-.311-.933,1.87,1.87,0,0,0-.311-1.244,2.351,2.351,0,0,0-.311-1.244,1.87,1.87,0,0,0-.311-1.244v-17.1a1.87,1.87,0,0,1,.311-1.244,2.351,2.351,0,0,1,.311-1.244A1.87,1.87,0,0,1,21.3,20.1a1.87,1.87,0,0,1,.311-1.244,2.351,2.351,0,0,1,.311-1.244c0-.311.311-.933.311-1.244v-.311c.311-.622.311-1.555.622-2.177v-.311c0-.311,0-.933,0-1.244s.311-.622.311-.933.311-.622.311-.933.311-.622.311-.933.311-.622.311-.933.311-.622.311-.933.311-.622.311-.933a1.086,1.086,0,0,1,.311-.622A.3.3,0,0,1,25.34,5.8a5.578,5.578,0,0,1,1.555-2.177.3.3,0,0,1,.311-.311l.622-.622a.3.3,0,0,0,.311-.311c.311-.311.311-.311.622-.311l.311-.311.311-.311L30.937.2H25.651L25.34.511a3.747,3.747,0,0,0-1.555,1.555A5.578,5.578,0,0,0,22.23,4.243h0a7.794,7.794,0,0,0-1.244,2.177,1.086,1.086,0,0,1-.311.622h0a13,13,0,0,0-1.244,3.11v.311c-.311,1.244-.933,2.177-1.244,3.421v.311c-.311.622-.311,1.555-.622,2.177a1.16,1.16,0,0,0-.933,1.244v.622a15.755,15.755,0,0,0-.622,4.043V22.9a19.123,19.123,0,0,0-.311,4.354v9.951c0,1.555.311,2.8.311,4.354v.622c.311,1.244.311,2.488.622,4.043v1.244c.311.622.311,1.555.622,2.177a1.142,1.142,0,0,0,.311.933c0,.311,0,.311.311.622a15.159,15.159,0,0,0,1.244,3.421v.311a32.262,32.262,0,0,0,1.244,3.11h0a13.521,13.521,0,0,0,1.244,2.177c0,.311.311.311.311.622v.311a13.164,13.164,0,0,0,1.555,2.177l1.555,1.555.311.311h5.286l-1.555-2.177ZM25.34,62.7c-.311,0-.311-.311-.622-.311l-.622-.622c0-.311-.311-.311-.311-.622l-.622-.622-.311-.311c-.311-.622-.933-1.555-1.244-2.177a.3.3,0,0,0-.311-.311c0-.311-.311-.622-.311-.933s-.311-.622-.311-.933-.311-.622-.311-.933-.311-.622-.311-.933-.311-.622-.311-.933-.311-.622-.311-.933-.311-.622-.311-.933-.311-.622-.311-.933v-.622c-.311-.622-.311-1.555-.622-2.177v-.311c0-.311-.311-.933-.311-1.244a1.142,1.142,0,0,0-.311-.933,1.87,1.87,0,0,0-.311-1.244,1.142,1.142,0,0,0-.311-.933,1.87,1.87,0,0,0-.311-1.244v-17.1a1.87,1.87,0,0,1,.311-1.244,2.351,2.351,0,0,1,.311-1.244,1.87,1.87,0,0,1,.311-1.244,2.351,2.351,0,0,1,.311-1.244,1.87,1.87,0,0,1,.311-1.244c0-.311.311-.622.311-1.244v-.311c.311-.622.311-1.555.622-2.177,0-.311,0-.311.311-.622,0-.311.311-.622.311-.933s.311-.622.311-.933.311-.622.311-.933.311-.622.311-.933.311-.622.311-.933.311-.622.311-.933.311-.622.311-.933.311-.622.311-.933V6.108a5.578,5.578,0,0,1,1.555-2.177l.311-.311c0-.311.311-.311.311-.622l.622-.622c.311,0,.311-.311.622-.311l.311-.311h.933v.311a5.578,5.578,0,0,0-1.555,2.177c-.311.622-.933,1.555-1.244,2.177a1.086,1.086,0,0,1-.311.622h0a13,13,0,0,0-1.244,3.11v.311a23.621,23.621,0,0,1-1.244,3.421v.311c-.311.622-.311,1.555-.622,2.177,0,.622-.311,1.244-.311,1.866-.311,0-.311,0-.311.311a15.755,15.755,0,0,0-.622,4.043v.622a19.123,19.123,0,0,0-.311,4.354v9.64c0,1.555.311,2.8.311,4.043v.622c.311,1.244.311,2.488.622,4.043v.622c0,.311,0,.622.311.622.311.622.311,1.555.622,2.177v.622c0,.311,0,.311.311.622.311,1.244.622,2.177.933,3.421a.3.3,0,0,0,.311.311,32.262,32.262,0,0,0,1.244,3.11v.311h0a13.521,13.521,0,0,0,1.244,2.177,1.086,1.086,0,0,1,.311.622h0A13.165,13.165,0,0,0,26.584,62.7v.311h-.933Z" transform="translate(33.122 0.422)"/><path class="b" d="M37.439,16.522c-.311,0-.622-.311-.933-.311v1.555h.311a5.671,5.671,0,0,1,3.11,5.286H38.372a4.314,4.314,0,0,0-2.177-3.732c-.311-.311-.622-.311-1.244-.311h-8.4V17.455H31.53V15.9H25v4.665h9.018c.311,0,.933.311,1.244.311a3.171,3.171,0,0,1,1.555,2.488v1.555h4.665V23.363A6.9,6.9,0,0,0,37.439,16.522Z" transform="translate(52.742 33.544)"/><path class="b" d="M28.322,15.8H27.7v1.555h1.555V16.111h-.311C28.944,15.8,28.633,15.8,28.322,15.8Z" transform="translate(58.438 33.333)"/><path class="b" d="M31.865,14.6H27.2v1.555h4.665Z" transform="translate(57.383 30.801)"/><path class="b" d="M31.865,15.6H30.31v2.177H28.755V15.6H27.2v3.732h4.665V15.6Z" transform="translate(57.383 32.911)"/><path class="b" d="M33.452,14.1H26.3v4.665H36.562V14.1h-3.11ZM34.7,17.21H27.544V15.655h7.463v.933l-.311.622Z" transform="translate(55.485 29.746)"/><path class="b" d="M17.725,45.594v-.622H8.707c0-8.085-1.866-13.372-3.732-18.347C3.11,21.339,1.555,16.674,1.555,8.9H0c0,8.085,1.866,13.061,3.732,18.347A49.939,49.939,0,0,1,7.152,45.905v.622H17.725v-.933Z" transform="translate(0 18.776)"/><path class="b" d="M12.541,39.9a4.611,4.611,0,0,0,.311-2.177c.311-.933.311-1.866.622-2.8h0a9.08,9.08,0,0,0,.622-2.8c.311-.622.311-1.244.622-1.866,0-.311.311-.933.311-1.244.311-.622.311-1.244.622-1.866,0-.311.311-.933.311-1.244a46.1,46.1,0,0,0,2.8-10.884c0-.622.311-1.555.311-2.177,0-1.244.311-2.488.311-4.043h-6.53c0,7.774-1.866,12.439-3.421,17.725A54.27,54.27,0,0,0,5.7,44.872v1.866h6.53V43.317A13.945,13.945,0,0,0,12.541,39.9ZM17.828,9.111A44.052,44.052,0,0,1,15.651,23.1c-.311,1.244-.933,2.488-1.244,3.732a54.27,54.27,0,0,0-3.732,18.347H7.255c0-7.774,1.866-12.75,3.421-17.725A54.27,54.27,0,0,0,14.407,9.111Z" transform="translate(12.025 18.565)"/><path class="b" d="M23.823,5.5H16.048a3.145,3.145,0,0,1-3.421,2.488,2.33,2.33,0,0,1-1.555-.311,6.412,6.412,0,0,1-5.6,3.421A7.021,7.021,0,0,1,.5,8.61v5.6H23.823Z" transform="translate(1.055 11.603)"/><path class="b" d="M24.877,17.128V15.573H1.555V9.665A5.912,5.912,0,0,1,0,5.622V5H0V16.506H24.877Z" transform="translate(0 10.548)"/><path class="b" d="M13.274,6.555V5H5.811v.622a1.142,1.142,0,0,1-.311.933Z" transform="translate(11.603 10.548)"/><path class="b" d="M14.53,16.195V5H8V16.817h6.53ZM9.555,6.555h3.732v8.707H9.555Z" transform="translate(16.877 10.548)"/><path class="b" d="M9.207,8.575A4.42,4.42,0,0,1,9.829,6.71,5.009,5.009,0,0,0,5.475,3.6,4.912,4.912,0,0,0,.5,8.575a4.9,4.9,0,0,0,9.329,2.177A7.911,7.911,0,0,1,9.207,8.575Z" transform="translate(1.055 7.595)"/><path class="b" d="M1.555,13.884A5.8,5.8,0,0,0,6.53,16.061a5.874,5.874,0,0,0,5.6-3.421c-.622,0-.933-.311-1.244-.933a4.69,4.69,0,0,1-4.354,2.8A4.853,4.853,0,0,1,1.555,9.841a4.9,4.9,0,0,1,9.329-2.177c.311-.311.622-.933,1.244-1.244A6.412,6.412,0,0,0,6.53,3,7.277,7.277,0,0,0,0,9.219v.622A5.912,5.912,0,0,0,1.555,13.884Z" transform="translate(0 6.329)"/><path class="b" d="M3.8,6.677A2.126,2.126,0,0,0,5.977,8.854,2.126,2.126,0,0,0,8.154,6.677,2.126,2.126,0,0,0,5.977,4.5,2.126,2.126,0,0,0,3.8,6.677Z" transform="translate(8.017 9.494)"/><path class="b" d="M3.922,5.742A4.42,4.42,0,0,0,3.3,7.608a4.42,4.42,0,0,0,.622,1.866,2.428,2.428,0,0,0,1.244,1.244,2.33,2.33,0,0,0,1.555.311,3.145,3.145,0,0,0,3.421-2.488c0-.311.311-.622.311-.933V6.986A4.836,4.836,0,0,0,8.586,4.5a2.33,2.33,0,0,0-1.555-.311H6.721A1.367,1.367,0,0,0,5.166,4.5,2.428,2.428,0,0,0,3.922,5.742Zm2.8-.311A2.126,2.126,0,0,1,8.9,7.608,2.126,2.126,0,0,1,6.721,9.785,2.126,2.126,0,0,1,4.544,7.608,2.619,2.619,0,0,1,6.721,5.431Z" transform="translate(6.962 8.562)"/></g></svg>