<svg xmlns="http://www.w3.org/2000/svg" viewBox="0 0 132.74 50.647"><defs><style>.a{fill:none;}.b{fill:#009de0;}</style></defs><path class="a" d="M65.4,49.078a2.749,2.749,0,0,0,1.5-.378h.075l-2.78.151A2.62,2.62,0,0,0,65.4,49.078Z" transform="translate(-15.897 -11.886)"/><path class="a" d="M54.582,44.513l.6-8.013c-2.479,2.948-2.254,5.669-.676,8.693Z" transform="translate(-13.19 -8.909)"/><path class="a" d="M66.666,24.362H64.112v-.68l-.451.454.075,1.058h2.028a2.469,2.469,0,0,1,1.653,1.058,1.782,1.782,0,0,1,.15.832c1.5,3.553,5.259,9.827,9.616,8.844a3.858,3.858,0,0,1,2.629-1.209,1.081,1.081,0,0,1,.526.151h.075c1.127-.378,1.953-.6,2.554-.227a2.31,2.31,0,0,1,.9,1.361.911.911,0,0,1-.15.832c-.826,1.285-4.808,1.965-5.634,2.041h0c-2.855,1.285-7.212.6-10.968-5.065l.676,6.5a4.011,4.011,0,0,1,1.352.454,2.572,2.572,0,0,0,1.5.378.529.529,0,0,1,0,1.058,3.8,3.8,0,0,1-1.953-.529,2.571,2.571,0,0,0-1.5-.378,2.749,2.749,0,0,0-1.5.378,3.869,3.869,0,0,1-3.906,0,2.571,2.571,0,0,0-1.5-.378,2.749,2.749,0,0,0-1.5.378,3.8,3.8,0,0,1-1.953.529H56.6a5.768,5.768,0,0,0,.6.832A3.842,3.842,0,0,1,59.53,44.7a1.408,1.408,0,0,1,.15.529l.075.076.15.151h59.722c8.414,0,15.175-6.5,15.175-14.438,0-8.013-6.836-14.438-15.175-14.438H96.415V16.8h-.526v3.1a4.009,4.009,0,0,1-1.2,2.873l.451.907h4.282v.227c.075.076.225.151.3.227q1.8,1.7,4.057,4.309a50.008,50.008,0,0,1,4.883-3.553c.451-.756,1.352-2.117,2.1-2.343h.225l.075-.076c.9-.907,1.578-1.436,2.329-1.436a2.185,2.185,0,0,1,1.5.832.86.86,0,0,1,.225.832c-.15,1.512-3.456,4.006-4.282,4.611a67.938,67.938,0,0,1-6.085,5.594l-.376.378-.075-.076a2.194,2.194,0,0,1-1.953-.151,2.063,2.063,0,0,1-.676-.907,7.86,7.86,0,0,0-1.578-1.285,4.189,4.189,0,0,0-.6-.378V40.69a7.765,7.765,0,0,1,.751.3,2.571,2.571,0,0,0,1.5.378.529.529,0,0,1,0,1.058A3.8,3.8,0,0,1,99.8,41.9a2.572,2.572,0,0,0-1.5-.378,2.749,2.749,0,0,0-1.5.378,3.869,3.869,0,0,1-3.906,0,2.571,2.571,0,0,0-1.5-.378,2.749,2.749,0,0,0-1.5.378,3.869,3.869,0,0,1-3.906,0,2.571,2.571,0,0,0-1.5-.378.529.529,0,0,1,0-1.058,3.8,3.8,0,0,1,1.953.529h0V30.107a4.17,4.17,0,0,0-.6.454A9.659,9.659,0,0,0,84.095,32a2.062,2.062,0,0,1-.676.907,2.127,2.127,0,0,1-2.028.151l-.075.076-.6-.378a82.026,82.026,0,0,1-6.085-5.594c-.6-.454-4.132-3.024-4.282-4.611a1.221,1.221,0,0,1,.225-.832,1.93,1.93,0,0,1,1.5-.832h.075c.751,0,1.352.6,2.254,1.436l.075.076a1.856,1.856,0,0,1,.6.076,3.956,3.956,0,0,1,1.878,2.343,43.451,43.451,0,0,1,4.808,3.477q2.254-2.608,4.057-4.309a1.209,1.209,0,0,1,.526-.3H89.5v-.529a3.986,3.986,0,0,1-1.653-3.25V16.5H66.441a4.305,4.305,0,0,1,.225,1.361Zm44.472,10.205a2.841,2.841,0,0,1,1.653.529,1.652,1.652,0,0,0,2.1,0,2.845,2.845,0,0,1,3.305,0,1.652,1.652,0,0,0,2.1,0,2.845,2.845,0,0,1,3.305,0,1.481,1.481,0,0,0,1.052.378.529.529,0,0,1,0,1.058A2.841,2.841,0,0,1,123.008,36a1.652,1.652,0,0,0-2.1,0,2.845,2.845,0,0,1-3.305,0,1.652,1.652,0,0,0-2.1,0,2.845,2.845,0,0,1-3.305,0,1.481,1.481,0,0,0-1.052-.378.529.529,0,0,1,0-1.058Z" transform="translate(-14.006 -4.027)"/><path class="a" d="M106.876,49.151A3.893,3.893,0,0,0,107.928,49l-1.728.076A1.658,1.658,0,0,0,106.876,49.151Z" transform="translate(-26.345 -11.96)"/><path class="a" d="M41.386,34.591a11.754,11.754,0,0,1,4.733-8.769,5.309,5.309,0,0,1,1.2-.529h2.254l.075-.529h-3v-.907c0-2.192,0-5.065.9-7.257H34.175C25.761,16.524,19,23.025,19,30.962,19,38.975,25.836,45.4,34.175,45.4H45.668A14.573,14.573,0,0,1,41.386,34.591Zm-1.8-8.013a2.841,2.841,0,0,1-1.653-.529,1.652,1.652,0,0,0-2.1,0,2.845,2.845,0,0,1-3.305,0,1.652,1.652,0,0,0-2.1,0,2.845,2.845,0,0,1-3.305,0,1.481,1.481,0,0,0-1.052-.378.529.529,0,0,1,0-1.058,2.841,2.841,0,0,1,1.653.529,1.652,1.652,0,0,0,2.1,0,2.845,2.845,0,0,1,3.305,0,1.652,1.652,0,0,0,2.1,0,2.845,2.845,0,0,1,3.305,0,1.481,1.481,0,0,0,1.052.378.529.529,0,0,1,0,1.058Z" transform="translate(-4.652 -4.051)"/><path class="a" d="M22.951,5.461a.68.68,0,0,0,0-1.361.743.743,0,0,0-.751.68A.743.743,0,0,0,22.951,5.461Z" transform="translate(-5.448 -1.001)"/><path class="a" d="M14.7,10.154l.676-.454A1.773,1.773,0,0,0,14.7,10.154Z" transform="translate(-3.582 -2.368)"/><path class="a" d="M1.176,12.1a.68.68,0,1,0,.676.68A.675.675,0,0,0,1.176,12.1Z" transform="translate(-0.049 -2.953)"/><path class="b" d="M45.419,45.281H34c-8.414,0-15.175-6.5-15.175-14.514S25.662,16.329,34,16.329H47.372A3.7,3.7,0,0,0,47.6,15.8H34c-8.714,0-15.7,6.728-15.7,14.967S25.361,45.735,34,45.735H45.87l-.225-.227Q45.644,45.395,45.419,45.281Z" transform="translate(-4.478 -3.856)"/><path class="b" d="M97.209,16.329h23.213c8.414,0,15.175,6.5,15.175,14.438,0,8.013-6.836,14.438-15.175,14.438H60.7a1.761,1.761,0,0,1,.526.529H120.5c8.714,0,15.7-6.728,15.7-14.967S129.136,15.8,120.5,15.8H97.284v.529Z" transform="translate(-15.026 -3.856)"/><path class="b" d="M11.835,11.58V11.5c0-.227.075-.454.075-.6A20.383,20.383,0,0,0,5.9,17.779a1.571,1.571,0,0,1,.451.3A19.909,19.909,0,0,1,11.835,11.58Z" transform="translate(-1.393 -2.66)"/><path class="b" d="M115.209,5.727a1.144,1.144,0,0,1-.751.3.862.862,0,0,1-.826-.454,14.385,14.385,0,0,0-1.8-.076H23.936A21.915,21.915,0,0,0,12.968,8.3a1.207,1.207,0,0,1,.676.227A21.6,21.6,0,0,1,23.936,6.029h87.893c12.921,0,20.809,9.978,20.809,22.3s-7.888,23.283-20.809,23.283H23.936C11.015,51.612,2.6,40.651,2.6,28.329a23.3,23.3,0,0,1,1.427-8.315,1.386,1.386,0,0,1-.526-.151A23.444,23.444,0,0,0,2,28.253,25.076,25.076,0,0,0,7.935,44.808,20.654,20.654,0,0,0,23.86,51.99h87.893a19.809,19.809,0,0,0,15.7-7.257,25.709,25.709,0,0,0,5.709-16.555C133.163,16.083,125.876,7.239,115.209,5.727Z" transform="translate(-0.422 -1.342)"/><path class="b" d="M15.8,9.6a.948.948,0,0,0-.451.076l-.676.454a1.256,1.256,0,0,0-.376.907l2.028-1.361A1.458,1.458,0,0,0,15.8,9.6Z" transform="translate(-3.482 -2.343)"/><path class="b" d="M90.96,16.329V15.8H69.4a3.7,3.7,0,0,1,.225.529Z" transform="translate(-17.19 -3.856)"/><path class="b" d="M14.275,11.59A17.242,17.242,0,0,1,16.754,10a1.209,1.209,0,0,0-.526-.3A15.851,15.851,0,0,0,14.2,11.061v.151A.826.826,0,0,0,14.275,11.59Z" transform="translate(-3.458 -2.368)"/><path class="b" d="M33.826,46.093h12.32c-.15-.151-.3-.378-.451-.529H33.826c-8.714,0-15.7-6.728-15.7-14.967s7.061-14.967,15.7-14.967h13.6a4.344,4.344,0,0,1,.3-.529h-13.9c-8.94,0-16.226,6.955-16.226,15.5S24.887,46.093,33.826,46.093Z" transform="translate(-4.303 -3.686)"/><path class="b" d="M90.885,15.654v-.227h-.6V15.2H69.1a3.7,3.7,0,0,1,.225.529h21.56Z" transform="translate(-17.116 -3.71)"/><path class="b" d="M120.671,15.629c8.714,0,15.7,6.728,15.7,14.967s-7.061,14.967-15.7,14.967H61.4a3.282,3.282,0,0,1,.451.529h58.82c8.94,0,16.226-6.955,16.226-15.5s-7.287-15.5-16.226-15.5H97.383v.529Z" transform="translate(-15.2 -3.686)"/><path class="b" d="M14.194,9a21.032,21.032,0,0,1,9.841-2.343h87.893c11.944,0,20.283,9,20.283,21.846,0,14.967-10.217,22.829-20.283,22.829H24.035c-10.066,0-20.809-8.013-20.809-22.829a25.194,25.194,0,0,1,1.427-8.391c-.15,0-.225.076-.376.076h-.15A25.081,25.081,0,0,0,2.7,28.5c0,12.322,8.414,23.283,21.335,23.283h87.893c12.921,0,20.809-10.961,20.809-23.283S124.848,6.2,111.927,6.2H24.035A21.384,21.384,0,0,0,13.743,8.695,1.571,1.571,0,0,1,14.194,9Z" transform="translate(-0.597 -1.513)"/><path class="b" d="M6.776,18.679a20.465,20.465,0,0,1,5.259-6.35c-.075-.151-.075-.378-.15-.529A20.44,20.44,0,0,0,6.4,18.225,1.006,1.006,0,0,1,6.776,18.679Z" transform="translate(-1.517 -2.88)"/><path class="b" d="M107.452,19.975A3.336,3.336,0,0,1,106.1,22.7l.826,1.512h4.057v.076l.451.227c1.352,1.361,2.93,3.024,4.357,4.687a37.82,37.82,0,0,1,5.334-3.931s1.5-2.57,2.1-2.192c1.578-1.512,2.1-2.192,3.38-.907.751.832-2.1,3.326-4.057,4.687a71.672,71.672,0,0,1-6.085,5.594h0a1.729,1.729,0,0,1-1.8.076,1.523,1.523,0,0,1-.526-.68c-1.127-1.285-2.179-1.512-3.08-2.57V40.536a1.081,1.081,0,0,1,.526.151V30.407c.225.151.376.227.6.378a5.9,5.9,0,0,1,1.578,1.285,2.063,2.063,0,0,0,.676.907,2.215,2.215,0,0,0,1.953.151l.075.076.376-.378a67.934,67.934,0,0,0,6.085-5.594c.826-.6,4.132-3.024,4.282-4.611a1.221,1.221,0,0,0-.225-.832,1.93,1.93,0,0,0-1.5-.832c-.751,0-1.352.529-2.329,1.436l-.075.076h-.225c-.826.227-1.728,1.587-2.1,2.343a50.009,50.009,0,0,0-4.883,3.553q-2.254-2.608-4.057-4.309a1.038,1.038,0,0,0-.3-.227v-.076h-4.282l-.451-.907a4.009,4.009,0,0,0,1.2-2.873V16.8h-.526v3.175Z" transform="translate(-26.321 -4.1)"/><path class="b" d="M93.949,23.128v.529H90.794v.076a1.209,1.209,0,0,0-.526.3c-1.2,1.134-2.554,2.646-4.057,4.384A34.408,34.408,0,0,0,81.4,24.942,3.956,3.956,0,0,0,79.526,22.6a1.645,1.645,0,0,0-.6-.076l-.075-.076c-.9-.832-1.5-1.436-2.254-1.436h-.075a2.185,2.185,0,0,0-1.5.832.86.86,0,0,0-.225.832c.15,1.587,3.681,4.158,4.282,4.611a67.935,67.935,0,0,0,6.085,5.594l.451.3.075-.076a2.379,2.379,0,0,0,2.028-.151,2.063,2.063,0,0,0,.676-.907,9.091,9.091,0,0,1,1.728-1.436,4.17,4.17,0,0,0,.6-.454v10.81a3.651,3.651,0,0,0,.526.227V28.873c-.977,1.058-2.1,1.436-3.38,2.8a.961.961,0,0,1-.526.68,1.454,1.454,0,0,1-1.728,0h0a60.513,60.513,0,0,1-6.085-5.594c-1.878-1.361-4.808-3.855-4.057-4.687,1.2-1.285,1.8-.6,3.38.907.676-.378,1.8.983,2.1,2.192A62.128,62.128,0,0,1,86.287,29.1c1.427-1.663,2.93-3.326,4.357-4.687a1.851,1.851,0,0,1,.676-.3h3.155V22.75A3.435,3.435,0,0,1,92.823,19.8V16.4H92.3v3.477A3.986,3.986,0,0,0,93.949,23.128Z" transform="translate(-18.527 -4.003)"/><rect class="b" width="0.526" height="0.529" transform="translate(73.77 11.944)"/><path class="b" d="M98.626,15.4a1.458,1.458,0,0,1-.526.076V15.7h.526Z" transform="translate(-24.33 -3.759)"/><path class="b" d="M106.7,19.95a3.183,3.183,0,0,1-1.127,2.343l-.376.3,1.2,2.192h4.207c.075,0,.15.076.225.076a54.039,54.039,0,0,1,4.282,4.611l.3.378.376-.3a44.443,44.443,0,0,1,5.259-3.855l.15-.076.075-.151a6.979,6.979,0,0,1,1.5-1.965l.3.227.6-.529c.676-.68,1.2-1.134,1.578-1.134h0c.225,0,.451.151.751.454.075.454-1.427,2.117-3.906,3.931l-.075.076c-.526.6-3.08,3.024-5.784,5.291l-.225.151a1.29,1.29,0,0,1-1.277.076.754.754,0,0,1-.3-.378v-.076l-.075-.076a9.47,9.47,0,0,0-1.8-1.512,8.206,8.206,0,0,1-1.277-.983l-.9-1.058V40.512a1.108,1.108,0,0,1,.526.076V29.248c.9,1.058,2.028,1.285,3.08,2.57a.961.961,0,0,0,.526.68,1.573,1.573,0,0,0,1.8-.076h0a60.512,60.512,0,0,0,6.085-5.594c1.878-1.361,4.808-3.855,4.057-4.687-1.2-1.285-1.8-.6-3.38.907-.676-.378-2.1,2.192-2.1,2.192a49.218,49.218,0,0,0-5.334,3.931c-1.427-1.663-2.93-3.326-4.357-4.687a.648.648,0,0,0-.451-.227v-.076h-4.057l-.826-1.512A3.336,3.336,0,0,0,107.3,19.95V16.776c-.15,0-.376-.076-.526-.076v3.25Z" transform="translate(-26.097 -4.076)"/><path class="b" d="M94.665,22.825v1.361H91.51a.813.813,0,0,0-.676.3c-1.352,1.361-2.93,3.024-4.357,4.687a51.616,51.616,0,0,0-5.334-3.931c-.3-1.209-1.5-2.57-2.1-2.192-1.578-1.512-2.1-2.192-3.38-.907-.751.832,2.1,3.326,4.057,4.687A71.679,71.679,0,0,0,85.8,32.426h0a1.86,1.86,0,0,0,1.878.076,1.523,1.523,0,0,0,.526-.68c1.2-1.436,2.4-1.739,3.381-2.8V41.27a1.108,1.108,0,0,0,.526.076V27.512l-.9.983a6.744,6.744,0,0,1-1.352,1.134,12.482,12.482,0,0,0-2.028,1.739l-.075.076v.076a.754.754,0,0,1-.3.378,1.136,1.136,0,0,1-1.277-.076l-.15-.076c-2.855-2.419-5.334-4.762-5.86-5.367l-.075-.076c-2.554-1.814-3.981-3.477-3.981-3.855a1.683,1.683,0,0,1,.751-.529h0c.376,0,.9.529,1.578,1.134l.526.529.376-.227h0c.3,0,1.127.907,1.352,1.89l.225.907.376-.378c.826.529,3.155,2.268,4.883,3.628l.376.3.3-.378c1.653-1.89,3.08-3.477,4.282-4.611a.572.572,0,0,1,.376-.151h3.606V22.447L94.89,22.3A2.83,2.83,0,0,1,93.463,19.8V16.4h-.526v3.477A3.678,3.678,0,0,0,94.665,22.825Z" transform="translate(-18.717 -4.003)"/><rect class="b" width="0.526" height="0.529" transform="translate(74.296 11.944)"/><path class="b" d="M99.326,15.3h0a1.386,1.386,0,0,0-.526.151v.3h.526Z" transform="translate(-24.504 -3.734)"/><path class="b" d="M107.1,15.276h0V15.2h-.3C106.875,15.2,107.025,15.276,107.1,15.276Z" transform="translate(-26.495 -3.71)"/><path class="b" d="M107.9,15.4Z" transform="translate(-26.768 -3.759)"/><path class="b" d="M108.6,16.727h.526V16.5H108.6v.227Z" transform="translate(-26.943 -4.027)"/><path class="b" d="M97.876,13.479H97.8a3.468,3.468,0,0,1,3.305-3.628v.076c.225,0,.451-.076.676-.076h0a3.526,3.526,0,0,1,3.305,1.89,3.819,3.819,0,0,1,.6,2.041h.526c-.225-2.721-1.953-4.384-4.432-4.384h-.676a3.426,3.426,0,0,0-2.554.983A4.54,4.54,0,0,0,97.2,13.555v.227h.6A.457.457,0,0,0,97.876,13.479Z" transform="translate(-24.106 -2.291)"/><path class="b" d="M108.6,16.127v.227h.526V15.9H108.6v.227Z" transform="translate(-26.943 -3.881)"/><path class="b" d="M108.6,15.251v.378h.526V15.1l-.526.151Z" transform="translate(-26.943 -3.686)"/><path class="b" d="M97.826,15.427H97.9V15.2h-.6v.227Z" transform="translate(-24.131 -3.71)"/><path class="b" d="M106.3,16.5c.225.076.451.076.676.151V16.5Z" transform="translate(-26.37 -4.027)"/><path class="b" d="M100.978,13.956a6.48,6.48,0,0,0,1.2.756h1.2a8.672,8.672,0,0,1-2.4-1.512,4.693,4.693,0,0,1-1.5.983c0,.151-.075.378-.075.529h.15A4.3,4.3,0,0,0,100.978,13.956Z" transform="translate(-24.654 -3.222)"/><path class="b" d="M104.4,15.8a10.909,10.909,0,0,0,1.427.529h.676v-.378c-.15,0-.3-.076-.451-.076H104.4Z" transform="translate(-25.898 -3.856)"/><path class="b" d="M99.5,15.2Z" transform="translate(-24.679 -3.71)"/><path class="b" d="M104.3,15.2h-1.2c.3.151.676.378.977.529h1.578C105.279,15.578,104.753,15.427,104.3,15.2Z" transform="translate(-25.574 -3.71)"/><path class="b" d="M107.9,16.727h.526V16.5H107.9Z" transform="translate(-26.768 -4.027)"/><path class="b" d="M103.381,10Z" transform="translate(-25.63 -2.441)"/><path class="b" d="M98.626,14.7a1.458,1.458,0,0,1-.526.076v.3h.526Z" transform="translate(-24.33 -3.588)"/><path class="b" d="M108.4,14.541a3.819,3.819,0,0,0-.6-2.041,5.421,5.421,0,0,1,.6,2.041Z" transform="translate(-26.744 -3.051)"/><path class="b" d="M107.9,16.427h.526V16.2H107.9Z" transform="translate(-26.768 -3.954)"/><path class="b" d="M108.6,15.5v-.3h0Z" transform="translate(-26.943 -3.71)"/><path class="b" d="M98.626,15.276h0L98.1,15.2v.227a1.458,1.458,0,0,0,.526-.076Z" transform="translate(-24.33 -3.71)"/><path class="b" d="M107.2,16.651c.15,0,.376.076.526.076V16.5H107.2Z" transform="translate(-26.594 -4.027)"/><path class="b" d="M99.426,14.5a1.9,1.9,0,0,1-.526.151v.378h.526A.643.643,0,0,1,99.426,14.5Z" transform="translate(-24.529 -3.539)"/><path class="b" d="M107.726,16.378v-.3c-.15,0-.376-.076-.526-.076v.378Z" transform="translate(-26.594 -3.905)"/><path class="b" d="M99.326,15.2H98.8v.227a3.65,3.65,0,0,1,.526-.227Z" transform="translate(-24.504 -3.71)"/><path class="b" d="M106.705,11.89A3.6,3.6,0,0,0,103.4,10,3.908,3.908,0,0,1,106.705,11.89Z" transform="translate(-25.649 -2.441)"/><path class="b" d="M101.981,10a2.067,2.067,0,0,0-.676.076V10A3.422,3.422,0,0,0,98,13.628h.075A4.053,4.053,0,0,1,101.981,10Z" transform="translate(-24.305 -2.44)"/><path class="b" d="M108.6,16.127h0V15.9h0Z" transform="translate(-26.943 -3.881)"/><path class="b" d="M108.6,15.751v0Z" transform="translate(-26.943 -3.808)"/><path class="b" d="M103.431,14.468h1.578a8.747,8.747,0,0,1-3.606-1.89l-.376-.378-.376.378a3.336,3.336,0,0,1-.826.6,2.413,2.413,0,0,0-.225.68,4.693,4.693,0,0,0,1.5-.983A6.394,6.394,0,0,0,103.431,14.468Z" transform="translate(-24.704 -2.978)"/><path class="b" d="M107.051,15.976V15.9H106.6C106.75,15.9,106.9,15.976,107.051,15.976Z" transform="translate(-26.445 -3.881)"/><path class="b" d="M104.7,15.2a10.909,10.909,0,0,0,1.427.529h.451v-.378c-.075,0-.225-.076-.3-.076H104.7Z" transform="translate(-25.972 -3.71)"/><path class="b" d="M98.8,12.973c-.075,0-.15.076-.225.076a4.13,4.13,0,0,1,.9-1.814,2.284,2.284,0,0,1,1.578-.68l.075.076h.9a3.155,3.155,0,0,1,2.855,1.512,3.322,3.322,0,0,1,.6,1.89h.526a5.872,5.872,0,0,0-.6-2.041,3.908,3.908,0,0,0-3.305-1.89h0A3.936,3.936,0,0,0,98.2,13.728c.15,0,.3-.076.526-.076A1.888,1.888,0,0,1,98.8,12.973Z" transform="translate(-24.355 -2.465)"/><path class="b" d="M108.426,16.127V15.9H107.9v.227A.638.638,0,0,1,108.426,16.127Z" transform="translate(-26.768 -3.881)"/><path class="b" d="M107.9,15.2h0v.151h0v.3h.526V15.2Z" transform="translate(-26.768 -3.71)"/><path class="b" d="M99.626,13.6a2.66,2.66,0,0,1-.676.3c-.075.151-.075.378-.15.6.15-.076.376-.076.526-.151A2.272,2.272,0,0,1,99.626,13.6Z" transform="translate(-24.504 -3.319)"/><path class="b" d="M107.7,14.59a3.322,3.322,0,0,0-.6-1.89,4.663,4.663,0,0,1,.6,1.89Z" transform="translate(-26.569 -3.1)"/><path class="b" d="M107.2,15.951c.15,0,.376.076.526.076V15.8H107.2Z" transform="translate(-26.594 -3.856)"/><path class="b" d="M107.2,15.678h.526v-.3c-.15,0-.376-.076-.526-.076Z" transform="translate(-26.594 -3.734)"/><path class="b" d="M107.9,15.276h0V15.2h0Z" transform="translate(-26.768 -3.71)"/><path class="b" d="M59.256,53.5a.723.723,0,0,0-.15-.529,4.165,4.165,0,0,0-2.329-1.663c-.225-.3-.376-.529-.6-.832-.225,0-.451-.076-.676-.076a15.327,15.327,0,0,0,.977,1.361c1.127.227,2.479,1.209,2.179,1.89h.751s-.075,0-.15-.151Z" transform="translate(-13.732 -12.301)"/><path class="b" d="M53.826,28.812a8.559,8.559,0,0,1,1.052-.454h2.554l.225-1.058h-.526l-.15.529H54.728a5.309,5.309,0,0,0-1.2.529,12,12,0,0,0-4.733,8.769A15.088,15.088,0,0,0,53,48.012h.751l-.075-.076C48.718,43.174,46.99,34.179,53.826,28.812Z" transform="translate(-12.059 -6.663)"/><path class="b" d="M54.784,45.634l.15-1.436.451-5.518H55.16l.3-3.78c-3.981,4.006-3.23,7.635-1.052,11.188l-.15-.68A3.648,3.648,0,0,0,54.784,45.634Zm.225-9.525-.6,8.013-.075.68C52.756,41.779,52.531,39.058,55.01,36.109Z" transform="translate(-13.017 -8.518)"/><path class="b" d="M65.2,26.007l.075,1.814h2.4s.977.227,1.2.756a2.7,2.7,0,0,1,.15.756c1.578,3.855,5.634,10.507,10.442,9.3.751-.832,2.329-1.512,2.7-.907,1.953-.6,2.7-.907,3.23.68.3.983-3.155,1.89-5.334,2.192h0c-4.432,2.268-8.714-1.814-11.268-5.972l-.225,1.739h0l.6,6.2h.526l-.676-6.5c3.831,5.745,8.188,6.425,10.968,5.065h0c.826-.151,4.808-.756,5.634-2.041a1.17,1.17,0,0,0,.15-.832,2.31,2.31,0,0,0-.9-1.361c-.676-.378-1.427-.151-2.554.227h-.075a1.081,1.081,0,0,0-.526-.151A3.858,3.858,0,0,0,79.1,38.178c-4.357.983-8.113-5.291-9.616-8.844a2.733,2.733,0,0,0-.15-.832,2.208,2.208,0,0,0-1.653-1.058H65.651l-.075-1.058.451-.454V25.1A2.892,2.892,0,0,1,65.2,26.007Z" transform="translate(-16.145 -6.126)"/><path class="b" d="M62.452,12.2h0a5.043,5.043,0,0,0-1.052.151,5.765,5.765,0,0,1,1.127-.151C62.527,12.276,62.527,12.2,62.452,12.2Z" transform="translate(-15.2 -2.978)"/><path class="b" d="M59.757,58.217c-.526.6-2.1-.756-3.38-2.117H55.7c.977,1.134,2.7,2.8,3.756,2.8h0a1,1,0,0,0,.751-.3,1.92,1.92,0,0,0,.676-1.512,1.6,1.6,0,0,0-.376-.983h-.676C60.433,56.856,60.583,57.309,59.757,58.217Z" transform="translate(-13.782 -13.693)"/><path class="b" d="M55.151,54.8H54.4l.225.227.225.227H55.6Z" transform="translate(-13.459 -13.375)"/><path class="b" d="M60.451,54.8H59.7a3.274,3.274,0,0,1,.526.454h.751A3.274,3.274,0,0,0,60.451,54.8Z" transform="translate(-14.777 -13.375)"/><path class="b" d="M60.4,55.4a3.48,3.48,0,0,1,.526.529H61.6a3.282,3.282,0,0,1-.451-.529Z" transform="translate(-14.951 -13.522)"/><path class="b" d="M55.751,55.4H55a3.282,3.282,0,0,1,.451.529h.676C56.052,55.778,55.9,55.627,55.751,55.4Z" transform="translate(-13.608 -13.522)"/><path class="b" d="M55.6,47.785c-.3-.454-.676-.907-.977-1.361-.075,0-.225-.076-.3-.076l-.075-.6c-2.179-3.553-2.93-7.181,1.052-11.188l.075-.756h0l-.225.151c-5.259,5.14-3.08,9.751.075,14.06l.15.151.225.076c.9.227,1.8.907,1.8,1.134l-.15.227h.6C58.079,48.994,56.727,48.011,55.6,47.785Z" transform="translate(-12.856 -8.25)"/><path class="b" d="M54.238,47.634h0a14.022,14.022,0,0,1-4.207-10.356,10.621,10.621,0,0,1,4.282-8.013,4.6,4.6,0,0,1,.826-.378h2.93l.3-1.587h-.526l-.225,1.058H55.064a8.56,8.56,0,0,0-1.052.454c-6.836,5.367-5.033,14.363-.15,19.125l.075.076h.676Z" transform="translate(-12.245 -6.663)"/><path class="b" d="M68.532,33.329c2.479,4.233,6.836,8.24,11.268,5.972h0c2.179-.3,5.634-1.209,5.334-2.192-.451-1.587-1.277-1.285-3.23-.68-.376-.6-1.953.076-2.7.907-4.733,1.209-8.864-5.367-10.442-9.3a1.37,1.37,0,0,0-.15-.756c-.225-.6-1.2-.756-1.2-.756H65l-.075-1.814a3.286,3.286,0,0,0,.977-1.058V21.99a2.572,2.572,0,0,1-1.277,2.268l-.225.151.15,2.646H67.4c.3.076.751.227.826.454a.964.964,0,0,1,.075.454v.151l.075.151c1.653,4.158,5.935,10.885,11.043,9.6l.15-.076.075-.151a2.949,2.949,0,0,1,1.878-.983l.225.378.751-.227c.826-.227,1.5-.454,1.8-.3a.947.947,0,0,1,.376.68c-.225.378-1.953,1.058-4.507,1.512l-.075-.151-.526.3c-2.7,1.361-7.212.454-10.968-6.577h0l.075.227Z" transform="translate(-15.946 -4.906)"/><path class="b" d="M56.527,39.8H56l-.451,5.518-.15,1.436a4.764,4.764,0,0,0,.526.151Z" transform="translate(-13.707 -9.714)"/><path class="b" d="M69.6,46.1h.526l-.6-6.2H69Z" transform="translate(-17.091 -9.739)"/><path class="b" d="M61.475,26H61.4v.454Z" transform="translate(-15.2 -6.346)"/><path class="b" d="M60.056,57.158a1.559,1.559,0,0,1-.376.68h0A6.082,6.082,0,0,1,57.351,56.1H56.6c1.352,1.436,2.855,2.721,3.38,2.117.826-.907.676-1.361,0-2.117h-.751A2.888,2.888,0,0,1,60.056,57.158Z" transform="translate(-14.006 -13.693)"/><path class="b" d="M59.476,54.8h-.6l-.075.151.376.378h.751a1.015,1.015,0,0,0-.451-.529Z" transform="translate(-14.553 -13.375)"/><path class="b" d="M56.076,54.8H55.4a3.282,3.282,0,0,1,.451.529h.676A3.283,3.283,0,0,0,56.076,54.8Z" transform="translate(-13.707 -13.375)"/><path class="b" d="M56.676,55.4H56a3.282,3.282,0,0,1,.451.529H57.2A1.761,1.761,0,0,1,56.676,55.4Z" transform="translate(-13.857 -13.522)"/><path class="b" d="M59.55,55.551l.376.378h.751l-.526-.529H59.4Z" transform="translate(-14.702 -13.522)"/><path class="b" d="M68.75,33.8H68.6l.977,1.739Z" transform="translate(-16.991 -8.25)"/><path class="b" d="M65.915,38.336,65.464,33.8H57.276L56.9,38.336Z" transform="translate(-14.081 -8.25)"/><path class="b" d="M56.15,38.506l.3-4.006c-.075.076-.075.151-.15.151l-.3,3.78h.15Z" transform="translate(-13.857 -8.421)"/><path class="b" d="M69.525,38.97h0l.225-1.739c-.15-.3-.3-.529-.451-.832Z" transform="translate(-17.165 -8.884)"/><path class="b" d="M69.3,38.336l-.225-2.57c.15.3.3.529.451.832l.075-.832-.075-.227-.9-1.739H68.4l.451,4.536Z" transform="translate(-16.942 -8.25)"/><path class="b" d="M56.2,38.336h.526L57.1,33.8h-.676l-.075.756c.075-.076.075-.151.15-.151Z" transform="translate(-13.906 -8.25)"/><path class="b" d="M67.4,15.189Z" transform="translate(-16.693 -3.699)"/><path class="b" d="M67.8,19.392V17.2h0Z" transform="translate(-16.792 -4.198)"/><path class="b" d="M55.8,23.757v.907h3l.075-.454c-.075,0-.075-.076-.15-.076H56.251c0-2.268-.075-5.367.9-7.635H56.7C55.8,18.692,55.8,21.489,55.8,23.757Z" transform="translate(-13.807 -4.027)"/><path class="b" d="M68.6,23.832H67.026V23a2.352,2.352,0,0,1-.526.68v.68h2.554v-6.5a4.305,4.305,0,0,0-.225-1.361H68.3a4.3,4.3,0,0,1,.225,1.361Z" transform="translate(-16.469 -4.027)"/><path class="b" d="M60.555,12.5a4.788,4.788,0,0,0-2.179,1.209,8.026,8.026,0,0,0-.676.832h.526A3.361,3.361,0,0,1,60.555,12.5Z" transform="translate(-14.28 -3.051)"/><path class="b" d="M67.006,14.468h.6a4.1,4.1,0,0,0-2.554-2.041,7.841,7.841,0,0,0-1.8-.227H63.1a3.261,3.261,0,0,1,2.179.832A3.95,3.95,0,0,1,67.006,14.468Z" transform="translate(-15.623 -2.978)"/><path class="b" d="M69.426,16.329A3.7,3.7,0,0,1,69.2,15.8h-.6a3.7,3.7,0,0,1,.225.529Z" transform="translate(-16.991 -3.856)"/><path class="b" d="M57.5,16.329a3.7,3.7,0,0,0,.225-.529h-.6a3.7,3.7,0,0,0-.225.529Z" transform="translate(-14.081 -3.856)"/><path class="b" d="M68.625,15.629h.6A3.7,3.7,0,0,1,69,15.1h-.6A.688.688,0,0,0,68.625,15.629Z" transform="translate(-16.942 -3.686)"/><path class="b" d="M57.876,15.629h0c.075-.151.075-.378.15-.529H57.5a3.293,3.293,0,0,0-.3.529Z" transform="translate(-14.155 -3.686)"/><path class="b" d="M64.957,16.927c-.451-.076-.9-.227-.977-.227a4.647,4.647,0,0,1-3.38,1.209v5.443a1.038,1.038,0,0,0,.3.227l.225.151V18.439a5.363,5.363,0,0,0,3-1.134,1.9,1.9,0,0,1,.526.151c.075,0,.225.076.3.076v-.6Z" transform="translate(-15.001 -4.076)"/><path class="b" d="M61.375,26.6l-.075.529h.075Z" transform="translate(-15.175 -6.492)"/><path class="b" d="M60.7,26.4h0v0Z" transform="translate(-15.026 -6.444)"/><path class="b" d="M59.8,26.6c.075,0,.075.076.15.076l-.075.454H60.4l.075-.529Z" transform="translate(-14.802 -6.492)"/><path class="b" d="M67.051,21.99a3.529,3.529,0,0,1-.451,1.739v.832a4.15,4.15,0,0,0,.526-.68c0-1.361,0-2.646-.075-3.78Z" transform="translate(-16.494 -4.906)"/><path class="b" d="M58.3,14.468h.15a4.255,4.255,0,0,1,2.4-1.587,3.749,3.749,0,0,1,.9-.151h.3a5.639,5.639,0,0,1,1.728.227c.15,0,.225.076.3.076a4.26,4.26,0,0,0-2.179-.832,5.765,5.765,0,0,0-1.127.151A3.909,3.909,0,0,0,58.3,14.468Z" transform="translate(-14.429 -2.978)"/><path class="b" d="M58.25,15.2a1.079,1.079,0,0,0-.15.454c.075-.151.225-.3.3-.454Z" transform="translate(-14.379 -3.71)"/><path class="b" d="M61.2,25.878l-.225-.151c-.075-.076-.225-.151-.3-.227v.6h0v.151h0l-.075.529h.526l.075-.529Z" transform="translate(-15.001 -6.224)"/><path class="b" d="M66.475,22.972a3.329,3.329,0,0,0,.451-1.739V17.151S66.7,17.076,66.4,17v3.326C66.475,21.158,66.475,22.065,66.475,22.972Z" transform="translate(-16.444 -4.149)"/><path class="b" d="M62.5,12.9a3.749,3.749,0,0,0-.9.151,4.371,4.371,0,0,1,.977-.151Z" transform="translate(-15.25 -3.149)"/><path class="b" d="M67.8,17.127V16.9h0v.227Z" transform="translate(-16.792 -4.125)"/><path class="b" d="M68.252,23.279h-.526c0-1.058,0-2.117-.075-3.1v.907A3.609,3.609,0,0,1,67.2,22.9v.832h1.578V17.761a4.3,4.3,0,0,0-.225-1.361h-.526a4.438,4.438,0,0,1,.3,1.361Z" transform="translate(-16.643 -4.003)"/><path class="b" d="M56.5,24.11h2.479a1.761,1.761,0,0,1-.526-.529H57.025a21.837,21.837,0,0,1,.526-5.821V17a1.674,1.674,0,0,1,.075-.6h-.15C56.424,18.743,56.5,21.843,56.5,24.11Z" transform="translate(-13.981 -4.003)"/><path class="b" d="M66.927,14.661c.075,0,.075.076,0,0l.676.076A3.759,3.759,0,0,0,65.8,13.3,3.232,3.232,0,0,1,66.927,14.661Z" transform="translate(-16.295 -3.246)"/><path class="b" d="M68.1,16.329h.526A3.7,3.7,0,0,1,68.4,15.8h-.6A4.341,4.341,0,0,1,68.1,16.329Z" transform="translate(-16.792 -3.856)"/><path class="b" d="M57.85,16.329c0-.151.075-.3.075-.529h0a3.7,3.7,0,0,0-.225.529Z" transform="translate(-14.28 -3.856)"/><path class="b" d="M67.776,15.629h.6a4.342,4.342,0,0,0-.3-.529H67.4A3.2,3.2,0,0,0,67.776,15.629Z" transform="translate(-16.693 -3.686)"/><path class="b" d="M58.1,15.8Z" transform="translate(-14.379 -3.856)"/><path class="b" d="M63.806,16.651c0,.076.526.151.977.227a.685.685,0,0,0-.075-.378H63.13a4.434,4.434,0,0,1-2.7.832H59.9v5.443a1.761,1.761,0,0,0,.526.529V17.861A4.647,4.647,0,0,0,63.806,16.651Z" transform="translate(-14.827 -4.027)"/><path class="b" d="M62.551,13.6h0a2.211,2.211,0,0,0-.751.151,3.063,3.063,0,0,1,.826-.076C62.626,13.6,62.626,13.6,62.551,13.6Z" transform="translate(-15.3 -3.319)"/><path class="b" d="M65.827,16.2c-.225-.076-.451-.076-.6-.151l-.15-.151h-.225l-.225.227-.225.227h1.578Z" transform="translate(-15.946 -3.881)"/><path class="b" d="M65.075,15.6,65,15.751h.225Z" transform="translate(-16.096 -3.808)"/><path class="b" d="M57.775,17.785c.15-.454.3-.907.451-1.285h-.451c0,.151-.075.378-.075.6Z" transform="translate(-14.28 -4.027)"/><path class="b" d="M60.3,26.329v-.151a2.283,2.283,0,0,1-.526-.378H59.1a3.481,3.481,0,0,0,.526.529,1.01,1.01,0,0,0,.676,0Z" transform="translate(-14.628 -6.297)"/><path class="b" d="M67.175,16.5H67.1c0,.151.075.378.075.529v2.192c0,1.134.075,2.419.075,3.78a3.817,3.817,0,0,0,.451-1.814V17.1h0v-.227l-.15-.151A1,1,0,0,0,67.175,16.5Z" transform="translate(-16.618 -4.027)"/><path class="b" d="M66.23,14.563A3.691,3.691,0,0,0,65.179,13.2c-.075,0-.225-.076-.3-.076A5.638,5.638,0,0,0,63.15,12.9H63a2.993,2.993,0,0,1,1.953.756A3.264,3.264,0,0,1,66.23,14.563Z" transform="translate(-15.598 -3.149)"/><path class="b" d="M60.8,13.1a4.137,4.137,0,0,0-2.4,1.587h.451A3.382,3.382,0,0,1,60.8,13.1Z" transform="translate(-14.454 -3.197)"/><path class="b" d="M58.526,16.051c0-.076,0-.151.075-.151h-.526a1.127,1.127,0,0,0-.075.529h.451A.569.569,0,0,1,58.526,16.051Z" transform="translate(-14.354 -3.881)"/><path class="b" d="M67.175,16.5h0Z" transform="translate(-16.618 -4.027)"/><path class="b" d="M58.626,15.629a3.7,3.7,0,0,0,.225-.529H58.4c-.075.151-.225.3-.3.454h.526Z" transform="translate(-14.379 -3.686)"/><path class="b" d="M60.7,26.6Z" transform="translate(-15.026 -6.492)"/><path class="b" d="M60,24.8v.756a1.348,1.348,0,0,0,.526.378v-.6A1.761,1.761,0,0,1,60,24.8Z" transform="translate(-14.852 -6.053)"/><path class="b" d="M67.1,19.392v0Z" transform="translate(-16.618 -4.198)"/><path class="b" d="M66.375,16.878c.3.076.526.151.526.151a1.294,1.294,0,0,0-.075-.529H66.3A.685.685,0,0,1,66.375,16.878Z" transform="translate(-16.419 -4.027)"/><path class="b" d="M59.1,14.639h.225l.15-.151A3.476,3.476,0,0,1,61.2,13.58a2.211,2.211,0,0,1,.751-.151h.225a6.038,6.038,0,0,1,1.5.151h.075a.262.262,0,0,1,.15.076,2.993,2.993,0,0,0-1.953-.756,3.784,3.784,0,0,0-.977.151A3.03,3.03,0,0,0,59.1,14.639Z" transform="translate(-14.628 -3.149)"/><path class="b" d="M58.85,15.8h0c-.075.076-.075.151-.15.151C58.775,15.951,58.775,15.876,58.85,15.8Z" transform="translate(-14.528 -3.856)"/><path class="b" d="M66.3,16.3a.264.264,0,0,0,.075.151H66.9a3.391,3.391,0,0,0-.6-.151Z" transform="translate(-16.419 -3.978)"/><path class="b" d="M59.251,15.2h-.225a3.7,3.7,0,0,0-.225.529h.075A1.356,1.356,0,0,1,59.251,15.2Z" transform="translate(-14.553 -3.71)"/><path class="b" d="M168.077,23.38a1.89,1.89,0,1,0-1.878-1.89A1.821,1.821,0,0,0,168.077,23.38Zm0-3.628a1.739,1.739,0,1,1-1.728,1.739A1.705,1.705,0,0,1,168.077,19.751Z" transform="translate(-41.271 -4.784)"/><path class="b" d="M168.128,23.277a1.739,1.739,0,1,0-1.728-1.739A1.753,1.753,0,0,0,168.128,23.277Zm0-3.326a1.587,1.587,0,1,1-1.578,1.587A1.545,1.545,0,0,1,168.128,19.951Z" transform="translate(-41.322 -4.833)"/><path class="b" d="M158.077,12.78a1.89,1.89,0,1,0-1.878-1.89A1.821,1.821,0,0,0,158.077,12.78Zm0-3.628a1.739,1.739,0,1,1-1.728,1.739A1.705,1.705,0,0,1,158.077,9.151Z" transform="translate(-38.783 -2.197)"/><path class="b" d="M158.128,12.677a1.739,1.739,0,1,0-1.728-1.739A1.705,1.705,0,0,0,158.128,12.677Zm0-3.326a1.587,1.587,0,0,1,0,3.175,1.545,1.545,0,0,1-1.578-1.587A1.592,1.592,0,0,1,158.128,9.351Z" transform="translate(-38.834 -2.245)"/><path class="b" d="M165.777,3.78a1.866,1.866,0,0,0,1.878-1.89,1.878,1.878,0,1,0-3.756,0A1.821,1.821,0,0,0,165.777,3.78Zm0-3.628A1.705,1.705,0,0,1,167.5,1.89a1.728,1.728,0,1,1-3.456,0A1.705,1.705,0,0,1,165.777.151Z" transform="translate(-40.699)"/><path class="b" d="M165.828,3.677a1.705,1.705,0,0,0,1.728-1.739,1.728,1.728,0,1,0-3.456,0A1.705,1.705,0,0,0,165.828,3.677Zm0-3.326a1.587,1.587,0,1,1-1.578,1.587A1.592,1.592,0,0,1,165.828.351Z" transform="translate(-40.75 -0.049)"/><path class="b" d="M167.152,32.017a1.058,1.058,0,1,0-1.052-1.058A1.078,1.078,0,0,0,167.152,32.017Zm0-1.89a.832.832,0,0,1,0,1.663.9.9,0,0,1-.9-.832A.963.963,0,0,1,167.152,30.127Z" transform="translate(-41.247 -7.298)"/><path class="b" d="M167.2,31.963a.832.832,0,0,0,0-1.663.9.9,0,0,0-.9.832A.963.963,0,0,0,167.2,31.963Zm0-1.587a.68.68,0,1,1-.676.68A.675.675,0,0,1,167.2,30.376Z" transform="translate(-41.297 -7.395)"/><path class="b" d="M151.726,5.676c-.15,0-.3-.076-.526-.076a.449.449,0,0,0,.3.076Z" transform="translate(-37.541 -1.367)"/><path class="b" d="M150.55,4.434a.855.855,0,0,1,.9-.832.9.9,0,0,1,.9.832.8.8,0,0,1-.376.68h.225a.879.879,0,0,0,.3-.756,1.052,1.052,0,1,0-2.1,0,1.789,1.789,0,0,0,.15.6h.225A.59.59,0,0,1,150.55,4.434Z" transform="translate(-37.342 -0.805)"/><path class="b" d="M151.451,6.054a.961.961,0,0,0,.751-.3h-.225a1.063,1.063,0,0,1-.451.151.682.682,0,0,1-.6-.3H150.7A.791.791,0,0,0,151.451,6.054Z" transform="translate(-37.416 -1.367)"/><path class="b" d="M152.3,4.532a.855.855,0,0,0-.9-.832.9.9,0,0,0-.9.832.861.861,0,0,0,.225.6h.3a.772.772,0,0,1-.376-.6.676.676,0,1,1,1.352,0,.725.725,0,0,1-.526.68h.3A.806.806,0,0,0,152.3,4.532Z" transform="translate(-37.366 -0.903)"/><path class="b" d="M151.5,5.676c-.15,0-.225-.076-.3-.076h-.3a.925.925,0,0,0,.6.3,1.063,1.063,0,0,0,.451-.151h-.3C151.651,5.676,151.576,5.676,151.5,5.676Z" transform="translate(-37.466 -1.367)"/><path class="b" d="M2.45,21.465a1.705,1.705,0,0,1,1.728-1.739,2.21,2.21,0,0,1,.751.151c0-.076.075-.076.075-.151a1.507,1.507,0,0,0-.826-.227A1.866,1.866,0,0,0,2.3,21.39a1.982,1.982,0,0,0,1.2,1.739c0-.076,0-.076.075-.151A1.48,1.48,0,0,1,2.45,21.465Z" transform="translate(-0.497 -4.759)"/><path class="b" d="M6.8,21.783a1.526,1.526,0,0,0-.3-.983c0,.076-.075.076-.075.151a1.465,1.465,0,0,1,.225.756A1.7,1.7,0,0,1,5.375,23.37a.264.264,0,0,1-.075.151A1.622,1.622,0,0,0,6.8,21.783Z" transform="translate(-1.243 -5.077)"/><path class="b" d="M4.4,24.351a1.386,1.386,0,0,1-.526-.151c0,.076,0,.076-.075.151.15.076.376.076.526.151C4.4,24.427,4.4,24.427,4.4,24.351Z" transform="translate(-0.87 -5.907)"/><path class="b" d="M6.251,20.354c0-.076.075-.076.075-.151a1.571,1.571,0,0,0-.451-.3c0,.076-.075.076-.075.151A1.571,1.571,0,0,1,6.251,20.354Z" transform="translate(-1.368 -4.857)"/><path class="b" d="M6.676,20.9a.264.264,0,0,1,.075-.151,2,2,0,0,0-.376-.454c0,.076-.075.076-.075.151A1.006,1.006,0,0,1,6.676,20.9Z" transform="translate(-1.492 -4.955)"/><path class="b" d="M5.1,24.551a.264.264,0,0,1,.075-.151c-.15,0-.3.076-.451.076h-.15c0,.076,0,.076-.075.151h.15A1.11,1.11,0,0,1,5.1,24.551Z" transform="translate(-1.044 -5.955)"/><path class="b" d="M2.65,21.539a1.592,1.592,0,0,1,1.578-1.587A2.182,2.182,0,0,1,4.9,20.1c0-.076.075-.076.075-.151a2.21,2.21,0,0,0-.751-.151A1.705,1.705,0,0,0,2.5,21.539a1.67,1.67,0,0,0,1.052,1.587c0-.076,0-.076.075-.151A1.478,1.478,0,0,1,2.65,21.539Z" transform="translate(-0.547 -4.833)"/><path class="b" d="M6.677,21.856a1.283,1.283,0,0,0-.225-.756.264.264,0,0,1-.075.151,1.431,1.431,0,0,1,.15.6,1.473,1.473,0,0,1-1.052,1.436c0,.076-.075.151-.075.227A1.717,1.717,0,0,0,6.677,21.856Z" transform="translate(-1.268 -5.15)"/><path class="b" d="M3.975,24.1c0,.076,0,.076-.075.151.15.076.376.076.526.151,0-.076,0-.076.075-.151A1.386,1.386,0,0,0,3.975,24.1Z" transform="translate(-0.895 -5.882)"/><path class="b" d="M6.151,20.554c0-.076.075-.076.075-.151a1.571,1.571,0,0,0-.451-.3c0,.076-.075.076-.075.151A1.571,1.571,0,0,1,6.151,20.554Z" transform="translate(-1.343 -4.906)"/><path class="b" d="M6.6,21.1a.264.264,0,0,1,.075-.151c-.075-.151-.225-.3-.3-.454,0,.076-.075.076-.075.151C6.375,20.8,6.525,20.954,6.6,21.1Z" transform="translate(-1.492 -5.004)"/><path class="b" d="M5.2,24.227c0-.076.075-.151.075-.227a1.108,1.108,0,0,1-.526.076H4.675c0,.076,0,.076-.075.151h.15A.476.476,0,0,0,5.2,24.227Z" transform="translate(-1.069 -5.858)"/><path class="b" d="M13.8,11.434c.075-.076.225-.151.3-.227a1.256,1.256,0,0,1,.376-.907,4.169,4.169,0,0,0-.6.454,1.674,1.674,0,0,0-.075.6Z" transform="translate(-3.358 -2.514)"/><path class="b" d="M16.151,9.478a1.271,1.271,0,0,1,.526.076c.15-.076.225-.151.376-.227L16.376,9.1c-.225.151-.451.227-.676.378Z" transform="translate(-3.831 -2.221)"/><path class="b" d="M17.426,9.954c.075-.076.225-.076.3-.151a1.571,1.571,0,0,0-.451-.3c-.15.076-.225.151-.376.227A.68.68,0,0,1,17.426,9.954Z" transform="translate(-4.129 -2.319)"/><path class="b" d="M14.176,12a.964.964,0,0,1-.075-.454V11.4c-.075.076-.225.151-.3.227a1.1,1.1,0,0,0,.15.529A1.08,1.08,0,0,0,14.176,12Z" transform="translate(-3.358 -2.782)"/><path class="b" d="M7.978,3.98A1.866,1.866,0,0,0,9.856,2.09a1.878,1.878,0,1,0-3.756,0A1.866,1.866,0,0,0,7.978,3.98Zm0-3.628A1.705,1.705,0,0,1,9.706,2.09,1.705,1.705,0,0,1,7.978,3.828,1.753,1.753,0,0,1,6.25,2.09,1.806,1.806,0,0,1,7.978.351Z" transform="translate(-1.442 -0.049)"/><path class="b" d="M8.028,3.877A1.705,1.705,0,0,0,9.756,2.139a1.728,1.728,0,1,0-3.456,0A1.753,1.753,0,0,0,8.028,3.877Zm0-3.326A1.592,1.592,0,0,1,9.605,2.139,1.545,1.545,0,0,1,8.028,3.726a1.587,1.587,0,0,1,0-3.175Z" transform="translate(-1.492 -0.098)"/><path class="b" d="M7.152,30A1.058,1.058,0,1,0,8.2,31.058,1.132,1.132,0,0,0,7.152,30Zm0,1.739a.68.68,0,1,1,.676-.68A.675.675,0,0,1,7.152,31.739Z" transform="translate(-1.442 -7.322)"/><path class="b" d="M2,12.758A1.078,1.078,0,0,0,.952,11.7,1.078,1.078,0,0,0-.1,12.758,1.03,1.03,0,0,0,.952,13.817,1.133,1.133,0,0,0,2,12.758Zm-.977.68a.68.68,0,1,1,.676-.68A.675.675,0,0,1,1.027,13.439Z" transform="translate(0.1 -2.856)"/><path class="b" d="M22.852,5.717A1.058,1.058,0,1,0,21.8,4.658,1.078,1.078,0,0,0,22.852,5.717Zm0-1.739a.68.68,0,0,1,0,1.361.743.743,0,0,1-.751-.68A.743.743,0,0,1,22.852,3.978Z" transform="translate(-5.348 -0.879)"/><path class="b" d="M107.674,48.6l-3.08.151a3.893,3.893,0,0,1-1.052.151,1.658,1.658,0,0,1-.676-.076l-6.536.378H95.279v-.68h0A3.8,3.8,0,0,0,93.326,48a.529.529,0,0,0,0,1.058,2.749,2.749,0,0,1,1.5.378,3.869,3.869,0,0,0,3.906,0,2.572,2.572,0,0,1,1.5-.378,2.749,2.749,0,0,1,1.5.378,3.869,3.869,0,0,0,3.906,0,2.572,2.572,0,0,1,1.5-.378,2.749,2.749,0,0,1,1.5.378,3.8,3.8,0,0,0,1.953.529.529.529,0,0,0,0-1.058,2.749,2.749,0,0,1-1.5-.378,7.762,7.762,0,0,0-.751-.3V48.6Z" transform="translate(-23.012 -11.716)"/><path class="b" d="M104.036,48.832a2.242,2.242,0,0,1-.751-.3,3.869,3.869,0,0,0-3.906,0,2.572,2.572,0,0,1-1.5.378H97.5v.3Z" transform="translate(-24.181 -11.716)"/><path class="b" d="M96.8,49.7Z" transform="translate(-24.007 -12.13)"/><path class="b" d="M111.029,48.1H110.8a3.8,3.8,0,0,0-1.953.529l-.451.227,3.08-.151h-.526v-.6Z" transform="translate(-26.893 -11.74)"/><path class="b" d="M97.326,49.7Z" transform="translate(-24.007 -12.13)"/><path class="b" d="M112.6,48.629h.526v-.378a4.761,4.761,0,0,0-.526-.151Z" transform="translate(-27.938 -11.74)"/><path class="b" d="M96.626,49.48v-.454c-.15-.076-.376-.151-.526-.227v.68Z" transform="translate(-23.833 -11.911)"/><path class="b" d="M111.9,48.629h.526v-.454c-.15,0-.3-.076-.526-.076Z" transform="translate(-27.764 -11.74)"/><path class="b" d="M96.8,49.578h.526v-.3c-.225,0-.376-.076-.526-.076v.378Z" transform="translate(-24.007 -12.008)"/><path class="b" d="M66.818,48.5h0l-.526.076h0l-1.427.076H64.79a2.572,2.572,0,0,1-1.5.378,2.316,2.316,0,0,1-1.2-.3l-6.01.3v.076H55.7a11.2,11.2,0,0,1,.6.983h.225a3.8,3.8,0,0,0,1.953-.529,2.572,2.572,0,0,1,1.5-.378,2.749,2.749,0,0,1,1.5.378,3.869,3.869,0,0,0,3.906,0,2.571,2.571,0,0,1,1.5-.378,2.749,2.749,0,0,1,1.5.378,3.8,3.8,0,0,0,1.953.529.529.529,0,0,0,0-1.058,2.749,2.749,0,0,1-1.5-.378,4.711,4.711,0,0,0-1.352-.454v.3Z" transform="translate(-13.782 -11.764)"/><path class="b" d="M60.006,48.1a3.8,3.8,0,0,0-1.953.529,2.571,2.571,0,0,1-1.5.378H56.1v.076l6.01-.3c-.075-.076-.15-.076-.225-.151A2.785,2.785,0,0,0,60.006,48.1Z" transform="translate(-13.882 -11.74)"/><path class="b" d="M70.5,48.6Z" transform="translate(-17.464 -11.862)"/><path class="b" d="M67.9,48.554l1.427-.076-.075-.378A3.171,3.171,0,0,0,67.9,48.554Z" transform="translate(-16.817 -11.74)"/><path class="b" d="M55.852,49.229h0l-.526-.076v-.227A3.648,3.648,0,0,1,54.8,48.7l.15.68.451.68a2.068,2.068,0,0,0,.676.076,4.291,4.291,0,0,1-.6-.983Z" transform="translate(-13.558 -11.886)"/><path class="b" d="M69.8,48.6h0Z" transform="translate(-17.29 -11.862)"/><path class="b" d="M70.5,48.478l.526-.076v-.3H70.5Z" transform="translate(-17.464 -11.74)"/><path class="b" d="M55.5,49.1v.227h.526v-.076A1.9,1.9,0,0,0,55.5,49.1Z" transform="translate(-13.732 -11.984)"/><path class="b" d="M55.15,50.2c.075,0,.225.076.3.076L55,49.6Z" transform="translate(-13.608 -12.106)"/><path class="b" d="M69.8,48.1l.075.378H70.4l-.075-.378H69.8Z" transform="translate(-17.29 -11.74)"/><path class="b" d="M129.026,41.458a1.481,1.481,0,0,1,1.052.378,2.845,2.845,0,0,0,3.305,0,1.652,1.652,0,0,1,2.1,0,2.845,2.845,0,0,0,3.305,0,1.652,1.652,0,0,1,2.1,0,2.841,2.841,0,0,0,1.653.529.529.529,0,0,0,0-1.058,1.481,1.481,0,0,1-1.052-.378,2.845,2.845,0,0,0-3.305,0,1.652,1.652,0,0,1-2.1,0,2.845,2.845,0,0,0-3.305,0,1.652,1.652,0,0,1-2.1,0,2.841,2.841,0,0,0-1.653-.529.515.515,0,0,0-.526.529A.566.566,0,0,0,129.026,41.458Z" transform="translate(-31.893 -9.861)"/><path class="b" d="M41.748,28.107a1.481,1.481,0,0,1-1.052-.378,2.845,2.845,0,0,0-3.305,0,1.652,1.652,0,0,1-2.1,0,2.845,2.845,0,0,0-3.305,0,1.652,1.652,0,0,1-2.1,0,2.841,2.841,0,0,0-1.653-.529.529.529,0,0,0,0,1.058,1.481,1.481,0,0,1,1.052.378,2.845,2.845,0,0,0,3.305,0,1.652,1.652,0,0,1,2.1,0,2.845,2.845,0,0,0,3.305,0,1.652,1.652,0,0,1,2.1,0,2.841,2.841,0,0,0,1.653.529.529.529,0,0,0,0-1.058Z" transform="translate(-6.816 -6.639)"/></svg>